<svg width="60" height="60" viewBox="0 0 81 81" fill="none" xmlns="http://www.w3.org/2000/svg">
<path d="M2.10156 52.46C2.58119 50.9237 2.9352 49.3352 3.57471 47.8743C4.62532 45.4684 6.41821 43.6655 8.65648 42.3495C9.14181 42.0654 9.26743 41.7466 9.27885 41.2132C9.35879 38.4015 9.44444 35.5898 9.61002 32.7839C9.66712 31.781 9.9469 30.7954 10.1296 29.7403C9.3645 29.3809 8.59367 29.0447 7.83426 28.662C6.875 28.1809 6.48673 27.2823 6.88642 26.3199C8.8449 21.5777 11.1574 17.05 14.6804 13.2586C20.67 6.82357 27.9786 2.96836 36.6519 1.97702C51.2063 0.31319 65.2868 8.15695 71.8589 21.4734C72.5954 22.9691 73.2635 24.4938 73.9372 26.0185C74.4911 27.2649 74.1542 28.1519 72.9209 28.7548C72.2243 29.091 71.522 29.4157 70.8425 29.7345C71.0652 31.2013 71.3907 32.6158 71.4763 34.0477C71.619 36.4478 71.6305 38.8595 71.659 41.2654C71.6647 41.7813 71.8132 42.0654 72.2643 42.3379C81.0175 47.5497 80.9946 60.3443 72.23 65.5503C71.8075 65.8054 71.6704 66.0721 71.659 66.5648C71.6019 68.304 71.7047 70.0954 71.3336 71.7766C70.4942 75.5507 67.114 78.1711 63.3112 78.1942C56.8933 78.229 50.4697 78.2058 44.0519 78.2058C42.8471 78.2058 42.0763 77.487 42.0648 76.4145C42.0534 75.313 42.8471 74.5651 44.0861 74.5593C49.7046 74.5535 55.3288 74.5593 60.9473 74.5593C61.7239 74.5593 62.4947 74.5709 63.2712 74.5535C65.9206 74.484 67.9876 72.3969 68.0732 69.707C68.0961 68.9012 68.0732 68.0953 68.0732 67.4054C66.0691 67.4054 64.1277 67.4054 62.1921 67.4054C60.6047 67.4054 59.9595 66.7561 59.9595 65.1561C59.9595 57.6718 59.9595 50.1932 59.9595 42.7089C59.9595 41.1784 60.639 40.4943 62.1635 40.4885C64.1049 40.4827 66.0462 40.4885 68.0275 40.4885C68.3473 38.9001 67.9819 33.2767 67.3766 31.3752C66.9655 31.5607 66.5601 31.752 66.149 31.9259C65.0756 32.3723 64.162 32.0419 63.6538 30.9752C63.06 29.7229 62.5118 28.4417 61.9237 27.1837C57.6813 18.1689 48.6426 12.6325 38.8331 13.4325C29.9086 14.1572 23.3594 18.7834 19.1969 26.8417C18.5459 28.0939 18.0149 29.4099 17.4268 30.6969C16.7759 32.1114 15.9194 32.4419 14.5319 31.81C14.2122 31.665 13.8981 31.5259 13.5384 31.3636C12.7676 34.4593 12.8304 37.5667 12.8818 40.4885C14.9202 40.4885 16.8844 40.4827 18.8486 40.4885C20.2817 40.4943 20.9783 41.1958 20.9783 42.6277C20.9783 50.1874 20.9783 57.7471 20.9783 65.301C20.9783 66.6982 20.2817 67.417 18.9 67.3997C16.6103 67.3649 14.3092 67.591 12.0424 66.9822C6.84074 65.5851 3.02656 61.2835 2.2386 55.8746C2.21576 55.7007 2.14724 55.5384 2.10156 55.3702V52.4774V52.46ZM69.9917 26.1054C64.7387 12.8006 52.3312 4.62639 38.519 5.47859C25.3178 6.29601 14.9659 15.2818 11.0032 26.1228C11.6085 26.4069 12.2137 26.6967 12.8247 26.9808C13.4528 27.2707 14.0808 27.549 14.6804 27.8272C19.7336 16.4819 28.0757 9.7744 40.4718 9.7744C52.8964 9.7744 61.2328 16.5225 66.2632 27.8388L69.986 26.1054H69.9917ZM17.3469 63.6836V44.1698C13.1901 43.8162 9.64999 44.9119 7.30895 48.5758C5.11637 52.0078 5.07069 55.6311 7.18904 59.1095C9.50724 62.9067 13.0873 64.0778 17.3469 63.6836ZM63.5967 63.6836C68.0104 64.072 71.659 62.8198 73.9258 58.8196C75.9528 55.2427 75.753 51.6078 73.4176 48.2337C71.0424 44.8017 67.5879 43.8162 63.5967 44.1698V63.6836Z" fill="#FF5E56"/>
</svg>
