<svg width="92" height="37" viewBox="0 0 92 37" fill="none" xmlns="http://www.w3.org/2000/svg">
<path d="M89.0019 36.1104H37.0052C36.1708 36.1104 35.4919 35.4325 35.4919 34.5993V3.25521C35.4919 2.422 36.1708 1.74414 37.0052 1.74414H89.0019C89.8363 1.74414 90.5152 2.422 90.5152 3.25521V34.5993C90.5152 35.4325 89.8363 36.1104 89.0019 36.1104ZM38.5185 33.0882H87.4886V4.76628H38.5185V33.0882Z" fill="#FCCE45"/>
<path d="M62.9999 25.6179C62.6675 25.6179 62.3281 25.505 62.0523 25.2861L36.0575 4.43474C35.4069 3.91222 35.3009 2.95897 35.8241 2.30936C36.3474 1.65974 37.3021 1.55382 37.9527 2.07634L63.0069 22.1651L88.0541 2.07634C88.7047 1.55382 89.6593 1.65974 90.1826 2.30936C90.7059 2.95897 90.5998 3.91222 89.9493 4.43474L63.9545 25.2861C63.6787 25.505 63.3393 25.6179 63.0069 25.6179H62.9999Z" fill="#FCCE45"/>
<path d="M37.005 36.1112C36.5736 36.1112 36.1493 35.9276 35.8523 35.5745C35.3149 34.939 35.3927 33.9858 36.0291 33.4491L55.0585 17.3711C55.6949 16.8345 56.6496 16.9121 57.187 17.5476C57.7244 18.1831 57.6466 19.1364 57.0102 19.673L37.9808 35.7511C37.698 35.9911 37.3515 36.1112 37.005 36.1112Z" fill="#FCCE45"/>
<path d="M89.0016 36.1112C88.6551 36.1112 88.3086 35.9911 88.0258 35.7511L68.9964 19.673C68.36 19.1364 68.2822 18.1831 68.8196 17.5476C69.3571 16.9121 70.3117 16.8345 70.9481 17.3711L89.9775 33.4491C90.6139 33.9858 90.6917 34.939 90.1543 35.5745C89.8573 35.9276 89.4259 36.1112 89.0016 36.1112Z" fill="#FCCE45"/>
<path d="M31.5884 4.91472H19.871C19.0365 4.91472 18.3577 4.23685 18.3577 3.40365C18.3577 2.57044 19.0365 1.89258 19.871 1.89258H31.5884C32.4228 1.89258 33.1017 2.57044 33.1017 3.40365C33.1017 4.23685 32.4228 4.91472 31.5884 4.91472Z" fill="#FCCE45"/>
<path d="M31.5883 11.1706H28.6254C27.7909 11.1706 27.1121 10.4927 27.1121 9.65951C27.1121 8.8263 27.7909 8.14844 28.6254 8.14844H31.5883C32.4227 8.14844 33.1016 8.8263 33.1016 9.65951C33.1016 10.4927 32.4227 11.1706 31.5883 11.1706Z" fill="#FCCE45"/>
<path d="M16.7735 11.1706H2.46789C1.63345 11.1706 0.95459 10.4927 0.95459 9.65951C0.95459 8.8263 1.63345 8.14844 2.46789 8.14844H16.7735C17.6079 8.14844 18.2868 8.8263 18.2868 9.65951C18.2868 10.4927 17.6079 11.1706 16.7735 11.1706Z" fill="#FCCE45"/>
<path d="M31.5884 17.4196H19.871C19.0365 17.4196 18.3577 16.7417 18.3577 15.9085C18.3577 15.0753 19.0365 14.3975 19.871 14.3975H31.5884C32.4228 14.3975 33.1017 15.0753 33.1017 15.9085C33.1017 16.7417 32.4228 17.4196 31.5884 17.4196Z" fill="#FCCE45"/>
<path d="M12.5943 17.4196H6.73205C5.89761 17.4196 5.21875 16.7417 5.21875 15.9085C5.21875 15.0753 5.89761 14.3975 6.73205 14.3975H12.5943C13.4287 14.3975 14.1076 15.0753 14.1076 15.9085C14.1076 16.7417 13.4287 17.4196 12.5943 17.4196Z" fill="#FCCE45"/>
<path d="M31.5882 23.6686H16.9078C16.0734 23.6686 15.3945 22.9908 15.3945 22.1576C15.3945 21.3243 16.0734 20.6465 16.9078 20.6465H31.5882C32.4227 20.6465 33.1015 21.3243 33.1015 22.1576C33.1015 22.9908 32.4227 23.6686 31.5882 23.6686Z" fill="#FCCE45"/>
<path d="M31.5882 29.9176H27.9535C27.119 29.9176 26.4402 29.2398 26.4402 28.4066C26.4402 27.5734 27.119 26.8955 27.9535 26.8955H31.5882C32.4227 26.8955 33.1015 27.5734 33.1015 28.4066C33.1015 29.2398 32.4227 29.9176 31.5882 29.9176Z" fill="#FCCE45"/>
<path d="M23.5056 29.9176H10.975C10.1405 29.9176 9.46167 29.2398 9.46167 28.4066C9.46167 27.5734 10.1405 26.8955 10.975 26.8955H23.5056C24.3401 26.8955 25.0189 27.5734 25.0189 28.4066C25.0189 29.2398 24.3401 29.9176 23.5056 29.9176Z" fill="#FCCE45"/>
<path d="M31.5884 36.1735H23.5057C22.6713 36.1735 21.9924 35.4956 21.9924 34.6624C21.9924 33.8292 22.6713 33.1514 23.5057 33.1514H31.5884C32.4229 33.1514 33.1017 33.8292 33.1017 34.6624C33.1017 35.4956 32.4229 36.1735 31.5884 36.1735Z" fill="#FCCE45"/>
</svg>
