<svg width="173" height="152" viewBox="0 0 173 152" fill="none" xmlns="http://www.w3.org/2000/svg">
<path d="M77.4952 8.86426L57.6599 15.2628C52.9676 18.0354 43.1993 23.8367 41.6636 24.8605C39.7441 26.1402 34.6253 31.8989 33.3456 33.1786C32.0659 34.4583 29.5065 42.1365 29.5065 49.1748C29.5065 56.2132 27.5869 60.6921 27.5869 63.2515C27.5869 65.8109 28.8666 71.5696 29.5065 76.6884C30.1463 81.8072 30.7862 84.3666 32.0659 88.2057C33.3456 92.0448 33.3456 97.1636 33.3456 98.4433V106.121C33.3456 107.657 30.7862 114.013 29.5065 116.999C30.7862 118.705 34.1134 121.734 37.1847 120.198C41.0238 118.279 47.4223 118.279 48.702 118.279C49.7257 118.279 56.3802 120.838 59.5794 122.118C62.7787 122.758 69.3051 124.037 69.817 124.037C70.4569 124.037 89.6524 123.397 92.8516 122.118C96.0509 120.838 110.128 120.198 113.967 118.279C117.806 116.359 130.603 107.401 132.522 106.121C134.442 104.842 136.361 97.8034 138.921 92.6846C141.48 87.5658 142.12 84.3666 143.4 78.6079C144.679 72.8493 145.959 64.5312 145.959 57.4929C145.959 50.4545 142.76 49.1748 140.201 40.2169C137.641 31.259 132.522 29.9793 130.603 28.0598C128.683 26.1402 122.925 20.3816 122.285 19.1019C121.773 18.0781 111.834 13.1299 106.928 10.7838L77.4952 8.86426Z" fill="#25D366"/>
<path d="M20 133.446L29.3968 97.6342C24.1346 87.8331 21.1276 76.9011 21.1276 65.969C21.1276 29.7803 50.4456 0 86.9051 0C122.989 0 152.683 29.4033 152.683 65.969C152.683 102.158 123.365 131.938 86.9051 131.938C76.0048 131.938 65.4804 129.299 55.7078 124.022L20 133.446ZM57.5871 110.451L59.8423 111.959C68.1115 116.859 77.5083 119.498 86.9051 119.498C116.223 119.498 140.279 95.3724 140.279 65.969C140.279 36.5657 116.223 12.4399 86.9051 12.4399C57.5871 12.4399 33.5314 36.5657 33.5314 65.969C33.5314 75.7701 36.1625 85.1943 41.4246 93.4875L42.9281 95.7493L37.6659 115.729L57.5871 110.451Z" fill="white"/>
<path fill-rule="evenodd" clip-rule="evenodd" d="M111.337 75.0163C108.706 73.5085 104.947 71.6236 101.94 72.7545C99.3088 73.8854 97.8053 77.6551 96.3018 79.5399C95.55 80.6708 94.4224 80.6708 93.2948 80.2939C84.2739 76.5242 77.1323 70.4928 71.8702 62.1995C71.1184 61.0686 71.1184 59.9377 72.246 58.8068C73.7495 56.922 75.6289 55.0371 76.0047 52.3984C76.3806 50.1366 75.253 47.1209 74.1254 44.8591C72.9978 42.2203 71.4943 38.0737 68.4873 36.5658C65.8562 35.0579 62.4734 35.8119 60.2181 37.6967C56.4594 40.7124 54.5801 45.99 54.5801 50.8905C54.5801 52.3984 54.956 53.5293 54.956 55.0371C55.7077 58.4298 57.2112 61.4456 59.0905 64.0843C60.2181 66.3461 61.7216 68.231 63.2251 70.4927C68.1114 77.2781 74.1254 82.9326 81.2669 87.4562C84.6498 89.718 88.7844 91.6028 92.5431 92.7337C97.0535 94.2416 100.812 95.7495 105.699 94.9955C110.585 93.8646 115.471 90.8489 117.726 85.9484C118.478 84.4405 118.478 82.9326 118.102 81.4248C118.102 78.409 113.968 76.5242 111.337 75.0163Z" fill="white"/>
</svg>
