<?xml version="1.0" encoding="UTF-8"?><svg id="Capa_1" xmlns="http://www.w3.org/2000/svg" viewBox="0 0 121.52 68.13"><defs><style>.cls-1{fill:#ff5e56;}</style></defs><path class="cls-1" d="M38.84,56.73c-2.35,0-4.65-.1-6.95,.02-3.38,.17-5.69-2.54-5.86-5.66-.06-1.07,.48-1.79,1.39-1.89,.98-.1,1.55,.51,1.77,1.61,.15,.75,.42,1.52,.85,2.13,.26,.37,.94,.61,1.44,.62,2.42,.06,4.84,0,7.26,.04,.6,.01,.7-.32,.87-.74,1.68-4.16,4.75-6.69,9.19-7.24,4.37-.55,7.95,1.08,10.57,4.63,.61,.83,.96,1.85,1.49,2.75,.14,.24,.46,.55,.7,.55,7.49,.03,14.98,.02,22.47,.01,.06,0,.11-.03,.28-.06,.01-.28,.04-.58,.04-.89,0-15.41,0-30.83-.01-46.24,0-.62-.13-1.29-.36-1.86-.37-.91-1.09-1.35-2.13-1.34-3.9,.03-7.81,.01-11.72,.01H32.02c-1.76,0-2.59,.74-2.83,2.5-.05,.4-.09,.84-.28,1.17-.35,.61-.96,.85-1.65,.69-.73-.17-1.18-.67-1.21-1.43C25.93,2.77,28.42,0,31.44,.03c6.88,.05,13.76,.01,20.63,.01C61.9,.04,71.72,.13,81.54,0c3.98-.05,5.96,3.18,5.95,5.91,0,1.77,0,3.55,0,5.48h1.06c5.68,0,11.36,.03,17.05-.01,2.42-.02,4.08,1,5.15,3.17,3.19,6.45,6.47,12.85,9.61,19.32,.59,1.21,.92,2.67,.96,4.02,.16,4.51,.16,9.03,.19,13.55,.02,3.3-1.97,5.28-5.26,5.28h-5.34c-.19,4.02-1.78,7.28-5.14,9.53-2.21,1.48-4.67,2.06-7.31,1.83-4.36-.36-9.92-3.88-10.3-11.31h-26.62c-.14,3.84-1.66,6.99-4.8,9.26-2.24,1.61-4.76,2.26-7.51,2.06-4.88-.37-10.14-4.33-10.41-11.36h.02Zm78.12-22.71c-.17-.35-.27-.58-.39-.81-2.89-5.75-5.78-11.5-8.64-17.26-.49-.98-1.14-1.41-2.26-1.4-5.74,.04-11.48,.02-17.22,.02-.28,0-.57,.03-.88,.04V53.57h1.02c.55-1.06,.97-2.14,1.62-3.05,2.61-3.7,6.23-5.42,10.72-4.88,4.44,.54,7.53,3.05,9.2,7.22,.24,.6,.52,.78,1.13,.76,1.66-.04,3.32-.01,4.98-.01,1.55,0,2.18-.64,2.17-2.18-.04-4.34-.1-8.68-.15-13.02,0-.39-.07-.78-.11-1.21h-21.71v-9.27c0-2.13-.01-4.25,0-6.38,0-1.13,.72-1.81,1.74-1.71,.91,.09,1.41,.73,1.41,1.88,0,3.79,0,7.58,0,11.36v.96h17.39Zm-17.4,30.96c4.5,0,8.18-3.68,8.18-8.18s-3.69-8.15-8.2-8.14c-4.45,.01-8.12,3.68-8.14,8.13-.01,4.49,3.68,8.19,8.17,8.19h0Zm-41.2-8.13c0-4.52-3.63-8.18-8.14-8.18s-8.18,3.68-8.18,8.17c.01,4.49,3.7,8.15,8.2,8.14,4.47,0,8.11-3.66,8.11-8.12h0Z"/><path class="cls-1" d="M34.09,12.3h12.84c.71,0,1.36,.21,1.54,.89,.13,.49,.1,1.25-.19,1.59-.33,.39-1.05,.62-1.6,.63-3,.06-6,.03-9,.03H21.51c-.21,0-.41,0-.61-.03-.85-.14-1.43-.83-1.38-1.65,.05-.82,.67-1.44,1.55-1.46,1.08-.03,2.15,0,3.23,0h9.79Z"/><path class="cls-1" d="M30.31,35.07h-12.67c-1.21,0-1.88-.57-1.86-1.57,.01-.96,.68-1.54,1.83-1.55h25.43c1.19,0,1.88,.6,1.86,1.6-.01,.96-.67,1.53-1.83,1.53h-12.75Z"/><path class="cls-1" d="M21.55,44.93H9.31c-.32,0-.64,0-.96-.04-.83-.11-1.39-.74-1.39-1.53,0-.75,.51-1.41,1.3-1.53,.54-.08,1.1-.06,1.65-.06h23.94c.29,0,.58,0,.87,.04,.88,.14,1.41,.78,1.38,1.63-.04,.8-.59,1.38-1.45,1.47-.43,.04-.87,.03-1.31,.03h-11.8Z"/><path class="cls-1" d="M6.4,35.07c-1.54,0-3.09,0-4.63,0-1.07,0-1.74-.59-1.76-1.52-.03-.95,.67-1.61,1.77-1.61,3.12-.01,6.23-.01,9.35,0,1.11,0,1.78,.65,1.75,1.62-.03,.93-.67,1.5-1.76,1.5-1.57,0-3.15,0-4.72,0h0Z"/><path class="cls-1" d="M19.96,24.7H7.73c-.32,0-.64,0-.96-.04-.83-.11-1.39-.74-1.39-1.53,0-.75,.51-1.41,1.3-1.53,.54-.08,1.1-.06,1.65-.06h23.94c.29,0,.58,0,.87,.04,.88,.14,1.41,.78,1.38,1.63-.04,.8-.59,1.38-1.45,1.47-.43,.04-.87,.03-1.31,.03h-11.8Z"/><rect class="cls-1" x="4.4" y="12.25" width="12.48" height="3.15" rx="1.57" ry="1.57"/></svg>