<svg width="24" height="23" viewBox="0 0 24 23" fill="none" xmlns="http://www.w3.org/2000/svg">
<path d="M21.3333 0H2.66667C1.2 0 0 1.15 0 2.55556V20.4444C0 21.8513 1.2 23 2.66667 23H21.3333C22.8 23 24 21.8513 24 20.4444V2.55556C24 1.15 22.8 0 21.3333 0ZM11.9787 18.5572C13.9371 18.5568 15.8153 17.811 17.2 16.4837C18.5848 15.1565 19.3627 13.3564 19.3627 11.4796C19.3627 11.0477 19.3053 10.6311 19.2253 10.2222H21.3333V19.4427C21.3333 19.5588 21.3094 19.6737 21.2629 19.781C21.2164 19.8882 21.1483 19.9855 21.0625 20.0675C20.9766 20.1494 20.8747 20.2142 20.7626 20.2583C20.6506 20.3024 20.5305 20.3248 20.4093 20.3243H3.59067C3.46951 20.3248 3.34945 20.3024 3.23737 20.2583C3.12529 20.2142 3.0234 20.1494 2.93754 20.0675C2.85169 19.9855 2.78356 19.8882 2.73708 19.781C2.69059 19.6737 2.66667 19.5588 2.66667 19.4427V10.2222H4.732C4.65067 10.6311 4.59333 11.0477 4.59333 11.4796C4.59369 13.3566 5.3719 15.1566 6.75684 16.4838C8.14178 17.811 10.0201 18.5568 11.9787 18.5572ZM7.364 11.4796C7.364 10.8988 7.48336 10.3237 7.71527 9.78718C7.94718 9.25063 8.28709 8.76311 8.7156 8.35246C9.14412 7.9418 9.65283 7.61605 10.2127 7.3938C10.7726 7.17156 11.3727 7.05717 11.9787 7.05717C12.5847 7.05717 13.1847 7.17156 13.7446 7.3938C14.3045 7.61605 14.8132 7.9418 15.2417 8.35246C15.6702 8.76311 16.0102 9.25063 16.2421 9.78718C16.474 10.3237 16.5933 10.8988 16.5933 11.4796C16.5933 12.6524 16.1071 13.7773 15.2417 14.6067C14.3763 15.436 13.2026 15.9019 11.9787 15.9019C10.7548 15.9019 9.58102 15.436 8.7156 14.6067C7.85019 13.7773 7.364 12.6524 7.364 11.4796ZM20.4093 6.38889H18.256C18.0115 6.38821 17.7772 6.29484 17.6044 6.12916C17.4315 5.96348 17.334 5.73897 17.3333 5.50467V3.4385C17.3333 2.95039 17.7467 2.55556 18.2547 2.55556H20.408C20.92 2.55556 21.3333 2.95039 21.3333 3.4385V5.50339C21.3333 5.99022 20.92 6.38889 20.4093 6.38889Z" fill="white"/>
</svg>
