<svg width="18" height="24" viewBox="0 0 18 24" fill="none" xmlns="http://www.w3.org/2000/svg">
<path fill-rule="evenodd" clip-rule="evenodd" d="M9.30039 0C4.65639 0 0.900391 3.756 0.900391 8.4C0.900391 14.7 9.30039 24 9.30039 24C9.30039 24 17.7004 14.7 17.7004 8.4C17.7004 3.756 13.9444 0 9.30039 0ZM3.30077 8.40038C3.30077 5.08838 5.98877 2.40038 9.30077 2.40038C12.6128 2.40038 15.3008 5.08838 15.3008 8.40038C15.3008 11.8564 11.8448 17.0284 9.30077 20.2564C6.80477 17.0524 3.30077 11.8204 3.30077 8.40038ZM6.30076 8.40036C6.30076 6.74351 7.6439 5.40036 9.30076 5.40036C10.3726 5.40036 11.3629 5.97216 11.8988 6.90036C12.4347 7.82857 12.4347 8.97216 11.8988 9.90036C11.3629 10.8286 10.3726 11.4004 9.30076 11.4004C7.6439 11.4004 6.30076 10.0572 6.30076 8.40036Z" fill="white"/>
</svg>
