<svg width="327" height="90" viewBox="0 0 327 90" fill="none" xmlns="http://www.w3.org/2000/svg">
<g clip-path="url(#clip0_631_846)">
<path d="M99.7355 50.264C99.7355 54.5093 99.0576 58.8395 97.617 62.915C96.2613 66.8206 94.3123 70.4716 91.7702 73.7829C89.3128 77.0093 86.2623 79.8961 82.8728 82.1886C79.4833 84.5659 75.6702 86.264 71.6875 87.4527C67.5354 88.6414 63.2138 89.0659 58.8922 88.8112C54.6554 88.5565 50.5033 87.6225 46.6054 86.0093C42.7922 84.3961 39.2333 82.2735 36.1827 79.5565C33.0475 76.8395 30.4206 73.698 28.3022 70.2169C26.1838 66.6508 24.5738 62.7452 23.7264 58.6697C22.7943 54.4244 22.6248 50.0093 23.1332 45.764C23.6417 41.6037 24.828 37.5282 26.6922 33.7074C28.4717 29.9716 30.8443 26.5754 33.7254 23.6886C36.6064 20.7169 39.9112 18.2546 43.5548 16.3018C47.2833 14.349 51.2659 12.9905 55.418 12.3961C59.6549 11.7169 64.0612 11.8018 68.3828 12.5659C72.4502 13.3301 76.4328 14.7735 80.0765 16.8112C83.6354 18.849 86.9402 21.3961 89.6518 24.3678C92.4481 27.4244 94.736 30.9056 96.4307 34.6414C98.2102 38.4622 99.2271 42.6225 99.6507 46.8678C99.7355 47.8018 99.7355 49.0754 99.7355 50.264ZM99.7355 50.264C99.7355 71.5754 99.7355 28.9527 99.7355 50.264Z" stroke="white" stroke-width="0.4703" stroke-miterlimit="10"/>
<path fill-rule="evenodd" clip-rule="evenodd" d="M64.6544 25.4724C66.2644 24.3686 69.7386 22.8403 72.5349 22.8403H75.6702C77.6191 22.8403 84.1439 25.4724 84.2286 27.2554C84.2286 28.0195 84.1439 28.0195 83.9744 28.6988C83.3812 28.8686 83.2965 28.9535 82.5339 29.0384H82.2796C81.7712 29.0384 79.1444 26.2365 75.1617 26.3214H74.3144C71.6028 26.3214 68.1286 27.4252 66.5186 28.4441L65.9254 33.5384C67.1117 32.6893 69.7386 31.5007 71.857 31.5007L75.8396 31.4158C78.297 31.4158 80.3307 32.0101 82.1102 32.7743C84.3981 33.7931 84.737 35.0667 86.347 36.1705L87.1944 29.1233L87.7028 28.529C92.9565 28.4441 97.5323 25.1327 97.4476 19.9535V18.8497C97.3628 14.6893 92.2786 8.49123 88.0418 9.00067L81.856 9.67991C80.7544 9.84972 76.2633 3.4818 72.7891 3.5667H70.247C65.078 3.39689 59.4854 8.40633 58.1296 12.0573C57.2822 14.3497 58.638 18.4252 59.4854 20.2931C60.5022 22.7554 62.3665 24.2837 64.6544 25.4724C66.2644 24.2837 62.3665 24.2837 64.6544 25.4724Z" fill="#FCCE45"/>
<path fill-rule="evenodd" clip-rule="evenodd" d="M36.2676 40.5008L36.5218 63.1706C36.5218 65.8876 37.3692 68.5197 39.996 68.5197H41.945C50.2492 68.4348 39.2334 42.7933 50.6729 42.7084H52.6218C61.0108 42.6235 51.9439 68.4348 59.9939 68.3499H61.4345C66.9424 68.265 65.3324 60.3687 65.2476 55.0197C65.2476 49.331 64.8239 42.4537 70.2471 42.3687H72.7892C81.5171 42.2838 71.6876 68.0952 80.1613 68.0103H81.6019C83.4661 68.0103 85.2456 66.6518 85.2456 64.8687L84.9913 43.897C84.9066 38.4631 80.6698 34.897 75.3313 34.982H73.8908C67.1118 35.0669 67.0271 38.0386 63.8071 40.5008C63.0445 37.5291 59.4855 35.1518 55.5876 35.2367H53.8929C48.6392 35.3216 47.4529 38.7178 44.9108 40.4159C44.9108 37.3593 43.8939 35.3216 40.9281 35.4065H40.335C37.5386 35.4065 36.2676 37.9537 36.2676 40.5008Z" fill="#FCCE45"/>
<path fill-rule="evenodd" clip-rule="evenodd" d="M36.2672 40.5001C36.2672 37.9529 37.4535 35.4057 40.1651 35.3208H40.7583C43.7241 35.3208 44.7409 37.2737 44.7409 40.3303C47.283 38.5472 48.4694 35.2359 53.723 35.151H55.4178C59.3157 35.0661 62.9594 37.4435 63.6373 40.4152C66.8573 38.0378 66.942 34.9812 73.721 34.8963H75.1615C80.5847 34.8114 84.8215 38.3774 84.8215 43.8114L85.0757 64.7831C85.0757 66.5661 83.2963 67.9246 81.432 67.9246H79.9915C71.5178 68.0095 81.3473 42.1982 72.6194 42.2831H70.0773C64.8236 42.4529 65.2473 49.3303 65.2473 54.8491C65.332 60.1982 66.942 68.0944 61.4341 68.1793H59.9936C51.9436 68.2642 61.0104 42.4529 52.6215 42.5378H50.6725C39.233 42.7076 50.2488 68.2642 41.9446 68.3491H39.9957C37.3688 68.3491 36.6062 65.7171 36.5214 63.0001L36.2672 40.5001ZM24.8277 50.2642C25.0819 69.8774 40.9278 86.2642 60.2478 86.0944H62.7899C67.5352 86.0095 72.7041 84.1416 76.1783 82.6982C80.8389 80.7454 82.7031 78.2831 86.0078 75.5661C90.7531 71.8303 96.6 60.7076 96.5152 52.302L96.4305 47.4623C96.4305 43.8963 92.8715 31.0755 91.1768 31.0755C90.4142 31.0755 90.4142 31.2454 89.7363 31.4152C89.7363 34.4718 89.0584 35.8303 88.9736 38.4623C88.8889 39.9057 88.3805 40.585 88.4652 41.8586C88.4652 42.9623 88.8042 43.8963 88.8042 45.5095L89.0584 65.2925C89.0584 68.6888 84.991 71.8303 81.2626 71.9152H81.0084C70.162 72.0001 72.7041 58.0756 72.5347 47.1227C72.5347 47.1227 72.3652 46.5284 71.8568 46.2737C71.3483 46.0189 70.8399 46.2737 70.8399 46.2737C65.4167 49.2454 75.7547 72.0001 61.2646 72.1699C55.9262 72.2548 53.0451 69.2831 52.9604 63.7642C52.8757 58.3303 52.5367 52.2171 52.452 47.3774C51.8588 46.6982 51.5199 46.6133 50.7573 46.868C48.1304 46.868 49.1472 55.1038 49.1472 57.9057C49.232 62.7454 49.9099 66.1416 47.7915 69.1133C43.7241 74.802 32.9625 72.8491 32.8777 65.1227L32.6235 39.9057C32.5388 35.2359 35.1656 31.6699 39.9109 31.585H41.6057C43.9783 31.585 45.3341 32.8586 46.6899 33.7925C48.6388 32.434 50.6725 31.5001 53.9773 31.4152H57.3667C59.1462 31.4152 61.3494 32.6039 62.6204 33.368L63.2983 28.2737C59.1462 27.1699 54.7399 20.4623 54.6552 14.7737C45.9272 14.8586 38.2162 21.8208 33.6404 26.4057C28.8951 31.3303 24.743 40.585 24.8277 50.2642ZM64.6541 25.4718C66.2641 24.368 69.7383 22.8397 72.5347 22.8397H75.6699C77.6189 22.8397 84.1436 25.4718 84.2284 27.2548C84.2284 28.0189 84.1436 28.0189 83.9741 28.6982C83.381 28.868 83.2963 28.9529 82.5336 29.0378H82.2794C81.771 29.0378 79.1441 26.2359 75.1615 26.3208H74.3141C71.6025 26.3208 68.1283 27.4246 66.5183 28.4435L65.9252 33.5378C67.1115 32.6888 69.7383 31.5001 71.8568 31.5001L75.8394 31.4152C78.2968 31.4152 80.3305 32.0095 82.1099 32.7737C84.3978 33.7925 84.7368 35.0661 86.3468 36.1699L87.1942 29.1227L87.7026 28.5284C92.9563 28.4435 97.5321 25.1322 97.4473 19.9529V18.8491C97.3626 14.6888 91.77 8.83027 86.4315 9.16989L81.771 9.67932C80.6694 9.84913 76.1783 3.48121 72.7041 3.56611H70.162C65.0778 3.3963 59.4852 8.40574 58.1294 12.0567C57.282 14.3491 58.6378 18.4246 59.4852 20.2925C60.502 22.7548 62.3662 24.2831 64.6541 25.4718ZM55.1636 10.868C45.9272 10.9529 36.4367 17.9152 31.6914 22.7548C26.7767 27.7642 21.0993 37.868 21.184 47.7171L21.2688 52.8114C21.523 73.2737 40.6736 90.2548 61.7731 90.0001H62.0273C83.2962 89.7454 100.752 71.0661 100.498 49.4152V47.9718C100.498 44.9152 99.481 40.585 98.6337 38.1227C98.1252 36.6793 97.7863 35.0661 97.1084 33.7076C96.7694 32.9435 95.1594 30.2265 95.1594 29.7171C95.1594 29.7171 100.752 24.9623 100.667 20.6322V19.7831C100.583 14.5189 99.2268 12.4812 96.6 9.84913C94.8205 8.06611 90.2447 5.17932 87.0247 5.17932L85.5842 5.09442C84.1436 5.09442 82.7878 5.68876 82.7878 5.68876C82.7031 5.68876 79.2289 2.46234 78.2968 1.95291C74.2294 -0.848981 68.891 0.0849808 68.891 0.0849808C68.891 0.0849808 59.5699 1.44347 55.1636 10.868Z" fill="#FF5757"/>
<path d="M117.869 69.8771C117.53 70.0469 117.276 70.3016 117.022 70.5564C116.852 70.7262 116.768 70.8111 116.598 70.9809C116.513 71.0658 116.513 70.9809 116.429 70.9809C116.344 70.9809 116.259 70.9809 116.175 70.9809C115.412 71.0658 114.649 71.2356 113.887 71.4054C113.039 71.5752 112.277 71.745 111.429 72.0847C111.09 72.2545 110.751 72.3394 110.412 72.5941C110.243 72.679 110.073 72.7639 109.989 72.9337C109.904 73.0186 109.904 73.1035 109.819 73.1035C109.734 73.1884 109.734 73.1884 109.65 73.2733C110.751 71.8299 111.768 70.3016 112.616 68.6884C112.616 68.9432 112.785 69.113 112.87 69.2828C112.954 69.3677 113.039 69.4526 113.209 69.4526C113.293 69.4526 113.293 69.4526 113.378 69.4526C113.548 69.4526 113.463 69.4526 113.548 69.5375C113.548 69.6224 113.802 69.7922 113.717 69.8771C113.717 69.962 113.717 70.0469 113.802 70.1318C114.056 70.3016 114.31 70.1318 114.564 69.962C114.819 69.8771 115.073 69.7073 115.327 69.5375C115.581 69.3677 115.92 69.1979 116.175 69.0281C116.768 68.6884 117.276 68.2639 117.785 67.8394C118.293 67.4148 118.801 66.9903 119.225 66.4809C119.649 65.9715 119.988 65.462 120.327 64.8677C120.411 64.613 120.496 64.3582 120.581 64.1035C120.666 63.9337 120.92 63.7639 120.835 63.5092C120.75 63.3394 120.496 63.2545 120.411 63.3394C120.157 63.4243 119.988 63.7639 119.903 63.9337C119.818 64.1884 119.733 64.4431 119.564 64.613C119.395 64.9526 119.225 65.2073 118.971 65.462C118.886 65.2922 118.717 65.2073 118.547 65.2922C118.547 65.0375 118.293 65.0375 118.208 65.0375C118.039 65.0375 117.954 65.0375 117.785 65.1224C117.615 65.1224 117.53 65.0375 117.361 65.0375C116.852 64.9526 116.344 64.9526 115.836 65.1224C115.751 65.2073 115.581 65.2073 115.497 65.2073C115.412 65.2073 115.242 65.2073 115.158 65.2922C114.903 65.3771 114.649 65.462 114.395 65.5469C114.226 65.6318 114.056 65.8016 113.887 65.9715C113.717 66.1413 113.632 66.396 113.548 66.4809C113.971 65.5469 114.395 64.6979 114.819 63.7639C114.819 63.679 114.903 63.5941 114.988 63.5092C115.073 63.5092 115.158 63.4243 115.158 63.3394C115.158 63.2545 115.073 63.2545 115.073 63.1696C115.158 62.9998 115.158 62.9148 115.242 62.745C115.412 62.2356 115.581 61.7262 115.751 61.2167C115.751 61.3016 115.751 61.3865 115.836 61.4715C115.836 61.5564 115.92 61.5564 115.836 61.7262C115.751 61.8111 115.836 61.9809 115.836 62.0658C116.005 62.3205 116.259 62.4054 116.598 62.4054C116.429 62.5752 116.344 62.745 116.598 62.9998C116.683 63.0847 116.683 63.1696 116.768 63.2545C116.937 63.3394 117.022 63.2545 117.191 63.2545C117.785 63.1696 118.293 62.9149 118.801 62.6601C119.733 62.1507 120.581 61.3866 121.259 60.5375C121.598 60.0281 121.937 59.4337 122.106 58.9243C122.36 58.3299 122.615 57.7356 122.615 57.1413C122.615 56.9715 122.699 56.5469 122.53 56.3771C122.445 56.2922 122.191 56.2073 122.106 56.3771C121.937 56.6318 121.852 56.9715 121.767 57.2262C121.682 57.5658 121.598 57.9054 121.428 58.1601C121.343 58.245 121.343 58.4149 121.259 58.4998C121.174 58.4149 120.92 58.3299 120.835 58.3299C120.75 58.3299 120.666 58.4149 120.581 58.4998C120.496 58.5847 120.327 58.4998 120.242 58.4998C119.818 58.5847 119.395 58.7545 118.971 58.9243C118.462 59.0941 117.954 59.2639 117.446 59.4337C116.937 59.6035 116.429 59.8582 116.005 60.1979C116.174 59.5186 116.259 58.8394 116.429 58.1601C116.513 58.245 116.598 58.245 116.683 58.245C116.513 58.8394 117.869 58.3299 118.039 58.245C118.547 57.9903 118.971 57.6507 119.395 57.3111C120.327 56.462 121.089 55.3582 121.598 54.2545C121.852 53.6601 122.021 53.0658 122.276 52.4715C122.36 52.2167 122.53 51.962 122.445 51.7073C122.445 51.6224 122.36 51.5375 122.36 51.4526C122.36 51.3677 122.445 51.2828 122.445 51.1979C122.445 51.0281 122.191 50.8582 122.021 50.9432C121.767 51.0281 121.598 51.2828 121.598 51.4526C121.598 51.7073 121.598 51.962 121.428 52.2167C121.343 52.3865 121.259 52.4715 121.259 52.6413C121.259 52.7262 121.174 52.8111 121.174 52.896C121.089 52.9809 121.005 52.9809 120.92 52.9809C120.157 52.9809 119.564 53.6601 119.056 54.0847C118.632 54.4243 118.208 54.679 117.7 54.9337C117.53 55.0186 117.276 55.1884 117.191 55.3582C117.107 55.4431 117.191 55.5281 117.107 55.613C117.022 55.6979 116.937 55.7828 116.852 55.8677C117.022 54.4243 117.107 52.9809 117.107 51.5375C117.276 51.6224 117.53 51.6224 117.7 51.6224C117.615 51.7922 117.361 51.962 117.446 52.1318C117.615 52.3016 117.869 52.2167 118.039 52.1318C118.547 51.962 118.971 51.6224 119.31 51.3677C120.072 50.7733 120.75 50.0092 121.259 49.1601C121.598 48.7356 121.852 48.2262 122.106 47.7167C122.276 47.462 122.36 47.2073 122.53 46.9526C122.615 46.6979 122.53 46.4431 122.699 46.2733C122.784 46.1035 122.784 45.9337 122.53 45.8488C122.276 45.8488 122.106 46.0186 122.021 46.1884C121.937 46.3582 121.852 46.613 121.767 46.8677C121.598 47.1224 121.428 47.3771 121.259 47.6318C121.089 47.2922 120.496 47.3771 120.157 47.3771C119.649 47.462 119.225 47.6318 118.801 47.8865C118.462 48.0564 118.123 48.396 117.869 48.6507C117.785 48.7356 117.7 48.8205 117.7 48.9903C117.615 49.0752 117.53 49.1601 117.446 49.245C117.276 49.3299 117.107 49.4998 116.937 49.5847C116.852 48.7356 116.768 47.9715 116.768 47.2073C116.852 47.2922 116.937 47.2922 117.022 47.2922C116.937 47.5469 117.191 47.5469 117.361 47.5469C117.615 47.5469 117.785 47.3771 118.039 47.2073C118.123 47.1224 118.208 47.1224 118.293 47.1224C118.378 47.1224 118.462 47.0375 118.462 46.8677C118.462 46.7828 118.632 46.6979 118.717 46.613C118.886 46.5281 118.971 46.4431 119.14 46.3582C119.564 46.0186 120.072 45.5941 120.411 45.2545C120.581 45.0847 120.835 44.8299 120.92 44.6601C121.005 44.5752 121.089 44.4903 121.089 44.3205C121.174 44.2356 121.259 44.0658 121.343 43.9809C121.513 43.8111 121.598 43.5564 121.682 43.3016C121.767 43.0469 121.852 42.8771 121.852 42.6224C121.852 42.5375 121.852 42.4526 121.767 42.3677C121.682 42.2828 121.767 42.0281 121.767 41.8582C121.767 41.6884 121.937 41.3488 121.682 41.2639C121.513 41.179 121.428 41.2639 121.343 41.4337C121.343 41.6884 121.259 42.0281 121.259 42.2828C121.174 42.5375 121.174 42.7922 121.005 43.0469C120.835 43.2167 120.835 43.4715 120.581 43.6413C120.496 43.5564 120.496 43.5564 120.411 43.5564C120.496 43.4715 120.835 43.2167 120.666 43.0469C120.496 42.8771 120.327 42.962 120.157 43.0469C120.072 43.1318 119.988 43.1318 119.903 43.2167C119.818 43.2167 119.733 43.2167 119.649 43.1318C119.479 43.1318 119.225 43.1318 119.056 43.2167C118.208 43.3865 117.361 43.7262 116.768 44.4054C116.683 43.9809 116.598 43.5564 116.513 43.2167C116.683 43.2167 116.768 43.1318 116.937 43.0469C117.022 42.962 117.276 42.962 117.276 42.7922C117.446 42.5375 116.768 42.7073 116.683 42.7073C116.598 42.7073 116.513 42.7073 116.429 42.7073C116.344 42.7073 116.344 42.7073 116.344 42.6224C116.344 42.5375 116.598 42.4526 116.683 42.3677C116.937 42.2828 117.276 42.113 117.53 42.0281C118.547 41.6035 119.31 40.7545 119.903 39.9054C120.072 39.6507 120.242 39.396 120.411 39.1413C120.581 38.8865 120.666 38.6318 120.75 38.3771C120.75 38.2073 120.835 38.1224 120.835 37.9526C120.835 37.8677 120.92 37.7828 120.835 37.7828C120.835 37.6979 120.835 37.6979 120.835 37.613C120.835 37.3582 120.835 37.1035 120.835 36.9337C120.75 36.7639 120.75 36.5092 120.581 36.3394C120.496 36.2545 120.157 35.9998 120.157 36.3394C120.157 36.4243 120.242 36.5092 120.242 36.5941C120.242 36.679 120.242 36.7639 120.242 36.9337C120.242 37.1884 120.157 37.5281 120.157 37.7828C120.072 37.6979 119.818 37.7828 119.733 37.7828C119.564 37.8677 119.31 37.8677 119.14 37.9526C118.801 38.0375 118.378 38.2073 118.039 38.3771C117.361 38.7167 116.768 39.2262 116.259 39.7356C116.259 39.6507 116.259 39.5658 116.259 39.4809C116.259 39.396 116.259 39.396 116.259 39.3111C116.259 39.3111 116.344 39.2262 116.259 39.1413C116.259 39.0564 116.175 39.0564 116.175 38.9715C116.175 38.8016 116.09 38.7167 116.09 38.5469C116.005 38.2922 115.92 38.1224 115.92 37.8677C116.09 37.7828 116.259 37.7828 116.344 37.613C116.344 37.9526 116.683 37.8677 116.852 37.7828C117.107 37.613 117.361 37.4431 117.53 37.1884C117.869 36.7639 118.123 36.3394 118.378 35.9148C118.632 35.4903 118.801 34.9809 118.971 34.4715C119.14 33.962 119.31 33.4526 119.056 32.9432C118.971 32.8582 118.886 32.6884 118.801 32.6884C118.717 32.6884 118.717 32.4337 118.717 32.3488C118.717 32.179 118.632 32.0092 118.632 31.9243C118.632 31.8394 118.632 31.5847 118.547 31.4998C118.123 31.245 118.039 32.5186 118.123 32.7733C118.208 33.113 118.208 33.3677 118.039 33.6224C117.954 33.7922 117.954 33.7922 117.785 33.8771C117.615 33.8771 117.446 33.962 117.276 34.0469C117.022 34.1318 116.768 34.3016 116.598 34.4715C116.344 34.6413 116.09 34.7262 115.836 34.896C115.581 35.0658 115.327 35.2356 115.158 35.4903C114.988 35.1507 114.903 34.8111 114.734 34.4715C114.988 34.4715 115.242 34.2167 115.327 33.962C115.497 33.7073 115.581 33.4526 115.666 33.2828C115.92 32.6884 116.09 32.0941 116.259 31.4998C116.429 30.8205 116.513 30.2262 116.598 29.5469C116.598 29.2073 116.683 28.8677 116.683 28.613C116.683 28.3582 116.344 28.2733 116.09 28.3582C116.09 28.3582 116.175 28.3582 116.175 28.2733H116.005C115.92 28.2733 115.836 28.3582 115.751 28.3582C115.581 28.4432 115.581 28.6979 115.751 28.7828L115.836 28.8677C115.92 28.9526 115.92 28.9526 115.836 29.0375C115.836 29.2073 115.751 29.2922 115.751 29.462C115.666 29.8016 115.581 30.0564 115.581 30.396C115.497 30.396 115.412 30.2262 115.242 30.1413C115.073 30.0564 114.903 30.1413 114.734 30.2262C114.395 30.3111 114.141 30.5658 113.971 30.7356C113.463 31.245 113.209 31.9243 113.039 32.6035C112.87 32.179 112.785 31.6696 112.616 31.245C112.7 31.245 112.87 31.245 112.955 31.245C113.039 31.245 113.209 31.1601 113.293 31.1601C113.548 31.0752 113.717 30.9054 113.887 30.6507C114.226 30.2262 114.395 29.7167 114.48 29.2073C114.565 28.5281 114.564 27.8488 114.564 27.1696C114.564 26.8299 114.564 26.4903 114.564 26.1507C114.564 25.8111 114.48 25.3865 114.395 25.0469C114.31 24.7922 114.31 24.4526 114.226 24.1979C114.226 24.0281 114.056 23.9432 113.887 23.9432C113.717 23.9432 113.548 23.9432 113.463 24.113C113.378 24.1979 113.378 24.3677 113.378 24.5375C113.378 24.6224 113.378 24.7073 113.378 24.7922C113.378 24.962 113.378 24.962 113.293 25.0469C112.87 25.3865 112.7 25.896 112.616 26.4054C112.446 26.9998 112.277 27.5092 112.022 28.0186C111.853 28.2733 111.768 28.5281 111.599 28.7828C111.429 28.1884 111.09 27.7639 110.667 27.2545C111.006 27.1696 111.514 26.9998 111.768 26.745C112.022 26.4903 111.938 25.896 111.768 25.5564C111.683 25.3865 111.683 25.2167 111.599 25.0469C111.514 24.7922 111.429 24.6224 111.344 24.3677C111.175 24.0281 111.006 23.6035 110.667 23.3488C110.497 23.179 110.328 23.0941 110.158 23.0092C110.073 23.0092 109.989 22.9243 109.904 22.9243C109.819 22.8394 109.734 22.7545 109.65 22.5847C109.311 22.1601 108.972 21.8205 108.548 21.4809C108.209 21.1413 107.87 20.8016 107.531 20.462C107.447 20.3771 107.192 20.3771 107.192 20.5469C107.192 20.6318 107.362 20.7167 107.362 20.8016C107.447 20.8865 107.531 20.9715 107.616 21.1413C107.362 21.0564 107.616 21.4809 107.616 21.4809C107.701 21.6507 107.87 21.8205 107.955 21.9903C108.124 22.1601 108.209 22.3299 108.379 22.4998C108.463 22.5847 108.463 22.6696 108.548 22.7545C108.633 22.8394 108.718 22.9243 108.633 23.0092C108.379 23.2639 108.379 23.6035 108.463 23.8582C108.548 24.0281 108.548 24.1979 108.633 24.2828C108.633 24.3677 108.718 24.4526 108.718 24.4526C108.802 24.5375 108.718 24.7073 108.718 24.7922C108.633 25.4715 108.548 26.4054 109.141 26.9998C109.226 27.0847 109.396 27.1696 109.565 27.2545C109.65 27.2545 109.734 27.3394 109.819 27.3394C109.904 27.4243 109.989 27.5092 110.073 27.679C110.328 28.0186 110.497 28.4432 110.667 28.8677C110.073 28.5281 109.396 28.2733 108.802 27.9337C108.887 27.8488 108.887 27.679 108.718 27.679C108.633 27.679 108.294 27.7639 108.209 27.8488C108.124 28.0186 108.379 28.1884 108.463 28.2733C108.548 28.3582 108.633 28.4432 108.633 28.4432C108.718 28.5281 108.633 28.613 108.718 28.6979C108.887 28.8677 109.057 29.0375 109.226 29.2073C109.311 29.2922 109.396 29.3771 109.565 29.3771C109.65 29.462 109.65 29.462 109.734 29.5469C109.819 29.6318 109.734 29.6318 109.819 29.7167C109.904 29.8016 109.989 29.8016 110.073 29.8016C110.158 29.8016 110.328 29.8865 110.412 29.9715C110.497 30.0564 110.582 30.1413 110.751 30.2262C110.836 30.2262 110.836 30.2262 110.921 30.3111C110.921 30.396 110.921 30.4809 111.006 30.4809C110.582 30.2262 110.073 29.9715 109.65 29.6318C109.48 29.462 109.311 29.3771 109.057 29.2073C108.887 29.0375 108.718 28.8677 108.548 28.6979C108.718 28.613 108.379 28.3582 108.294 28.3582C108.124 28.3582 108.04 27.9337 107.955 27.7639C107.786 27.2545 107.616 26.745 107.362 26.3205C107.362 26.2356 107.277 26.0658 107.192 25.9809C107.108 25.9809 107.023 25.9809 107.023 25.9809C107.023 26.0658 107.108 26.2356 107.108 26.3205C107.192 26.4903 107.192 26.5752 107.192 26.745C107.277 27.2545 107.362 27.7639 107.616 28.1884C107.701 28.2733 107.701 28.4432 107.786 28.5281C107.786 28.613 107.786 28.6979 107.87 28.7828C107.955 29.0375 108.04 29.2073 108.209 29.3771C108.463 29.8016 108.887 30.0564 109.311 30.396C109.734 30.6507 110.158 30.9903 110.582 31.245C110.836 31.4148 111.599 31.5847 111.514 31.0752C111.514 31.0752 111.599 31.0752 111.599 31.1601C111.599 31.245 111.599 31.245 111.683 31.3299C111.683 31.4149 111.768 31.4998 111.768 31.6696C111.853 31.8394 111.938 32.0941 111.938 32.2639C111.683 32.0941 111.344 32.0092 111.006 31.9243C110.836 31.9243 110.667 31.8394 110.497 31.8394C110.412 31.7545 110.243 31.6696 110.073 31.6696C109.989 31.6696 109.819 31.7545 109.734 31.8394C109.65 31.9243 109.734 31.9243 109.65 31.9243C109.565 31.9243 109.48 31.9243 109.396 31.9243C109.311 31.9243 109.057 31.8394 109.141 32.0092C109.141 32.0941 109.48 32.0941 109.65 32.179C109.565 32.179 109.48 32.179 109.48 32.2639C109.396 32.2639 109.226 32.179 109.141 32.0941C108.972 31.9243 108.802 31.6696 108.633 31.4998C108.548 31.4148 108.294 30.9903 108.124 31.0752C107.87 31.0752 108.209 31.4998 108.294 31.5847C108.379 31.6696 108.463 31.8394 108.463 31.9243C108.463 32.0092 108.548 32.0092 108.548 32.0941C108.548 32.0941 108.463 32.179 108.548 32.179L108.633 32.2639C108.718 32.2639 108.718 32.3488 108.718 32.4337C108.802 32.5186 108.802 32.6035 108.887 32.7733C109.057 33.113 109.311 33.4526 109.565 33.7922C110.243 34.4715 111.344 34.8111 112.361 34.9809C112.446 34.9809 112.531 34.9809 112.616 35.0658C112.616 35.1507 112.616 35.1507 112.7 35.1507C112.785 35.1507 112.87 35.1507 112.955 35.2356C113.209 35.3205 113.463 35.3205 113.717 35.4054C113.887 35.4903 113.887 35.4903 113.887 35.6601C113.971 35.8299 113.971 35.9148 114.056 36.0847C114.141 36.3394 114.226 36.679 114.395 36.9337C114.226 36.8488 113.971 36.8488 113.802 36.7639V36.679C113.632 36.7639 113.378 36.679 113.124 36.5941C112.87 36.5092 112.616 36.5092 112.446 36.4243C112.192 36.3394 111.938 36.3394 111.768 36.2545C111.683 36.2545 111.26 36.1696 111.344 36.3394C111.09 36.2545 110.836 36.0847 110.582 35.9998C110.412 35.9149 110.328 35.8299 110.158 35.8299C109.989 35.745 109.989 35.6601 109.904 35.4903C109.734 35.1507 109.396 34.7262 108.972 35.0658C108.548 35.3205 108.972 35.745 109.141 36.0847C109.396 36.5941 109.819 37.0186 110.158 37.4431C110.497 37.8677 110.836 38.2922 111.26 38.6318C111.514 38.8016 111.683 38.9715 111.938 39.0564C112.192 39.1413 112.446 39.2262 112.7 39.396C113.124 39.7356 113.717 39.8205 114.226 39.9054C114.48 39.9054 114.734 39.9903 115.073 39.9054C115.158 39.9054 115.158 39.9054 115.158 40.0752C115.158 40.1601 115.158 40.245 115.242 40.3299C115.242 40.4998 115.327 40.5847 115.327 40.7545C114.565 40.4998 113.802 40.3299 113.039 40.1601C112.7 40.0752 112.277 40.0752 111.853 40.0752C111.683 40.0752 110.921 40.245 110.921 40.4998C110.751 40.3299 110.667 40.0752 110.497 39.9054C110.328 39.7356 110.158 39.5658 109.989 39.3111C109.904 39.2262 109.904 38.8865 109.734 38.8865C109.48 38.8865 109.65 39.2262 109.734 39.3111C109.904 39.8205 110.243 40.245 110.582 40.6696C110.836 41.0941 111.09 41.5186 111.514 41.8582C111.938 42.1979 112.446 42.3677 112.87 42.5375C113.124 42.6224 113.378 42.7922 113.548 42.8771C113.717 42.962 113.802 42.962 113.887 42.962C114.056 42.962 114.141 42.962 114.31 43.0469C114.564 43.0469 114.734 43.1318 114.988 43.3016C115.073 43.3865 115.158 43.3865 115.242 43.4715C115.327 43.4715 115.327 43.4715 115.327 43.5564C115.327 43.6413 115.327 43.7262 115.327 43.8111C115.327 44.4054 115.412 44.9148 115.497 45.4243C115.158 45.0847 114.819 44.8299 114.395 44.6601C113.971 44.4054 113.632 44.4054 113.124 44.3205C112.954 44.3205 112.785 44.1507 112.616 44.0658C112.446 43.9809 112.192 43.9809 112.022 43.896C111.938 43.896 111.853 43.8111 111.768 43.8111C111.683 43.8111 111.599 43.896 111.683 43.9809C111.853 44.2356 112.022 44.3205 112.277 44.4903C111.938 44.5752 111.853 44.9998 112.022 45.2545C111.599 44.8299 111.26 44.4054 111.175 43.8111C111.175 43.5564 111.26 42.7073 110.751 42.7922C110.582 42.7922 110.497 42.962 110.582 43.0469C110.667 43.3016 110.667 43.6413 110.667 43.896C110.751 44.4903 111.006 44.9998 111.429 45.4243C111.768 45.8488 112.192 46.2733 112.7 46.5281C113.209 46.8677 113.717 47.1224 114.31 47.2922C114.564 47.3771 114.819 47.5469 115.158 47.5469C115.327 47.5469 115.497 47.6318 115.581 47.6318C115.666 47.6318 115.751 47.6318 115.836 47.7167C115.92 47.7167 115.92 47.8016 115.92 47.8865C116.005 48.5658 116.005 49.245 116.09 49.9243C115.581 49.5847 115.073 49.1601 114.48 48.9903C113.887 48.7356 113.293 48.6507 112.7 48.5658C112.616 48.5658 112.361 48.4809 112.277 48.5658C112.192 48.6507 112.022 48.5658 111.938 48.5658C111.683 48.4809 111.429 48.2262 111.175 48.3111C111.09 47.9715 111.09 47.6318 111.09 47.3771C111.09 47.2073 111.006 47.0375 110.836 47.0375C110.582 47.0375 110.582 47.2073 110.582 47.3771C110.582 47.6318 110.582 47.9715 110.582 48.2262C110.667 48.7356 110.836 49.245 111.09 49.7545C111.683 50.7733 112.7 51.5375 113.717 52.1318C114.141 52.3865 114.565 52.5564 114.903 52.7262C115.073 52.8111 115.327 52.896 115.497 52.9809C115.581 52.9809 115.751 53.0658 115.836 53.0658C115.92 53.0658 115.92 53.0658 116.005 53.0658C116.09 53.0658 116.09 53.1507 116.09 53.2356C116.005 54.3394 115.92 55.3582 115.751 56.3771C115.666 56.2922 115.581 56.2073 115.581 56.0375C115.581 55.9526 115.581 55.8677 115.497 55.7828C115.412 55.5281 115.242 55.3582 115.073 55.1884C114.734 54.7639 114.226 54.5092 113.802 54.2545C113.548 54.1696 113.209 53.9998 112.955 53.9998C112.616 53.9148 112.277 53.8299 111.938 53.745C111.768 53.745 111.683 53.745 111.514 53.6601C111.429 53.5752 111.26 53.4903 111.175 53.4054C111.09 53.3205 110.921 53.2356 110.836 53.1507C110.667 53.0658 110.582 52.8111 110.497 52.7262C110.412 52.5564 110.243 52.3016 109.989 52.3016C109.819 52.3016 109.565 52.3865 109.65 52.5564C109.65 52.6413 109.819 52.8111 109.904 52.896C109.989 52.9809 109.989 53.0658 109.989 53.0658C109.989 53.1507 109.989 53.1507 109.989 53.2356C110.073 53.4054 110.158 53.4903 110.243 53.5752C110.328 53.745 110.412 53.9148 110.497 54.0847C110.667 54.3394 110.836 54.679 111.006 54.9337C111.09 55.0186 111.006 55.1884 111.09 55.2733C111.175 55.3582 111.26 55.5281 111.344 55.613C111.599 56.0375 111.938 56.462 112.361 56.8016C112.785 57.2262 113.378 57.6507 113.887 57.9903C114.141 58.1601 114.48 58.1601 114.734 58.4149C114.903 58.5847 115.327 58.8394 115.581 58.6696C115.327 60.113 114.988 61.5564 114.48 62.9148C114.395 62.9148 114.395 62.8299 114.31 62.8299C114.48 62.6601 114.649 62.4054 114.649 62.1507C114.734 62.0658 114.819 61.9809 114.819 61.896C114.819 61.7262 114.649 61.6413 114.649 61.5564C114.48 60.962 114.141 60.6224 113.632 60.1979C113.378 60.0281 113.209 59.8582 112.955 59.6884C112.7 59.5186 112.361 59.3488 112.192 59.179C112.022 59.0092 111.768 58.7545 111.514 58.6696C111.26 58.5847 111.09 58.6696 110.921 58.8394C110.836 58.4998 110.667 58.245 110.412 57.9054C110.328 57.7356 110.243 57.5658 110.328 57.4809C110.412 57.3111 110.582 57.2262 110.497 57.0564C110.243 56.6318 109.819 57.1413 109.734 57.396C109.65 57.8205 109.734 58.3299 109.989 58.6696L110.073 58.7545C110.073 58.7545 110.073 58.7545 109.989 58.7545C110.073 59.3488 109.989 59.9432 110.158 60.5375C110.328 61.1318 110.751 61.4715 111.175 61.896C111.514 62.3205 111.938 62.745 112.446 62.9998C112.954 63.2545 113.548 63.5092 114.141 63.5941C113.548 65.0375 112.87 66.4809 112.107 67.8394C112.107 67.5847 112.192 67.245 112.277 66.9903C112.277 66.7356 112.277 66.396 112.107 66.1413C111.938 65.6318 111.514 65.2922 111.09 64.8677C110.751 64.5281 110.328 64.1884 109.904 63.9337C109.48 63.679 108.972 63.4243 108.463 63.5092C108.463 63.2545 108.463 62.9998 108.379 62.745C108.379 62.6601 108.379 62.5752 108.294 62.4903C108.209 62.4054 108.124 62.3205 108.124 62.2356C108.04 62.0658 108.124 61.896 107.955 61.8111C107.87 61.7262 107.616 61.7262 107.531 61.8111C107.362 61.896 107.362 62.2356 107.362 62.3205C107.447 62.4054 107.447 62.4903 107.531 62.5752C107.531 62.745 107.531 62.9149 107.531 63.0847C107.531 63.679 107.447 64.1884 107.531 64.7828C107.701 65.8866 108.124 66.9054 108.887 67.7545C109.226 68.179 109.565 68.4337 109.989 68.6035C110.412 68.7733 111.006 68.8582 111.429 68.6884C110.497 70.2167 109.565 71.6601 108.463 73.0186C108.548 72.5941 108.463 72.3394 108.379 71.9148C108.209 71.5752 108.04 71.2356 107.786 70.896C107.531 70.6413 107.277 70.3865 107.023 70.2167C106.938 70.1318 106.853 70.1318 106.769 70.0469C106.684 69.962 106.599 69.962 106.514 69.8771C106.345 69.7073 106.26 69.5375 106.176 69.3677C106.091 69.1979 106.006 69.113 105.921 68.9431C105.837 68.8582 105.582 68.5186 105.667 68.4337C105.752 68.2639 105.752 68.0941 105.837 68.0092C105.921 67.9243 106.091 67.8394 106.26 67.6696C106.43 67.4998 106.345 67.245 106.091 67.1601C105.752 66.9903 105.498 67.245 105.243 67.4148C105.243 67.3299 105.328 67.0752 105.243 67.0752C105.159 66.9903 105.074 66.9903 105.074 67.0752C104.989 67.245 104.989 67.3299 104.989 67.4998C104.989 67.5847 104.989 67.5847 104.989 67.6696C104.904 67.7545 104.904 67.8394 104.904 67.9243C104.82 68.179 104.65 68.3488 104.566 68.6035C104.481 68.7733 104.481 68.9432 104.481 69.0281C104.481 69.113 104.481 69.1979 104.481 69.2828C104.481 69.3677 104.396 69.4526 104.311 69.5375C103.888 69.962 103.718 70.6413 103.633 71.2356C103.549 71.8299 103.633 72.5092 103.888 73.1035C104.057 73.3582 104.227 73.613 104.481 73.7828C104.566 73.8677 104.65 73.8677 104.82 73.9526C104.904 73.9526 104.904 74.0375 104.989 74.0375C104.989 74.1224 105.074 74.2073 105.159 74.2073C105.498 74.6318 106.006 74.9714 106.514 75.2262C106.599 75.2262 106.599 75.3111 106.684 75.3111C106.684 75.396 106.599 75.396 106.599 75.4809C106.514 75.5658 106.514 75.6507 106.43 75.7356C106.26 75.9903 106.091 76.1601 105.921 76.4148C105.582 76.8394 105.159 77.3488 104.82 77.7733C103.294 79.5564 101.854 81.5092 100.244 83.2073C99.5661 83.9714 98.8034 84.6507 97.956 85.3299C97.3629 85.7545 96.7697 86.2639 96.2613 86.6884C96.0071 86.8582 95.7529 87.113 95.4139 87.3677C95.075 87.6224 94.6513 87.8771 94.3124 88.2167C94.1429 88.3865 93.8887 88.7262 94.2276 88.8111C94.5666 88.896 94.9903 88.896 95.3292 88.7262C95.8376 88.4715 96.2613 88.0469 96.685 87.7073C97.2782 87.1979 97.9561 86.6035 98.5492 86.0092C99.7355 84.9054 100.922 83.7167 102.023 82.528C103.888 80.4903 105.582 78.3677 107.362 76.245C107.786 75.7356 108.209 75.2262 108.548 74.7167C108.548 75.1413 108.802 75.396 109.226 75.396C109.48 75.396 109.734 75.396 109.989 75.3111C110.243 75.2262 110.497 74.9714 110.751 74.8865C111.26 74.7167 111.683 74.462 112.107 74.1224C112.277 73.9526 112.446 73.7828 112.7 73.6979C112.785 73.6979 112.785 73.613 112.87 73.613C112.954 73.5281 112.954 73.5281 113.039 73.5281C113.124 73.613 113.293 73.613 113.378 73.613C112.277 74.2922 111.175 75.0564 109.904 75.396C109.734 75.4809 109.65 75.6507 109.819 75.7356C109.989 75.9054 110.412 75.7356 110.582 75.7356C111.26 75.6507 111.768 75.3111 112.361 74.9715C113.548 74.2073 114.649 73.4431 115.666 72.5092C116.175 72.0847 116.598 71.6601 117.022 71.1507C117.446 70.7262 117.785 70.2167 118.293 69.8771C118.378 69.7922 118.632 69.7073 118.462 69.5375C118.123 69.7922 117.954 69.7922 117.869 69.8771ZM116.344 66.396C116.513 66.3111 116.768 66.1413 116.937 66.0564C116.513 66.3111 116.09 66.4809 115.751 66.7356C116.005 66.6507 116.175 66.4809 116.344 66.396ZM117.022 60.8771C117.276 60.6224 117.7 60.4526 118.123 60.2828C117.7 60.5375 117.361 60.8771 117.022 61.1318C116.937 60.962 116.937 60.962 117.022 60.8771ZM120.581 48.396C120.666 48.396 120.75 48.3111 120.75 48.3111C120.496 48.6507 120.327 48.9903 120.072 49.3299C119.988 49.245 119.988 49.245 119.903 49.1601C120.072 48.9903 120.242 48.9054 120.327 48.7356C120.496 48.7356 120.666 48.6507 120.581 48.396ZM120.157 44.1507C120.242 44.1507 120.242 44.1507 120.327 44.1507C120.157 44.2356 120.072 44.4054 119.903 44.4903C119.988 44.4054 120.072 44.2356 120.157 44.1507ZM118.717 46.1035C118.632 46.1884 118.547 46.1884 118.462 46.2733C118.378 46.3582 118.378 46.3582 118.208 46.3582C118.293 46.2733 118.208 46.2733 118.293 46.2733C118.462 46.1884 118.547 46.1035 118.717 46.1035ZM113.293 29.2073C113.293 29.1224 113.378 29.1224 113.378 29.0375C113.378 29.2073 113.378 29.2922 113.378 29.462C113.293 29.3771 113.293 29.2922 113.293 29.2073ZM109.734 32.9432C109.65 32.9432 109.65 32.9432 109.734 32.9432C109.819 32.9432 109.989 32.9432 110.158 33.0281C110.073 33.113 109.989 33.1979 109.989 33.2828C109.904 33.113 109.819 33.0281 109.734 32.9432ZM111.514 37.5281C111.429 37.4432 111.26 37.2733 111.175 37.1884C111.26 37.1884 111.344 37.3582 111.429 37.3582C111.599 37.4432 111.768 37.4432 111.938 37.5281C111.768 37.4432 111.599 37.4432 111.514 37.5281ZM114.31 38.462C114.226 38.3771 114.226 38.3771 114.31 38.462C114.31 38.3771 114.48 38.3771 114.564 38.2922C114.564 38.3771 114.564 38.462 114.564 38.5469C114.48 38.5469 114.395 38.462 114.31 38.462ZM112.616 41.7733C112.192 41.6035 111.768 41.2639 111.429 40.9243C111.599 40.9243 111.853 40.9243 112.022 40.9243C111.853 41.179 112.277 41.4337 112.446 41.5186C112.531 41.6035 112.7 41.6035 112.87 41.6884C112.954 41.6884 112.954 41.6884 113.039 41.7733C113.124 41.8582 113.124 41.8582 113.124 41.9432C112.87 41.8582 112.7 41.7733 112.616 41.7733ZM114.734 42.0281C114.734 42.0281 114.734 41.9432 114.734 42.0281C114.819 41.9432 114.819 41.9432 114.903 42.0281C114.819 42.0281 114.819 42.0281 114.734 42.0281ZM119.818 38.9715C119.818 39.0564 119.733 39.1413 119.649 39.2262C119.649 39.1413 119.564 39.1413 119.649 39.0564C119.733 39.0564 119.818 38.9715 119.818 38.9715ZM120.072 38.2922C119.988 38.5469 119.988 38.7167 119.818 38.8865C119.818 38.8016 119.733 38.7167 119.649 38.6318C119.479 38.5469 119.31 38.7167 119.225 38.7167C119.479 38.5469 119.733 38.3771 120.072 38.2922ZM116.344 42.4526C116.344 42.1979 116.259 42.0281 116.344 41.7733C116.513 41.7733 116.598 41.7733 116.768 41.7733C116.852 41.7733 116.937 41.7733 117.022 41.7733C117.107 41.8582 117.107 41.8582 117.191 41.8582C117.022 41.9431 117.022 42.113 116.852 42.1979C116.598 42.3677 116.429 42.4526 116.344 42.4526ZM113.039 49.8394C112.954 49.8394 112.954 49.8394 112.87 49.9243C112.785 49.8394 112.785 49.8394 112.7 49.7545C112.616 49.6696 112.531 49.5847 112.446 49.5847C112.192 49.4998 111.938 49.5847 111.768 49.7545C111.683 49.5847 111.514 49.4149 111.429 49.245C111.683 49.3299 111.938 49.3299 112.192 49.4149C112.531 49.4998 112.785 49.6696 113.039 49.8394C113.124 49.8394 113.039 49.8394 113.039 49.8394ZM116.09 50.7733V50.8582C116.005 50.7733 116.005 50.7733 115.92 50.6884C116.005 50.7733 116.005 50.7733 116.09 50.7733ZM115.327 51.8771C115.242 51.8771 115.158 52.0469 115.073 51.962C114.903 51.8771 114.819 51.7922 114.649 51.7922C114.819 51.7922 115.073 51.7922 115.242 51.7073C115.327 51.7073 115.412 51.6224 115.497 51.6224C115.581 51.7073 115.581 51.7922 115.666 51.8771C115.497 51.8771 115.412 51.8771 115.327 51.8771ZM117.022 50.6884C117.022 50.6035 117.022 50.5186 117.022 50.4337C117.107 50.4337 117.191 50.5186 117.276 50.5186C117.107 50.6035 117.107 50.6884 117.022 50.6884ZM115.242 57.3111C115.242 57.2262 115.242 57.1413 115.327 57.0564C115.412 57.1413 115.497 57.3111 115.666 57.396C115.412 57.3111 115.327 57.3111 115.242 57.3111ZM116.513 57.6507C116.513 57.5658 116.513 57.5658 116.513 57.4809C116.598 57.4809 116.598 57.4809 116.683 57.4809C116.683 57.4809 116.598 57.5658 116.513 57.6507ZM108.379 64.2733C108.463 64.2733 108.548 64.3582 108.633 64.3582C108.463 64.4432 108.463 64.613 108.463 64.7828C108.463 64.613 108.379 64.4431 108.379 64.2733ZM110.328 66.0564C110.243 66.0564 110.158 66.0564 110.158 66.0564C110.158 65.9715 110.073 65.8865 109.989 65.8016C109.904 65.6318 109.734 65.5469 109.734 65.3771C109.989 65.5469 110.243 65.8016 110.328 66.0564C110.412 66.0564 110.412 66.0564 110.328 66.0564ZM105.582 70.1318C105.582 69.962 105.498 69.6224 105.243 69.7922C105.243 69.6224 105.243 69.4526 105.243 69.2828C105.413 69.5375 105.582 69.8771 105.752 70.1318C105.752 70.1318 105.667 70.1318 105.582 70.1318ZM106.345 71.4054C106.26 71.3205 106.176 71.3205 106.091 71.3205C106.176 71.1507 106.26 70.9809 106.176 70.8111C106.43 70.9809 106.684 71.2356 106.853 71.4903C106.684 71.4054 106.514 71.4054 106.345 71.4054ZM106.599 74.5469C106.514 74.6318 106.43 74.8016 106.345 74.8016C106.26 74.7167 106.176 74.6318 106.091 74.5469C106.26 74.5469 106.514 74.5469 106.684 74.5469C106.684 74.462 106.599 74.462 106.599 74.5469ZM114.395 73.0186C114.395 72.9337 114.31 72.8488 114.395 72.7639C114.48 72.679 114.649 72.679 114.819 72.679C114.649 72.7639 114.48 72.9337 114.395 73.0186ZM115.073 72.5092C115.073 72.4243 115.073 72.3394 114.988 72.3394C115.242 72.1696 115.497 71.9148 115.836 71.8299C115.581 71.9998 115.327 72.2545 115.073 72.5092Z" fill="#FCCE45"/>
<path d="M4.57538 70.132C5.0838 70.4716 5.50749 70.9811 5.84643 71.4056C6.27012 71.915 6.6938 72.3396 7.20223 72.7641C8.21907 73.698 9.32065 74.4622 10.507 75.2263C11.0154 75.566 11.6085 75.9056 12.2864 75.9905C12.5407 76.0754 12.8796 76.1603 13.1338 76.0754C13.3033 75.9905 13.388 75.8207 13.2186 75.6509C13.1338 75.566 12.9643 75.566 12.7949 75.4811C12.6254 75.3962 12.5407 75.3962 12.3712 75.3112C12.0322 75.2263 11.778 75.0565 11.5238 74.8867C10.9307 74.5471 10.4222 74.2075 9.82907 73.8679C9.74434 73.8679 9.74434 73.783 9.6596 73.783C9.74434 73.783 9.91381 73.783 9.99855 73.698C10.0833 73.6131 10.0833 73.6131 10.168 73.698C10.2528 73.698 10.2528 73.783 10.3375 73.8679C10.507 74.0377 10.6764 74.1226 10.9307 74.2924C11.3543 74.632 11.778 74.8867 12.2864 75.0565C12.7949 75.2263 13.2186 75.6509 13.8117 75.566C14.2354 75.566 14.4896 75.2263 14.5743 74.8867C16.2691 77.0094 18.0486 79.132 19.828 81.2546C21.0991 82.698 22.3701 84.0565 23.7259 85.415C24.8275 86.5188 25.9291 87.6226 27.2002 88.5565C27.3696 88.6414 27.5391 88.8112 27.7086 88.8962C28.0475 89.066 28.5559 89.066 28.8949 88.8962C29.2338 88.7263 28.8949 88.3867 28.7254 88.2169C28.3865 87.8773 27.9628 87.6226 27.6238 87.3679C27.1154 86.9433 26.607 86.6037 26.0986 86.1792C25.4207 85.6697 24.7428 85.0754 24.0649 84.4811C22.3701 82.8679 20.9296 81.0848 19.4891 79.3018C18.7265 78.3679 17.8791 77.4339 17.1165 76.415C16.947 76.2452 16.8622 75.9905 16.6928 75.8207C16.608 75.7358 16.608 75.6509 16.5233 75.566C16.4386 75.4811 16.4386 75.4811 16.5233 75.3962C16.608 75.3113 16.6928 75.3113 16.7775 75.2263C17.2012 74.8867 17.7096 74.632 18.0486 74.1226C18.218 73.9528 18.4722 73.9528 18.6417 73.783C18.8959 73.6131 19.0654 73.2735 19.2349 73.0188C19.4891 72.4245 19.5738 71.8301 19.4044 71.1509C19.2349 70.5565 19.0654 69.9622 18.6417 69.5377C18.557 69.4528 18.557 69.198 18.557 69.1131C18.557 68.9433 18.4722 68.7735 18.3875 68.6886C18.3028 68.4339 18.1333 68.1792 17.9638 68.0094C17.9638 68.0094 17.9638 67.9245 17.8791 67.9245C17.7943 67.8396 17.8791 67.8396 17.8791 67.7547C17.8791 67.5848 17.7943 67.415 17.7943 67.3301C17.7943 67.2452 17.6249 67.2452 17.6249 67.3301C17.5401 67.415 17.6249 67.5848 17.6249 67.6697C17.3707 67.4999 17.1165 67.3301 16.8622 67.415C16.6928 67.4999 16.4386 67.7546 16.6928 67.9245C16.7775 68.0094 16.947 68.0943 17.0317 68.1792C17.2012 68.2641 17.2012 68.4339 17.2859 68.6037C17.3707 68.6886 17.3707 68.6886 17.3707 68.7735C17.2859 68.8584 17.2859 68.9433 17.2012 69.0282C17.1165 69.198 17.0317 69.3679 16.8622 69.5377C16.7775 69.7075 16.6928 69.7924 16.5233 69.9622C16.4386 70.0471 16.3538 70.132 16.3538 70.2169C16.2691 70.3018 16.1843 70.3018 16.0996 70.3867C15.7607 70.5565 15.5064 70.8112 15.2522 71.066C14.998 71.3207 14.8286 71.6603 14.6591 71.9999C14.5743 72.1697 14.4896 72.3396 14.4896 72.5943C14.4896 72.7641 14.4896 73.0188 14.4896 73.1886C13.388 71.8301 12.3712 70.3867 11.5238 68.8584C11.9475 68.9433 12.4559 68.9433 12.9643 68.7735C13.4728 68.6037 13.8117 68.2641 14.0659 67.9245C14.7438 67.0754 15.2522 66.0565 15.4217 64.9528C15.5064 64.3584 15.4217 63.849 15.4217 63.2546C15.4217 62.9999 15.4217 62.7452 15.5064 62.4905C15.5912 62.3207 15.5912 62.066 15.4217 61.8962C15.337 61.8113 15.1675 61.8113 14.998 61.8113C14.8286 61.8962 14.8286 61.9811 14.8286 62.1509C14.8286 62.2358 14.7438 62.2358 14.6591 62.3207C14.5743 62.4056 14.5743 62.4905 14.5743 62.6603C14.4896 62.915 14.4896 63.2547 14.4896 63.5094C13.9812 63.4245 13.5575 63.6792 13.1338 63.9339C12.7101 64.1886 12.2864 64.5282 11.9475 64.8679C11.4391 65.3773 11.0154 65.7169 10.8459 66.2263C10.7612 66.4811 10.6764 66.8207 10.6764 67.0754C10.6764 67.415 10.7612 67.6697 10.8459 68.0094C10.0833 66.6509 9.40539 65.2075 8.81223 63.7641C9.40539 63.5943 9.91381 63.4245 10.507 63.1697C11.0154 62.915 11.4391 62.4905 11.8628 62.066C12.2017 61.6414 12.6254 61.3018 12.7949 60.7075C12.9643 60.1131 12.9643 59.4339 13.0491 58.8396C13.0491 58.8396 13.0491 58.8396 12.9643 58.8396C12.9643 58.8396 12.9643 58.7546 13.0491 58.7546C13.3033 58.4999 13.388 58.0754 13.388 57.6509C13.388 57.3113 13.0491 56.7169 12.6254 56.9716C12.4559 57.1414 12.5407 57.2263 12.6254 57.3113C12.7101 57.4811 12.7101 57.6509 12.6254 57.8207C12.4559 58.1603 12.2017 58.415 12.117 58.8396C11.9475 58.7547 11.778 58.6697 11.6085 58.6697C11.3543 58.6697 11.1001 58.9245 10.9307 59.0943C10.507 59.5188 9.91381 59.7735 9.40539 60.198C8.9817 60.5377 8.55802 60.9622 8.38854 61.4716C8.30381 61.7263 8.0496 61.8962 8.30381 62.1509C8.38854 62.2358 8.38854 62.4056 8.47328 62.4905C8.55802 62.5754 8.64275 62.7452 8.72749 62.8301C8.64275 62.8301 8.64275 62.915 8.55802 62.915C8.0496 61.5565 7.71065 60.1131 7.45644 58.6697C7.62591 58.7546 7.96486 58.5848 8.13433 58.4999C8.21907 58.415 8.30381 58.3301 8.38854 58.2452C8.55802 58.1603 8.72749 58.1603 8.81223 58.0754C9.32065 57.8207 9.82907 57.566 10.2528 57.1414C10.6764 56.8018 11.0154 56.3773 11.3543 55.9528C11.5238 55.783 11.6085 55.5282 11.778 55.3584C11.8628 55.2735 11.9475 55.1886 11.9475 55.0188C11.9475 54.9339 11.9475 54.9339 11.9475 54.849C12.0322 54.7641 12.0322 54.6792 12.117 54.5943C12.2864 54.3396 12.4559 53.9999 12.5407 53.7452C12.6254 53.5754 12.7101 53.4905 12.7949 53.3207C12.8796 53.2358 12.8796 53.2358 12.9643 53.1509C13.0491 53.066 12.9643 52.9811 13.0491 52.8962C13.1338 52.7263 13.4728 52.4716 13.3033 52.3018C13.2186 52.132 12.9643 52.132 12.7949 52.2169C12.5407 52.3018 12.4559 52.6414 12.2864 52.8962C12.117 53.1509 11.778 53.4056 11.5238 53.5754C11.4391 53.6603 11.4391 53.6603 11.3543 53.7452C11.2696 53.8301 11.2696 53.8301 11.1001 53.8301C10.9307 53.8301 10.7612 53.8301 10.6764 53.915C10.3375 53.9999 9.99855 54.0848 9.6596 54.1697C9.06644 54.3396 8.47328 54.6792 7.96486 55.1037C7.79538 55.2735 7.54117 55.5282 7.3717 55.7829C7.28696 55.8679 7.28696 56.0377 7.20223 56.1226C7.20223 56.2075 7.20223 56.2924 7.20223 56.2924C7.11749 56.3773 7.03275 56.4622 6.94801 56.5471C6.86328 55.8679 6.77854 55.1886 6.77854 54.4245C6.77854 54.0848 6.6938 53.7452 6.6938 53.4056C6.6938 53.3207 6.6938 53.2358 6.6938 53.1509C6.77854 53.1509 6.86328 53.1509 6.94801 53.1509C7.11749 53.1509 7.28696 53.066 7.45644 52.9811C8.55802 52.5565 9.74434 51.9622 10.5917 51.198C11.4391 50.4339 12.117 49.4999 12.2864 48.3962C12.2864 48.1414 12.2864 47.8867 12.2864 47.632C12.2864 47.4622 12.2864 47.2075 12.0322 47.1226C11.9475 47.1226 11.6933 47.1226 11.6933 47.2924C11.6933 47.4622 11.6933 47.5471 11.6933 47.7169C11.6933 47.8867 11.6933 48.0565 11.6085 48.3113C11.6085 48.4811 11.5238 48.3962 11.4391 48.3962C11.3543 48.3962 11.2696 48.4811 11.1001 48.566C10.9307 48.6509 10.6764 48.7358 10.507 48.7358C10.4222 48.566 10.0833 48.7358 9.91381 48.7358C9.6596 48.7358 9.40539 48.8207 9.15118 48.8207C8.72749 48.9056 8.30381 49.0754 7.88012 49.2452C7.45644 49.4999 7.03275 49.7546 6.60907 50.0094C6.60907 49.3301 6.6938 48.7358 6.77854 48.0565C6.77854 47.9716 6.77854 47.9716 6.77854 47.8867C6.77854 47.8018 6.86328 47.8018 6.94801 47.8018C7.11749 47.8018 7.28696 47.7169 7.3717 47.7169C7.71065 47.7169 7.96486 47.632 8.30381 47.4622C8.81223 47.2075 9.40539 47.0377 9.91381 46.698C10.4222 46.3584 10.8459 45.9339 11.2696 45.5094C11.6085 45.0848 11.9475 44.6603 12.0322 44.066C12.0322 43.8112 12.0322 43.5565 12.117 43.2169C12.117 43.0471 12.2017 42.8773 12.0322 42.7924C11.5238 42.7075 11.6085 43.4716 11.6085 43.7263C11.6085 43.9811 11.5238 44.2358 11.3543 44.4905C11.1849 44.7452 11.0154 44.9999 10.7612 45.1697C10.8459 44.915 10.7612 44.4905 10.507 44.4056C10.6764 44.2358 10.9307 44.1509 11.0154 43.9811C11.1849 43.8112 10.9307 43.7263 10.7612 43.8112C10.5917 43.8962 10.3375 43.8962 10.168 43.9811C9.99855 44.066 9.82907 44.1509 9.6596 44.2358C9.23591 44.3207 8.81223 44.4056 8.38854 44.5754C7.96486 44.7452 7.62591 45.0848 7.28696 45.4245C7.3717 44.915 7.45644 44.3207 7.45644 43.7263C7.45644 43.6414 7.45644 43.6414 7.45644 43.5565C7.45644 43.4716 7.45644 43.3867 7.54117 43.3867C7.45644 43.3018 7.54117 43.2169 7.62591 43.132C7.88012 42.9622 8.13433 42.9622 8.38854 42.8773C8.47328 42.8773 8.64275 42.8773 8.72749 42.8773C8.89697 42.8773 8.9817 42.7924 9.06644 42.7924C9.32065 42.7075 9.57486 42.5377 9.82907 42.4528C10.3375 42.198 10.8459 42.1131 11.1849 41.6886C11.5238 41.349 11.778 41.0094 12.0322 40.5848C12.2864 40.1603 12.6254 39.7358 12.7949 39.2263C12.8796 39.1414 13.0491 38.8018 12.7949 38.8018C12.6254 38.8018 12.5407 39.1414 12.4559 39.2263C12.3712 39.3962 12.2017 39.566 12.0322 39.7358C11.8628 39.9056 11.6933 40.1603 11.6085 40.415C11.6085 40.1603 10.9307 40.0754 10.6764 39.9905C10.3375 39.9056 9.91381 39.9905 9.57486 39.9905C8.81223 40.1603 7.96486 40.3301 7.20223 40.5848C7.20223 40.3301 7.28696 40.0754 7.3717 39.8207C7.62591 39.8207 7.96486 39.8207 8.21907 39.8207C8.72749 39.7358 9.32065 39.6509 9.74434 39.3112L9.82907 39.2263C9.91381 39.1414 9.91381 39.2263 9.99855 39.1414C10.168 39.0565 10.2528 39.0565 10.4222 38.9716C10.6764 38.8867 10.9307 38.7169 11.1849 38.5471C11.6085 38.2075 11.9475 37.7829 12.2864 37.3584C12.7101 36.9339 13.0491 36.5094 13.3033 35.9999C13.4728 35.7452 13.8964 35.3207 13.4728 34.9811C13.0491 34.7263 12.7101 35.066 12.5407 35.4056C12.7101 35.6603 12.7101 35.7452 12.5407 35.8301C12.3712 35.915 12.2864 35.9999 12.117 35.9999C11.8628 36.1697 11.6085 36.2546 11.2696 36.4245C11.3543 36.2546 10.9307 36.3395 10.8459 36.3395C10.5917 36.3395 10.3375 36.4245 10.168 36.5094C9.91381 36.5943 9.6596 36.5943 9.49012 36.6792C9.23591 36.7641 9.06644 36.849 8.81223 36.7641C8.81223 36.849 8.72749 36.849 8.64275 36.9339C8.47328 36.9339 8.30381 37.0188 8.21907 37.1037C8.30381 36.849 8.38854 36.5943 8.47328 36.3395C8.55802 36.1697 8.64275 35.6603 8.81223 35.5754C8.9817 35.4905 9.23591 35.4905 9.49012 35.4905C9.57486 35.4905 9.74434 35.4056 9.82907 35.4056C9.99855 35.4056 9.82907 35.4056 9.99855 35.3207C10.0833 35.3207 10.0833 35.3207 10.168 35.3207C11.1849 35.2358 12.2017 34.8962 12.9643 34.132C13.2186 33.8773 13.4728 33.4528 13.727 33.1131C13.8117 32.9433 13.8964 32.6886 14.0659 32.6037C14.1507 32.6037 14.2354 32.5188 14.1507 32.4339C14.2354 32.2641 14.3201 32.1792 14.4049 32.0094C14.4896 31.9245 14.8286 31.5848 14.6591 31.4999C14.4896 31.3301 14.2354 31.7546 14.1507 31.8395C13.9812 32.0094 13.8117 32.2641 13.6422 32.4339C13.5575 32.5188 13.4728 32.6037 13.3033 32.6037C13.2186 32.6037 13.1338 32.5188 13.0491 32.5188C13.1338 32.5188 13.4728 32.5188 13.4728 32.4339C13.5575 32.349 13.388 32.2641 13.3033 32.2641C13.2186 32.2641 12.8796 32.349 12.8796 32.2641C12.7949 32.1792 12.7101 32.0943 12.5407 32.0943C12.3712 32.0943 12.2864 32.0943 12.2017 32.1792C11.9475 32.2641 11.8628 32.2641 11.6933 32.2641C11.3543 32.349 11.0154 32.4339 10.6764 32.6037C10.6764 32.4339 10.7612 32.1792 10.8459 32.0094C10.8459 31.9245 10.9307 31.8395 10.9307 31.6697C10.9307 31.5848 10.9307 31.5848 11.0154 31.4999C11.1001 31.4999 11.1001 31.4999 11.1001 31.415C11.0154 31.9245 11.6933 31.7546 11.9475 31.6697C12.3712 31.4999 12.7101 31.1603 13.1338 30.9056C13.8117 30.3962 14.7438 29.8018 14.8286 28.8679C14.9133 28.698 14.998 28.4433 15.0828 28.2735C15.1675 28.0188 15.2522 27.7641 15.2522 27.5094C15.337 27.2546 15.337 26.9999 15.4217 26.7452C15.4217 26.6603 15.5912 26.4905 15.5064 26.4056C15.5064 26.3207 15.337 26.3207 15.337 26.4056C15.0828 26.915 14.8286 27.4245 14.6591 27.9339C14.5743 28.1886 14.4896 28.4433 14.3201 28.698C14.2354 28.7829 14.1507 28.7829 14.0659 28.8679C13.9812 28.9528 13.8964 29.0377 13.9812 29.1226C13.727 29.4622 13.3033 29.8018 12.9643 30.1414C12.5407 30.4811 12.0322 30.6509 11.6085 30.9905C11.6933 30.9056 11.6085 30.7358 11.778 30.7358C11.9475 30.7358 12.0322 30.6509 12.117 30.566C12.2017 30.4811 12.2864 30.3962 12.3712 30.3962C12.4559 30.3112 12.6254 30.3112 12.7101 30.3112L12.7949 30.2263C12.7949 30.1414 12.8796 30.1414 12.8796 30.0565C12.9643 29.9716 13.1338 29.8867 13.2186 29.8018C13.388 29.632 13.6422 29.4622 13.727 29.2924C13.8117 29.2924 13.8117 29.2075 13.8117 29.1226C13.8117 29.0377 13.8964 28.9528 13.9812 28.8679C14.0659 28.7829 14.3201 28.6131 14.3201 28.4433C14.3201 28.2735 13.9812 28.1886 13.8964 28.1886C13.727 28.1886 13.6422 28.3584 13.727 28.4433C13.1338 28.7829 12.4559 29.0377 11.8628 29.3773C12.0322 28.9528 12.117 28.6131 12.3712 28.2735C12.4559 28.1886 12.4559 28.1037 12.5407 28.0188C12.6254 27.9339 12.6254 27.9339 12.7949 27.849C12.9643 27.849 13.2186 27.7641 13.3033 27.5943C13.8964 27.0848 13.8117 26.1509 13.727 25.4716C13.727 25.3867 13.727 25.3018 13.6422 25.2169C13.6422 25.132 13.6422 25.0471 13.727 24.9622C13.8117 24.7924 13.8964 24.7075 13.9812 24.5377C14.0659 24.198 14.1507 23.8584 13.8964 23.6037C13.8117 23.5188 13.8117 23.5188 13.8964 23.349C13.9812 23.2641 13.9812 23.1792 14.0659 23.0943C14.2354 22.9245 14.3201 22.6697 14.4896 22.4999C14.5743 22.3301 14.7438 22.1603 14.8286 21.9905C14.8286 21.9056 15.1675 21.4811 14.9133 21.566C15.0828 21.3962 15.2522 21.2263 15.337 21.0565C15.4217 20.8867 15.1675 20.8867 15.0828 20.8867C14.9133 20.9716 14.7438 21.2263 14.5743 21.3962C14.4049 21.566 14.2354 21.7358 14.0659 21.9056C13.727 22.2452 13.388 22.5848 13.0491 23.0094C12.8796 23.1792 12.7949 23.4339 12.5407 23.5188C12.3712 23.6037 12.2017 23.6886 12.0322 23.8584C11.4391 24.3679 11.0154 25.2169 10.9307 26.066C10.7612 26.4056 10.5917 26.9999 10.7612 27.3395C11.0154 27.6792 11.5238 27.849 11.8628 27.9339C11.5238 28.3584 11.1001 28.8679 10.9307 29.4622C10.5917 28.9528 10.2528 28.3584 10.0833 27.7641C9.91381 27.2546 9.82907 26.7452 9.57486 26.3207C9.49012 26.066 9.32065 25.8962 9.06644 25.7263C8.9817 25.6414 8.9817 25.3867 8.9817 25.3018C8.9817 25.132 8.9817 24.9622 8.89697 24.8773C8.72749 24.6226 8.13433 24.7075 8.21907 25.0471C8.21907 25.3867 8.13433 25.6414 8.0496 25.9811C7.96486 26.3207 7.96486 26.7452 7.96486 27.0848C7.88012 27.7641 7.96486 28.5282 7.96486 29.2075C7.96486 30.2263 8.13433 31.4999 9.23591 31.9245C9.49012 32.0094 9.6596 32.0094 9.91381 32.0094C9.74434 32.4339 9.57486 32.8584 9.49012 33.3679C9.23591 32.349 8.64275 31.1603 7.54117 30.9056C7.45644 30.9056 7.28696 30.9056 7.20223 30.9905C7.11749 31.0754 7.03275 31.3301 6.94801 31.0754C6.86328 30.7358 6.77854 30.3112 6.6938 29.9716C6.6938 29.8867 6.6938 29.8018 6.60907 29.7169C6.6938 29.7169 6.6938 29.632 6.77854 29.632C6.86328 29.5471 6.86328 29.4622 6.86328 29.2924C6.86328 29.2075 6.6938 29.1226 6.60907 29.0377C6.52433 29.0377 6.35486 29.0377 6.27012 28.9528C6.27012 28.9528 6.35486 28.9528 6.35486 29.0377C6.18538 28.9528 5.84643 28.9528 5.7617 29.2075C5.7617 29.3773 5.7617 29.5471 5.7617 29.632C5.7617 29.8018 5.7617 29.9716 5.84643 30.1414C5.93117 30.8207 6.01591 31.4999 6.18538 32.0943C6.35486 32.6886 6.52433 33.3679 6.77854 33.9622C6.86328 34.2169 6.94801 34.4716 7.11749 34.7263C7.62591 34.4716 7.79538 34.8112 8.13433 34.8112C8.0496 35.1509 7.88012 35.4905 7.71065 35.8301C7.3717 35.4056 6.77854 35.066 6.27012 34.8112C6.10064 34.6414 5.84643 34.4716 5.59222 34.3867C5.42275 34.3018 5.33801 34.3018 5.16854 34.2169C5.0838 34.2169 4.99906 34.2169 4.91433 34.132C4.82959 34.132 4.82959 34.0471 4.74485 33.9622C4.66012 33.7075 4.57538 33.3679 4.66012 33.1131C4.74485 32.8584 4.66012 32.5188 4.57538 32.1792C4.49064 32.0094 4.49064 31.6697 4.23643 31.7546C4.15169 31.7546 4.15169 31.9245 4.15169 32.0094C4.15169 32.1792 4.06696 32.349 4.06696 32.5188C4.06696 32.6886 4.06696 32.7735 3.98222 32.9433C3.89748 32.9433 3.81275 33.0282 3.72801 33.198C3.55854 33.4528 3.55853 33.7075 3.55853 33.9622C3.55853 34.4716 3.81275 34.9811 4.06696 35.4905C4.49064 36.5094 4.91433 37.4433 5.84643 38.0377C6.01591 38.1226 6.43959 38.2924 6.43959 37.8679C6.60907 38.1226 6.77854 38.1226 6.86328 38.2075C6.86328 38.4622 6.77854 38.7169 6.6938 38.8867C6.6938 38.9716 6.60907 39.1414 6.60907 39.2263C6.60907 39.3112 6.60907 39.3112 6.60907 39.3962C6.52433 39.3962 6.52433 39.4811 6.52433 39.4811C6.52433 39.566 6.52433 39.566 6.52433 39.6509C6.52433 39.7358 6.52433 39.9056 6.43959 39.9905C5.93117 39.3962 5.33801 38.9716 4.66012 38.632C4.32117 38.4622 3.98222 38.2924 3.55853 38.2075C3.38906 38.1226 3.21959 38.1226 3.05011 38.0377C2.88064 37.9528 2.62643 37.8679 2.54169 37.9528C2.54169 37.698 2.45695 37.4433 2.45695 37.1037C2.45695 36.9339 2.37222 36.6792 2.45695 36.5943C2.62643 36.5943 2.54169 36.5094 2.45695 36.5094C2.37222 36.5094 2.28748 36.5094 2.20274 36.5943C2.03327 36.7641 1.94853 36.9339 1.8638 37.1886C1.77906 37.4433 1.77906 37.6131 1.77906 37.8679C1.77906 37.9528 1.8638 38.1226 1.77906 38.1226C1.8638 38.2924 1.8638 38.3773 1.8638 38.5471C1.94853 38.8018 2.03327 39.0565 2.20274 39.3112C2.37222 39.566 2.54169 39.9056 2.71117 40.1603C3.30432 41.0094 4.06696 41.8584 5.0838 42.2829C5.33801 42.3679 5.59222 42.5377 5.93117 42.6226C6.10064 42.7075 6.18538 42.7924 6.35486 42.7924C6.35486 42.8773 6.35486 42.8773 6.35486 42.9622C6.27012 42.9622 6.18538 42.9622 6.10064 42.9622C6.01591 42.9622 5.42275 42.7075 5.42275 42.9622C5.42275 43.0471 5.67696 43.132 5.7617 43.2169C5.93117 43.3018 6.10064 43.3867 6.27012 43.3867C6.18538 43.8112 6.10064 44.1509 6.01591 44.5754C5.42275 43.9811 4.57538 43.5565 3.72801 43.3867C3.55854 43.3867 3.30432 43.3018 3.13485 43.3018C3.05011 43.3018 2.96538 43.3018 2.88064 43.3018C2.7959 43.3018 2.62643 43.2169 2.54169 43.132C2.37222 43.0471 2.20274 42.9622 2.03327 43.132C1.8638 43.3018 2.11801 43.5565 2.28748 43.6414C2.20274 43.6414 2.11801 43.7263 2.11801 43.7263C1.94853 43.7263 1.8638 43.4716 1.69432 43.3018C1.60958 43.2169 1.52485 43.132 1.52485 43.0471C1.52485 42.8773 1.44011 42.7075 1.44011 42.5377C1.35537 42.2829 1.35537 41.9433 1.27064 41.6886C1.27064 41.5188 1.1859 41.349 1.01643 41.4339C0.762215 41.5188 0.846952 41.7735 0.931689 41.9433C0.931689 42.1131 0.931689 42.198 1.01643 42.3679C1.01643 42.4528 0.846952 42.5377 0.846952 42.6226C0.846952 42.8773 0.931689 43.0471 1.01643 43.3018C1.10116 43.5565 1.1859 43.8112 1.35537 44.066C1.52485 44.2358 1.60958 44.4905 1.77906 44.6603C1.94853 44.915 2.11801 45.0848 2.28748 45.3396C2.71117 45.7641 3.13485 46.1037 3.55853 46.4433C3.81275 46.6131 4.06696 46.7829 4.23643 46.9528C4.23643 47.0377 4.23643 47.1226 4.32117 47.2075C4.4059 47.2924 4.57538 47.2075 4.66012 47.2924C4.91433 47.3773 5.0838 47.5471 5.33801 47.632C5.50749 47.632 5.84643 47.632 5.7617 47.3773C5.84643 47.3773 5.93117 47.2924 6.01591 47.2924C5.93117 48.0565 5.84643 48.9056 5.84643 49.6697C5.67696 49.5848 5.59222 49.415 5.42275 49.3301C5.25327 49.2452 5.16854 49.1603 5.0838 49.0754C4.99906 48.9905 4.99906 48.8207 4.91433 48.7358C4.66012 48.3962 4.32117 48.0565 3.89748 47.8867C3.4738 47.632 3.05011 47.4622 2.62643 47.3773C2.28748 47.2924 1.60958 47.2075 1.52485 47.632C1.35537 47.3773 1.1859 47.2075 1.10116 46.9528C1.01643 46.698 0.931689 46.5282 0.846952 46.2735C0.762215 46.1037 0.592741 45.9339 0.33853 45.849C0.169056 45.849 -0.0851553 46.0188 0.0843187 46.1886C0.253793 46.3584 0.169056 46.6131 0.253793 46.8679C0.33853 47.1226 0.508004 47.3773 0.592741 47.632C0.846951 48.1414 1.10116 48.6509 1.44011 49.0754C1.94853 49.9245 2.71117 50.6886 3.38906 51.2829C3.81275 51.6226 4.23643 51.8773 4.66012 52.0471C4.82959 52.132 5.0838 52.3018 5.25327 52.132C5.50749 51.9622 5.25327 51.7924 5.0838 51.6226C5.25327 51.6226 5.50749 51.6226 5.67696 51.5377C5.67696 52.9811 5.7617 54.4245 5.93117 55.8679C5.84643 55.783 5.67696 55.698 5.59222 55.6131C5.59222 55.5282 5.59222 55.3584 5.50749 55.2735C5.33801 55.0188 4.91433 54.849 4.66012 54.6792C4.15169 54.3396 3.64327 53.9999 3.21959 53.6603C2.88064 53.3207 2.37222 52.9811 1.8638 52.9811C1.77906 52.9811 1.69432 52.9811 1.60958 52.9811C1.52485 52.9811 1.52485 52.9811 1.44011 52.8112C1.35537 52.6414 1.35537 52.5565 1.27064 52.3867C1.10116 52.132 1.10116 51.8773 1.10116 51.5377C1.10116 51.2829 1.01643 51.1131 0.762214 50.9433C0.592741 50.8584 0.253793 50.9433 0.253793 51.1131C0.253793 51.198 0.253793 51.2829 0.33853 51.3679C0.33853 51.4528 0.33853 51.5377 0.33853 51.6226C0.253793 51.8773 0.33853 52.132 0.423267 52.3867C0.677478 53.1509 0.846951 53.7452 1.10116 54.3396C1.35537 54.9339 1.69432 55.4433 2.03327 56.0377C2.54169 56.8018 3.13485 57.4811 3.89748 57.9905C4.32117 58.2452 4.66012 58.415 5.0838 58.5848C5.25327 58.6697 6.18538 58.8396 6.01591 58.415C6.10064 58.415 6.18538 58.415 6.27012 58.3301C6.35486 59.0094 6.52433 59.6886 6.6938 60.3679C6.35486 60.0282 5.84643 59.7735 5.33801 59.6037C4.82959 59.4339 4.32117 59.2641 3.72801 59.0943C3.30432 58.9245 2.88064 58.7546 2.45695 58.6697C2.37222 58.6697 2.28748 58.6697 2.11801 58.6697C2.03327 58.6697 1.94853 58.5848 1.8638 58.4999C1.69432 58.415 1.44011 58.4999 1.35537 58.5848C1.10116 57.9905 0.931688 57.3113 0.677478 56.7169C0.592741 56.5471 0.508004 56.2924 0.253793 56.2924C-0.000418343 56.2924 -0.000418341 56.5471 -0.000418341 56.8018C-0.0851553 57.3962 0.0843186 57.9905 0.33853 58.5848C0.592741 59.1792 0.846951 59.6886 1.10116 60.198C1.69432 61.132 2.54169 61.8962 3.4738 62.4905C3.98222 62.7452 4.49064 62.9999 4.99906 63.1697C5.25327 63.2547 5.59222 63.3396 5.7617 63.2546C5.84643 63.2546 5.93117 63.1697 5.93117 63.0848C6.01591 62.9999 6.18538 62.915 6.10064 62.7452C6.10064 62.6603 6.01591 62.5754 5.93117 62.4905C6.18538 62.5754 6.52433 62.4056 6.6938 62.1509C6.77854 62.066 6.77854 61.9811 6.6938 61.8113C6.6938 61.7263 6.60907 61.7263 6.60907 61.6414C6.60907 61.5565 6.6938 61.4716 6.6938 61.3867C6.86328 61.8962 6.94801 62.3207 7.11749 62.8301C7.11749 62.915 7.20223 63.0848 7.20223 63.1697C7.28696 63.2547 7.28696 63.3396 7.20223 63.5094C7.11749 63.5943 7.20223 63.6792 7.20223 63.6792L7.28696 63.7641C7.3717 63.7641 7.3717 63.849 7.3717 63.9339C7.79538 64.8679 8.21907 65.8018 8.64275 66.7358C8.38854 66.3962 8.13433 65.9716 7.79538 65.7169C7.62591 65.5471 7.3717 65.4622 7.11749 65.4622C7.03275 65.4622 6.86328 65.3773 6.77854 65.3773C6.60907 65.3773 6.52433 65.2924 6.35486 65.2075C5.84643 65.0377 5.42275 64.9528 4.82959 65.1226C4.74485 65.1226 4.57538 65.2075 4.49064 65.2075C4.32117 65.2075 4.23643 65.2075 4.06696 65.1226C3.89748 65.1226 3.55854 65.0377 3.64327 65.2924C3.4738 65.2924 3.30432 65.2924 3.21959 65.4622C3.05011 65.2075 2.88064 64.9528 2.71117 64.698C2.54169 64.4433 2.45695 64.1886 2.37222 63.9339C2.28748 63.6792 1.77906 62.8301 1.35537 63.2546C1.1859 63.4245 1.44011 63.5943 1.52485 63.7641C1.69432 64.0188 1.69432 64.2735 1.77906 64.5282C2.54169 65.3773 2.96538 65.8867 3.38906 66.3962C4.23643 67.415 5.25327 68.1792 6.35486 68.9433C6.60907 69.1131 6.86328 69.283 7.20223 69.4528C7.45644 69.6226 7.71065 69.7924 7.96486 69.8773C8.21907 69.9622 8.47328 70.2169 8.72749 70.132C8.81223 70.132 8.89697 70.0471 8.89697 69.9622V69.8773C8.89697 69.7924 8.9817 69.7924 8.9817 69.7075C8.9817 69.6226 9.06644 69.6226 9.06644 69.5377C9.06644 69.4528 9.15118 69.4528 9.23591 69.4528C9.40539 69.4528 9.49012 69.4528 9.6596 69.3679C9.91381 69.198 10.0833 69.0282 10.0833 68.6886C10.507 69.4528 11.0154 70.2169 11.4391 70.9811C11.9475 71.7452 12.5407 72.5094 13.0491 73.2735C12.9643 73.1886 12.8796 73.1886 12.8796 73.1037C12.7949 73.0188 12.7949 72.9339 12.7101 72.9339C12.5407 72.7641 12.3712 72.6792 12.2017 72.5943C11.8628 72.3396 11.4391 72.2547 11.1001 72.0848C10.168 71.7452 9.23591 71.5754 8.30381 71.4056C7.88012 71.3207 7.45644 71.2358 7.03275 71.1509C6.86328 71.1509 6.60907 71.066 6.43959 71.066C6.35486 71.066 6.27012 71.1509 6.27012 71.1509C6.18538 71.066 6.10064 70.9811 6.01591 70.8962C5.7617 70.5565 5.42275 70.3018 5.0838 70.0471C4.91433 69.9622 4.74485 69.8773 4.57538 69.9622C4.4059 69.9622 4.4059 70.0471 4.57538 70.132ZM6.94801 66.7358C6.77854 66.6509 6.52433 66.3962 6.35486 66.3962C6.18538 66.3962 5.93117 66.2263 5.7617 66.0565C6.18538 66.2263 6.60907 66.4811 6.94801 66.7358ZM5.84643 60.8773C5.84643 60.9622 5.84643 60.9622 5.84643 61.0471C5.42275 60.7924 5.0838 60.4528 4.74485 60.198C4.91433 60.283 5.0838 60.4528 5.33801 60.5377C5.50749 60.6226 5.67696 60.7924 5.84643 60.8773ZM2.28748 48.8207C2.45695 48.9905 2.62643 49.0754 2.7959 49.2452C2.71117 49.2452 2.62643 49.3301 2.62643 49.415C2.37222 49.0754 2.20274 48.7358 1.94853 48.3962C1.94853 48.3962 2.03327 48.3962 2.11801 48.4811C2.20274 48.566 2.20274 48.4811 2.20274 48.566C2.11801 48.6509 2.20274 48.7358 2.28748 48.8207ZM2.7959 44.4905C2.71117 44.4905 2.62643 44.4056 2.62643 44.3207C2.54169 44.2358 2.45695 44.1509 2.37222 44.1509C2.54169 43.9811 2.71117 44.4056 2.7959 44.4905ZM4.49064 46.1886C4.49064 46.1886 4.49064 46.2735 4.57538 46.2735C4.49064 46.2735 4.49064 46.2735 4.32117 46.1886C4.23643 46.1037 4.15169 46.1037 4.06696 46.0188C4.15169 46.1037 4.32117 46.1886 4.49064 46.1886ZM9.40539 29.4622C9.40539 29.2924 9.40539 29.2075 9.40539 29.0377C9.40539 29.2924 9.40539 29.3773 9.40539 29.4622ZM12.7949 33.2829C12.7949 33.198 12.7101 33.1131 12.6254 33.0282C12.7949 33.0282 12.9643 32.9433 13.0491 32.9433C12.9643 33.0282 12.8796 33.1131 12.7949 33.2829ZM10.8459 37.4433C11.1001 37.3584 11.3543 37.2735 11.6085 37.1886C11.5238 37.2735 11.4391 37.4433 11.3543 37.5282C11.2696 37.5282 10.9307 37.4433 10.8459 37.4433ZM8.21907 38.5471C8.21907 38.4622 8.21907 38.3773 8.21907 38.2924C8.30381 38.3773 8.47328 38.3773 8.55802 38.3773C8.38854 38.4622 8.30381 38.4622 8.21907 38.5471ZM9.6596 41.9433C9.6596 41.8584 9.57486 41.8584 9.6596 41.7735C9.74434 41.6886 9.74434 41.6886 9.82907 41.6886C9.99855 41.6037 10.168 41.6037 10.2528 41.5188C10.4222 41.4339 10.8459 41.1792 10.6764 40.9245C10.8459 40.9245 11.1001 40.9245 11.2696 40.9245C11.0154 41.1792 10.8459 41.349 10.5917 41.5188C10.3375 41.6886 9.99855 41.7735 9.6596 41.9433ZM7.88012 42.0282C7.88012 41.9433 7.96486 41.9433 8.0496 41.9433C7.96486 42.0282 7.96486 42.0282 7.88012 42.0282ZM2.96538 38.9716L3.05011 39.0565C3.13485 39.1414 3.05011 39.1414 3.05011 39.2263C2.96538 39.1414 2.96538 39.0565 2.96538 38.9716ZM3.55853 38.7169C3.4738 38.632 3.30432 38.5471 3.13485 38.632C3.05011 38.632 2.88064 38.7169 2.88064 38.8867C2.7959 38.7169 2.71116 38.4622 2.62643 38.2924C2.96538 38.3773 3.21959 38.5471 3.55853 38.7169ZM6.10064 42.3679C6.01591 42.2829 5.93117 42.2829 5.84643 42.198C5.84643 42.1131 5.67696 42.0282 5.59222 41.9433L5.67696 41.8584C5.7617 41.7735 5.7617 41.8584 5.84643 41.8584C6.01591 41.8584 6.18538 41.8584 6.35486 41.8584C6.35486 41.9433 6.35486 41.9433 6.35486 42.1131C6.35486 42.198 6.35486 42.198 6.35486 42.2829C6.35486 42.3679 6.35486 42.4528 6.35486 42.5377C6.35486 42.4528 6.18538 42.3679 6.10064 42.3679ZM9.6596 49.8396C9.91381 49.6697 10.2528 49.4999 10.507 49.415C10.7612 49.3301 11.0154 49.3301 11.2696 49.2452C11.1849 49.415 11.0154 49.5848 10.9307 49.7546C10.7612 49.5848 10.507 49.4999 10.2528 49.5848C10.168 49.6697 10.0833 49.6697 9.99855 49.7546C9.91381 49.8396 9.91381 49.8395 9.82907 49.9245C9.82907 49.8395 9.74434 49.8396 9.6596 49.8396ZM6.77854 50.6886C6.6938 50.7735 6.6938 50.7735 6.60907 50.8584C6.60907 50.7735 6.6938 50.7735 6.77854 50.6886ZM7.20223 51.8773C7.20223 51.7924 7.28696 51.7075 7.3717 51.6226C7.45644 51.6226 7.54117 51.7075 7.62591 51.7075C7.71065 51.7924 7.96486 51.7924 8.13433 51.7924C7.96486 51.8773 7.79538 51.9622 7.62591 52.0471C7.54117 51.8773 7.3717 51.8773 7.20223 51.8773ZM5.50749 50.5188C5.59222 50.5188 5.67696 50.5188 5.7617 50.4339C5.7617 50.5188 5.7617 50.6037 5.7617 50.6886C5.67696 50.6886 5.59222 50.6037 5.50749 50.5188ZM7.20223 57.3962C7.28696 57.3112 7.3717 57.1414 7.54117 57.0565C7.62591 57.1414 7.62591 57.2263 7.62591 57.3113C7.45644 57.3113 7.28696 57.3112 7.20223 57.3962ZM6.01591 57.4811H6.10064C6.10064 57.566 6.10064 57.566 6.10064 57.6509C6.18538 57.566 6.10064 57.4811 6.01591 57.4811ZM14.2354 64.783C14.2354 64.6131 14.2354 64.4433 14.0659 64.3584C14.1507 64.3584 14.2354 64.2735 14.3201 64.2735C14.3201 64.4433 14.3201 64.6131 14.2354 64.783ZM12.2864 66.0565C12.4559 65.8018 12.7101 65.632 12.8796 65.3773C12.8796 65.5471 12.7101 65.632 12.6254 65.8018C12.5407 65.8867 12.5407 65.9716 12.4559 66.0565C12.4559 66.0565 12.3712 66.0565 12.2864 66.0565ZM16.947 70.132C17.1165 69.8773 17.2859 69.5377 17.4554 69.2829C17.4554 69.4528 17.4554 69.6226 17.4554 69.7924C17.2012 69.6226 17.1165 69.9622 17.1165 70.132C17.1165 70.132 17.0317 70.132 16.947 70.132ZM15.8454 71.4905C16.0149 71.2358 16.2691 70.9811 16.5233 70.8113C16.5233 70.9811 16.608 71.1509 16.6928 71.4056C16.5233 71.4056 16.4386 71.4056 16.2691 71.4056C16.0996 71.4056 16.0149 71.4056 15.8454 71.4905ZM16.0149 74.4622C16.1843 74.5471 16.3538 74.5471 16.608 74.4622C16.5233 74.5471 16.4386 74.7169 16.3538 74.7169C16.2691 74.632 16.1843 74.5471 16.0149 74.4622ZM7.96486 72.6792C8.04959 72.6792 8.21907 72.6792 8.30381 72.6792C8.38854 72.7641 8.38854 72.6792 8.38854 72.7641C8.38854 72.849 8.38854 72.849 8.38854 72.9339C8.21907 72.9339 8.13433 72.7641 7.96486 72.6792ZM6.94801 71.7452C7.28696 71.8301 7.54117 72.0848 7.79538 72.2546C7.71065 72.3396 7.71065 72.4245 7.71065 72.4245C7.45644 72.2547 7.20223 71.9999 6.94801 71.7452Z" fill="#FCCE45"/>
<path fill-rule="evenodd" clip-rule="evenodd" d="M209.639 48.9912C209.639 46.7837 209.385 45.0856 211.927 45.0856C214.045 45.0856 213.876 47.5478 213.876 48.5667V51.4535C213.876 53.1516 213.537 53.9158 212.096 53.9158C210.317 54.0007 209.639 52.6422 209.639 50.6893V48.9912ZM205.741 48.6516V51.1139C205.741 54.1705 208.114 57.9063 211.08 57.9063H212.181C215.655 57.9063 218.198 55.3592 218.198 51.878V47.2082C218.198 44.4063 216.249 41.5195 213.537 41.5195H211.08C207.775 41.5195 205.741 45.3403 205.741 48.6516Z" fill="#FB5058"/>
<path fill-rule="evenodd" clip-rule="evenodd" d="M302.85 56.5463V56.8859C302.85 59.4331 305.985 60.1124 308.527 60.1124C313.103 60.1124 314.205 56.1218 314.205 51.1973C310.392 53.1501 302.85 52.0463 302.85 56.5463Z" fill="#FB5058"/>
<path fill-rule="evenodd" clip-rule="evenodd" d="M185.489 40.075C185.489 38.4617 186.506 35.4051 187.947 35.4051H190.404C192.268 35.4051 193.285 36.8485 193.285 38.6316V61.4712C193.285 63.5938 192.522 65.0372 190.404 65.0372H187.947C186.337 65.0372 185.489 62.0655 185.489 60.3674V40.075ZM263.363 38.3768C263.363 37.1033 264.379 35.49 265.481 35.49H268.362C269.294 35.49 269.379 35.6599 270.142 35.8297C270.311 37.7825 271.243 38.4617 271.243 40.4995V59.7731C271.243 61.7259 270.565 65.1221 268.786 65.1221H266.328C264.634 65.1221 263.447 64.0184 263.447 62.2353V38.3768H263.363ZM230.993 38.7165C230.993 37.1033 232.179 35.49 233.874 35.49H235.993C243.788 35.49 233.789 58.6693 243.788 58.6693H244.127C255.567 58.6693 246.415 35.49 252.347 35.49H255.228C257.262 35.49 258.109 37.6976 258.109 39.3957V61.1316C258.109 62.7448 257.177 65.0372 255.228 65.0372H253.787C251.245 65.0372 250.906 62.9995 250.906 60.3674C248.11 61.8957 247.178 65.0372 243.11 65.0372H239.89C233.111 65.0372 230.993 59.858 230.993 52.8957V38.7165ZM197.946 51.1976V49.075C197.946 42.3674 202.352 35.575 208.622 35.575H211.842C216.079 35.575 216.927 38.3768 218.96 39.8202C218.96 37.2731 219.215 35.575 221.841 35.575H223.282C225.146 35.575 226.163 37.0184 226.163 38.8014V61.9806C226.163 70.4712 221.672 76.2448 213.368 76.2448H209.809C206.335 76.2448 200.234 73.4429 200.234 70.2165C200.234 68.7731 200.657 66.99 202.013 66.99H203.792C206.419 66.99 207.606 70.2165 210.571 70.2165H213.791C216.503 70.2165 218.452 67.3297 218.452 64.5278V60.6221C216.503 61.1316 214.893 63.8485 210.656 63.8485H208.877C202.521 63.5938 197.946 57.6504 197.946 51.1976ZM136.766 40.4995C136.766 38.1221 137.189 35.49 139.647 35.49H141.426C143.968 35.49 144.307 37.5278 144.307 40.1599C146.341 38.7165 148.036 35.49 152.103 35.49H152.781C156.933 35.49 160.577 36.7636 161.339 40.1599C164.39 39.3108 163.881 35.49 169.559 35.49H173.118C178.287 35.49 180.913 40.075 180.913 45.5089V59.7731C180.913 62.49 180.066 65.4617 177.355 65.4617C166.847 65.4617 178.541 41.9429 168.457 41.9429C157.187 41.9429 166.932 65.1221 160.238 65.1221H157.78C149.984 65.1221 159.814 41.9429 150.323 41.9429C138.884 41.9429 149.307 65.1221 141.765 65.1221H139.308C137.952 65.1221 136.85 62.49 136.85 61.2165V40.4995H136.766ZM296.749 41.858C296.749 38.5467 302.681 35.4051 306.324 35.4051H312.764C315.645 35.4051 318.272 36.424 319.797 37.9523C322.255 40.4146 322.001 40.4146 322.001 44.9995C322.001 48.0561 322.001 51.1976 322.001 54.2542C322.001 57.9901 323.102 60.1976 323.102 62.49C323.102 64.1033 320.984 64.9523 319.543 64.9523H318.103C315.815 64.9523 314.883 62.9995 314.883 60.707C311.493 61.641 311.578 64.9523 304.206 64.9523H302.426C298.783 64.9523 294.969 61.5561 294.969 57.8202V56.3768C294.969 47.5467 306.239 48.141 313.781 46.358C313.866 45.2542 314.12 45.0844 314.12 43.8957C314.12 42.3674 312.171 41.0089 310.561 41.0089H309.121C304.121 41.0089 302.087 45.2542 299.884 45.2542C298.444 45.2542 296.664 44.2353 296.664 42.3674V41.858H296.749ZM278.954 31.5844C278.954 29.207 280.14 27.3391 282.513 27.3391H284.293C285.14 27.3391 286.75 28.9523 286.75 29.8014V35.1504C288.953 35.1504 292.766 35.3202 292.766 37.2731V38.3768C292.766 40.075 291.665 41.2636 289.885 41.2636H287.004V57.9901C287.004 60.6221 292.682 57.0561 292.682 61.5561V61.8957C292.682 64.1033 290.987 65.1221 288.784 65.1221H284.123C280.818 65.1221 278.785 61.8957 278.785 58.3297V41.1787H277.005C275.31 41.1787 274.124 40.075 274.124 38.2919C274.124 37.0184 275.141 35.4051 276.243 35.4051H278.7V31.5844H278.954ZM263.024 28.0184C263.024 26.4901 264.718 24.4523 266.583 24.4523H268.362C269.464 24.4523 271.243 26.575 271.243 28.0184V29.1221C271.243 31.075 269.209 32.6882 267.345 32.6882H266.922C264.549 32.6033 263.024 30.5655 263.024 28.0184ZM185.489 28.0184C185.489 26.4901 187.099 24.4523 188.37 24.4523H190.15C192.099 24.4523 193.709 26.4901 193.709 28.358C193.709 30.4806 191.929 32.6033 189.811 32.6033C187.523 32.6033 185.574 31.2448 185.574 29.0372V28.0184H185.489ZM260.143 33.3674C258.702 32.4334 257.346 31.2448 254.804 31.2448H254.126C243.534 31.2448 245.822 43.5561 245.568 54.0844C244.551 54.3391 244.975 54.424 244.127 54.424C243.958 54.424 243.365 53.9146 243.026 53.7448C243.026 42.1127 245.907 31.3297 234.128 31.3297C231.925 31.3297 229.298 32.4334 228.79 34.2165C227.434 33.2825 225.994 31.3297 223.79 31.3297H222.35C219.384 31.3297 218.876 31.7542 217.011 32.7731C215.486 32.0089 212.944 31.3297 210.571 31.3297H207.69C202.352 31.3297 198.962 36.5089 197.014 37.0184L195.573 33.7919C196.505 32.6882 197.352 31.2448 197.352 29.207V27.0844C197.352 24.1976 193.2 20.2919 190.235 20.2919H188.116C184.727 20.2919 180.998 24.5372 180.998 28.1033V29.207C180.998 31.4995 182.778 33.707 182.778 33.8768C182.778 34.8108 182.269 35.2353 181.676 35.6599C178.202 33.2825 177.439 31.4146 170.999 31.4146H169.898C165.068 31.4146 164.39 32.4334 161.678 34.3014C159.475 32.7731 158.204 31.4146 154.221 31.4146H151.001C148.968 31.4146 146.341 32.858 145.663 33.1976C144.477 32.3485 142.697 31.4146 140.663 31.4146H139.562C135.071 31.4146 132.105 35.0655 132.105 39.6504V61.1316C132.105 66.8202 135.494 69.3674 141.341 69.3674H141.68C152.696 69.3674 146.171 46.9523 149.476 46.9523C152.781 46.9523 144.9 69.3674 157.696 69.3674C163.119 69.3674 166.423 66.6504 166.593 61.5561C166.678 58.924 166.593 56.0372 166.593 53.3202C166.593 50.1787 165.576 46.9523 168.372 46.8674V62.575C168.372 65.4617 171.847 69.3674 174.389 69.3674H177.439C180.151 69.3674 181.422 67.924 182.947 66.9051C184.218 68.7731 186.591 69.3674 189.726 69.3674C193.285 69.3674 194.302 68.3485 195.742 66.4806C195.234 69.2825 195.234 70.8108 195.827 72.424C196.59 74.1221 197.522 75.3108 198.793 76.5844C200.403 78.0278 206.589 80.4051 209.555 80.4051H212.775C221.164 80.4051 229.129 73.4429 229.129 64.6976C232.179 65.5466 232.603 69.3674 240.484 69.3674H242.263C244.975 69.3674 246.839 68.1787 248.703 67.2448C249.889 69.0278 252.516 69.3674 255.482 69.3674C257.346 69.3674 259.38 67.2448 260.482 66.4806C261.244 67.924 263.108 69.3674 265.142 69.3674H266.244C271.497 69.3674 274.802 66.8202 274.802 61.5561C276.158 63.1693 275.48 64.7825 278.276 66.99C279.632 68.0089 282.513 69.4523 284.716 69.4523H286.496C289.292 69.4523 294.122 68.6882 294.715 66.5655C296.325 66.99 299.884 69.8768 302.935 69.4523C302.935 69.4523 308.273 69.707 312.849 67.3297C312.934 67.3297 316.238 69.4523 317.848 69.4523H319.967C323.187 69.4523 326.746 66.3957 326.746 62.9995V62.6599C326.746 58.7542 326.068 55.9523 326.068 51.2825C326.068 47.8014 326.322 42.7919 325.644 39.99C324.288 34.5561 317.848 31.3297 310.815 31.3297H308.358C301.494 31.3297 300.393 33.0278 296.241 35.2353C295.224 33.2825 293.868 31.6693 290.902 31.6693C290.902 27.5089 288.529 23.4334 284.886 23.4334H281.327C276.666 23.4334 276.92 26.9995 274.887 28.4429C274.887 23.6033 272.09 20.207 267.43 20.207H266.922C263.193 20.207 259.126 23.3485 259.126 26.6599C259.041 26.575 258.024 29.4617 260.143 33.3674Z" fill="#FF5757"/>
<path fill-rule="evenodd" clip-rule="evenodd" d="M185.489 28.0189V29.1226C185.489 31.3302 187.438 32.6887 189.726 32.6887C191.845 32.6887 193.624 30.566 193.624 28.4434C193.624 26.5755 192.014 24.5377 190.065 24.5377H188.286C187.015 24.4528 185.489 26.4906 185.489 28.0189Z" fill="#FCCE45"/>
<path fill-rule="evenodd" clip-rule="evenodd" d="M263.023 28.0192C263.023 30.5663 264.549 32.689 266.921 32.689H267.26C269.124 32.689 271.158 31.0758 271.158 29.1229V28.0192C271.158 26.5758 269.379 24.4531 268.277 24.4531H266.498C264.718 24.4531 263.023 26.4909 263.023 28.0192Z" fill="#FCCE45"/>
<path fill-rule="evenodd" clip-rule="evenodd" d="M136.766 40.5006V61.1327C136.766 62.4062 137.867 65.0383 139.223 65.0383H141.68C149.137 65.0383 138.715 41.8591 150.239 41.8591C159.729 41.8591 149.9 65.0383 157.696 65.0383H160.153C166.847 65.0383 157.018 41.8591 168.373 41.8591C178.456 41.8591 166.763 65.3779 177.27 65.3779C179.981 65.3779 180.829 62.4062 180.829 59.6893V45.4251C180.829 39.9912 178.202 35.4062 173.033 35.4062H169.474C163.797 35.4062 164.305 39.227 161.255 40.0761C160.492 36.7647 156.848 35.4062 152.696 35.4062H152.018C147.866 35.4062 146.171 38.5478 144.222 40.0761C144.222 37.5289 143.884 35.4062 141.341 35.4062H139.562C137.189 35.4912 136.766 38.1232 136.766 40.5006Z" fill="#FCCE45"/>
<path fill-rule="evenodd" clip-rule="evenodd" d="M185.489 40.0751V60.3676C185.489 62.0657 186.421 65.0374 187.947 65.0374H190.404C192.522 65.0374 193.285 63.594 193.285 61.4714V38.7166C193.285 37.0185 192.268 35.4902 190.404 35.4902H187.947C186.506 35.4902 185.489 38.4619 185.489 40.0751Z" fill="#FCCE45"/>
<path fill-rule="evenodd" clip-rule="evenodd" d="M230.993 38.7166V52.9808C230.993 59.9431 233.112 65.1223 239.891 65.1223H243.111C247.178 65.1223 248.11 61.9808 250.906 60.4525C250.906 62.9997 251.245 65.1223 253.787 65.1223H255.228C258.109 65.1223 258.109 62.8299 258.109 61.2166V39.3959C258.109 37.6978 257.262 35.4902 255.228 35.4902H252.347C246.415 35.4902 255.652 58.6695 244.127 58.6695H243.788C233.789 58.6695 243.788 35.4902 235.993 35.4902H233.874C232.095 35.4902 230.993 37.0185 230.993 38.7166Z" fill="#FCCE45"/>
<path fill-rule="evenodd" clip-rule="evenodd" d="M263.362 38.377V62.2355C263.362 63.9336 264.464 65.1223 266.243 65.1223H268.701C270.48 65.1223 271.158 64.1034 271.158 59.7733V40.4997C271.158 38.4619 271.412 37.3582 270.057 35.8299C269.294 35.66 269.209 35.4902 268.277 35.4902H265.396C264.294 35.4902 263.362 37.0185 263.362 38.377Z" fill="#FCCE45"/>
<path fill-rule="evenodd" clip-rule="evenodd" d="M278.954 31.5841V35.4898H276.497C275.311 35.4898 274.378 37.0181 274.378 38.3765C274.378 40.0747 275.48 41.2633 277.259 41.2633H279.039V58.3294C279.039 61.8954 281.073 65.1218 284.377 65.1218H289.038C291.241 65.1218 292.936 64.103 292.936 61.8954V61.5558C292.936 57.0558 287.258 60.6218 287.258 57.9898V41.1784H290.139C291.834 41.1784 293.021 40.0747 293.021 38.2916V37.1879C293.021 35.1501 289.207 35.0652 287.004 35.0652V29.7162C287.004 28.8671 286.496 27.2539 284.547 27.2539H282.767C280.225 27.2539 278.954 29.2067 278.954 31.5841Z" fill="#FCCE45"/>
<path fill-rule="evenodd" clip-rule="evenodd" d="M302.85 56.5476C302.85 52.1325 310.476 53.2363 314.205 51.1985C314.205 56.1231 313.103 60.1136 308.527 60.1136C305.985 60.1136 302.85 59.4344 302.85 56.8872V56.5476ZM296.749 41.8589V42.5382C296.749 44.4061 298.528 45.425 299.969 45.425C302.172 45.425 304.206 41.1797 309.205 41.1797H310.646C312.256 41.1797 314.205 42.4533 314.205 44.0665C314.205 45.2551 313.951 45.425 313.866 46.5287C306.239 48.3118 295.054 47.6325 295.054 56.5476V57.991C295.054 61.7269 298.867 65.1231 302.511 65.1231H304.291C311.663 65.1231 311.578 61.7268 314.967 60.8778C314.967 63.1702 315.899 65.1231 318.187 65.1231H319.628C321.068 65.1231 323.187 64.1891 323.187 62.6608C323.187 60.3684 322.085 58.2457 322.085 54.425C322.085 51.3684 322.085 48.2268 322.085 45.1702C322.085 40.5853 322.255 40.5853 319.882 38.1231C318.357 36.5948 315.73 35.5759 312.849 35.5759H306.409C302.681 35.491 296.749 38.6325 296.749 41.8589Z" fill="#FCCE45"/>
<path fill-rule="evenodd" clip-rule="evenodd" d="M205.741 48.6506C205.741 45.3393 207.775 41.5185 211.08 41.5185H213.537C216.249 41.5185 218.198 44.4902 218.198 47.2072V51.877C218.198 55.3582 215.656 57.9053 212.181 57.9053H211.08C208.114 57.9053 205.741 54.1695 205.741 51.1129V48.6506ZM197.946 51.1978C197.946 57.7355 202.521 63.6789 208.622 63.6789H210.402C214.639 63.6789 216.249 61.7261 218.198 60.4525V64.3582C218.198 67.1601 216.249 70.0468 213.537 70.0468H210.317C207.436 70.0468 206.25 66.8204 203.538 66.8204H201.759C200.403 66.8204 199.979 68.6034 199.979 70.0468C199.979 73.3582 206.165 76.0751 209.555 76.0751H213.114C221.418 76.0751 225.909 70.3016 225.909 61.811V38.7166C225.909 37.0185 224.892 35.4902 223.028 35.4902H221.587C219.045 35.4902 218.706 37.1883 218.706 39.7355C216.673 38.2921 215.825 35.4902 211.588 35.4902H208.368C202.182 35.4902 197.691 42.3676 197.691 48.9902V51.1978H197.946Z" fill="#FCCE45"/>
</g>
<defs>
<clipPath id="clip0_631_846">
<rect width="327" height="90" fill="white"/>
</clipPath>
</defs>
</svg>
