<svg width="157" height="45" viewBox="0 0 157 45" fill="none" xmlns="http://www.w3.org/2000/svg">
<g clip-path="url(#clip0_631_763)">
<path fill-rule="evenodd" clip-rule="evenodd" d="M17.4126 20.1724C17.4126 18.9271 17.9822 17.6818 19.2841 17.6403H19.5689C20.9928 17.6403 21.481 18.595 21.481 20.0893C22.7016 19.2176 23.2711 17.5988 25.7936 17.5573H26.6072C28.4787 17.5158 30.2281 18.678 30.5536 20.1309C32.0996 18.9686 32.1403 17.4743 35.395 17.4327H36.0866C38.6904 17.3912 40.7246 19.1346 40.7246 21.7912L40.8467 32.0441C40.8467 32.9158 39.9923 33.5799 39.0973 33.5799H38.4056C34.3372 33.6214 39.0566 21.0026 34.8661 21.0441H33.6456C31.1232 21.1271 31.3266 24.4893 31.3266 27.1875C31.3673 29.8026 32.1403 33.6629 29.4958 33.7044H28.8042C24.9392 33.7459 29.2924 21.1271 25.2647 21.1686H24.3289C18.8366 21.2516 24.1255 33.7459 20.1385 33.7875H19.2027C17.9415 33.7875 17.5754 32.5007 17.5347 31.1724L17.4126 20.1724ZM11.9203 24.946C12.0423 34.5346 19.6503 42.5459 28.9262 42.4629H30.1468C32.4251 42.4214 34.9068 41.5082 36.5749 40.8026C38.8125 39.8478 39.7075 38.6441 41.2942 37.3158C43.5725 35.4893 46.3797 30.0516 46.339 25.9422L46.2984 23.5761C46.2984 21.8327 44.5896 15.5648 43.7759 15.5648C43.4098 15.5648 43.4098 15.6478 43.0843 15.7309C43.0843 17.2252 42.7588 17.8893 42.7182 19.1761C42.6775 19.8818 42.4334 20.2139 42.474 20.8365C42.474 21.3761 42.6368 21.8327 42.6368 22.6214L42.7588 32.2931C42.7588 33.9535 40.806 35.4893 39.0159 35.5309H38.8938C33.6863 35.5724 34.9068 28.7648 34.8254 23.4101C34.8254 23.4101 34.7441 23.1195 34.5 22.995C34.2559 22.8705 34.0118 22.995 34.0118 22.995C31.408 24.4478 36.3714 35.5724 29.4144 35.6554C26.8513 35.6969 25.4681 34.2441 25.4274 31.5459C25.3867 28.8893 25.224 25.9007 25.1833 23.5346C24.8985 23.2026 24.7358 23.161 24.3696 23.2856C23.1084 23.2856 23.5966 27.312 23.5966 28.6818C23.6373 31.0478 23.9628 32.7082 22.9457 34.161C20.9928 36.9422 15.826 35.9875 15.7853 32.2101L15.6632 19.8818C15.6225 17.5988 16.8837 15.8554 19.162 15.8139H19.9757C21.1149 15.8139 21.7658 16.4365 22.4168 16.8931C23.3525 16.229 24.3289 15.7724 25.9156 15.7309H27.543C28.3973 15.7309 29.4551 16.312 30.0654 16.6856L30.3909 14.195C28.3973 13.6554 26.2818 10.3761 26.2411 7.59501C22.0506 7.63652 18.3484 11.0403 16.1514 13.2818C13.8731 15.6893 11.8796 20.2139 11.9203 24.946ZM31.0418 12.8252C31.8148 12.2856 33.4829 11.5384 34.8254 11.5384H36.3307C37.2665 11.5384 40.3992 12.8252 40.4398 13.6969C40.4398 14.0705 40.3992 14.0705 40.3178 14.4026C40.033 14.4856 39.9923 14.5271 39.6262 14.5686H39.5041C39.26 14.5686 37.9988 13.1988 36.0866 13.2403H35.6798C34.3779 13.2403 32.7099 13.7799 31.9369 14.278L31.6521 16.7686C32.2217 16.3535 33.4829 15.7724 34.5 15.7724L36.4121 15.7309C37.592 15.7309 38.5684 16.0214 39.4227 16.395C40.5212 16.8931 40.6839 17.5158 41.4569 18.0554L41.8638 14.6101L42.1079 14.3195C44.6303 14.278 46.8272 12.6592 46.7866 10.1271V9.58746C46.7459 7.5535 44.0607 4.68935 41.4976 4.85539L39.26 5.10444C38.7311 5.18746 36.5749 2.07425 34.9068 2.11576H33.6863C31.2452 2.03274 28.5601 4.4818 27.9091 6.26671C27.5023 7.38746 28.1532 9.37991 28.5601 10.2931C29.0483 11.4969 29.9433 12.2441 31.0418 12.8252ZM26.4852 5.68558C22.0506 5.72708 17.494 9.13086 15.2157 11.4969C12.856 13.946 10.1302 18.8856 10.1709 23.7007L10.2115 26.1912C10.3336 36.195 19.5282 44.4969 29.6586 44.3724H29.7806C39.9923 44.2478 48.3732 35.1158 48.2512 24.5309V23.8252C48.2512 22.3309 47.763 20.2139 47.3561 19.0101C47.112 18.3044 46.9493 17.5158 46.6238 16.8516C46.4611 16.478 45.6881 15.1497 45.6881 14.9007C45.6881 14.9007 48.3732 12.5761 48.3326 10.4592V10.0441C48.2919 7.47048 47.6409 6.47425 46.3797 5.18746C45.5254 4.31576 43.3284 2.90444 41.7824 2.90444L41.0908 2.86293C40.3992 2.86293 39.7482 3.1535 39.7482 3.1535C39.7075 3.1535 38.0395 1.57614 37.592 1.32708C35.6391 -0.0427268 33.076 0.413877 33.076 0.413877C33.076 0.413877 28.6008 1.07803 26.4852 5.68558Z" fill="white"/>
<path d="M56.5917 34.5344C56.429 34.6174 56.3069 34.7419 56.1849 34.8665C56.1035 34.9495 56.0628 34.991 55.9815 35.074C55.9408 35.1155 55.9408 35.074 55.9001 35.074C55.8594 35.074 55.8187 35.074 55.778 35.074C55.4119 35.1155 55.0457 35.1985 54.6796 35.2816C54.2727 35.3646 53.9066 35.4476 53.4997 35.6136C53.337 35.6967 53.1743 35.7382 53.0115 35.8627C52.9302 35.9042 52.8488 35.9457 52.8081 36.0287C52.7674 36.0702 52.7674 36.1117 52.7267 36.1117C52.6861 36.1533 52.686 36.1533 52.6454 36.1948C53.1743 35.4891 53.6625 34.7419 54.0693 33.9533C54.0693 34.0778 54.1507 34.1608 54.1914 34.2438C54.232 34.2853 54.2727 34.3268 54.3541 34.3268C54.3948 34.3268 54.3948 34.3268 54.4355 34.3268C54.5168 34.3268 54.4762 34.3268 54.5168 34.3684C54.5168 34.4099 54.6389 34.4929 54.5982 34.5344C54.5982 34.5759 54.5982 34.6174 54.6389 34.6589C54.7609 34.7419 54.883 34.6589 55.005 34.5759C55.1271 34.5344 55.2492 34.4514 55.3712 34.3684C55.4933 34.2853 55.656 34.2023 55.778 34.1193C56.0628 33.9533 56.3069 33.7457 56.551 33.5382C56.7951 33.3306 57.0393 33.1231 57.2427 32.874C57.4461 32.625 57.6088 32.3759 57.7716 32.0853C57.8122 31.9608 57.8529 31.8363 57.8936 31.7118C57.9343 31.6287 58.0564 31.5457 58.0157 31.4212C57.975 31.3382 57.8529 31.2967 57.8123 31.3382C57.6902 31.3797 57.6088 31.5457 57.5681 31.6287C57.5275 31.7533 57.4868 31.8778 57.4054 31.9608C57.324 32.1268 57.2427 32.2514 57.1206 32.3759C57.0799 32.2929 56.9986 32.2514 56.9172 32.2929C56.9172 32.1684 56.7951 32.1684 56.7545 32.1684C56.6731 32.1684 56.6324 32.1684 56.551 32.2099C56.4697 32.2099 56.429 32.1684 56.3476 32.1684C56.1035 32.1268 55.8594 32.1268 55.6153 32.2099C55.5746 32.2514 55.4933 32.2514 55.4526 32.2514C55.4119 32.2514 55.3305 32.2514 55.2898 32.2929C55.1678 32.3344 55.0457 32.3759 54.9237 32.4174C54.8423 32.4589 54.7609 32.5419 54.6796 32.625C54.5982 32.708 54.5575 32.8325 54.5168 32.874C54.7203 32.4174 54.9237 32.0023 55.1271 31.5457C55.1271 31.5042 55.1678 31.4627 55.2085 31.4212C55.2491 31.4212 55.2898 31.3797 55.2898 31.3382C55.2898 31.2967 55.2492 31.2967 55.2492 31.2551C55.2898 31.1721 55.2898 31.1306 55.3305 31.0476C55.4119 30.7985 55.4933 30.5495 55.5746 30.3004C55.5746 30.3419 55.5746 30.3834 55.6153 30.425C55.6153 30.4665 55.656 30.4665 55.6153 30.5495C55.5746 30.591 55.6153 30.674 55.6153 30.7155C55.6967 30.8401 55.8187 30.8816 55.9815 30.8816C55.9001 30.9646 55.8594 31.0476 55.9815 31.1721C56.0222 31.2136 56.0222 31.2551 56.0628 31.2967C56.1442 31.3382 56.1849 31.2967 56.2663 31.2967C56.551 31.2551 56.7951 31.1306 57.0393 31.0061C57.4868 30.757 57.8936 30.3834 58.2191 29.9684C58.3818 29.7193 58.5446 29.4287 58.6259 29.1797C58.748 28.8891 58.87 28.5985 58.87 28.308C58.87 28.225 58.9107 28.0174 58.8294 27.9344C58.7887 27.8929 58.6666 27.8514 58.6259 27.9344C58.5446 28.0589 58.5039 28.225 58.4632 28.3495C58.4225 28.5155 58.3818 28.6816 58.3005 28.8061C58.2598 28.8476 58.2598 28.9306 58.2191 28.9721C58.1784 28.9306 58.0564 28.8891 58.0157 28.8891C57.975 28.8891 57.9343 28.9306 57.8936 28.9721C57.8529 29.0136 57.7716 28.9721 57.7309 28.9721C57.5275 29.0136 57.324 29.0967 57.1206 29.1797C56.8765 29.2627 56.6324 29.3457 56.3883 29.4287C56.1442 29.5117 55.9001 29.6363 55.6967 29.8023C55.778 29.4702 55.8187 29.1382 55.9001 28.8061C55.9408 28.8476 55.9815 28.8476 56.0221 28.8476C55.9408 29.1382 56.5917 28.8891 56.6731 28.8476C56.9172 28.7231 57.1206 28.557 57.324 28.391C57.7716 27.9759 58.1377 27.4363 58.3818 26.8967C58.5039 26.6061 58.5852 26.3155 58.7073 26.025C58.748 25.9004 58.8294 25.7759 58.7887 25.6514C58.7887 25.6099 58.748 25.5684 58.748 25.5268C58.748 25.4853 58.7887 25.4438 58.7887 25.4023C58.7887 25.3193 58.6666 25.2363 58.5852 25.2778C58.4632 25.3193 58.3818 25.4438 58.3818 25.5268C58.3818 25.6514 58.3818 25.7759 58.3005 25.9004C58.2598 25.9834 58.2191 26.025 58.2191 26.108C58.2191 26.1495 58.1784 26.191 58.1784 26.2325C58.1377 26.274 58.097 26.274 58.0564 26.274C57.6902 26.274 57.4054 26.6061 57.1613 26.8136C56.9579 26.9797 56.7545 27.1042 56.5104 27.2287C56.429 27.2702 56.3069 27.3533 56.2663 27.4363C56.2256 27.4778 56.2663 27.5193 56.2256 27.5608C56.1849 27.6023 56.1442 27.6438 56.1035 27.6853C56.1849 26.9797 56.2256 26.274 56.2256 25.5684C56.3069 25.6099 56.429 25.6099 56.5104 25.6099C56.4697 25.6929 56.3476 25.7759 56.3883 25.8589C56.4697 25.9419 56.5917 25.9004 56.6731 25.8589C56.9172 25.7759 57.1206 25.6099 57.2834 25.4853C57.6495 25.1948 57.975 24.8212 58.2191 24.4061C58.3818 24.1985 58.5039 23.9495 58.6259 23.7004C58.7073 23.5759 58.748 23.4514 58.8294 23.3268C58.87 23.2023 58.8294 23.0778 58.9107 22.9948C58.9514 22.9117 58.9514 22.8287 58.8294 22.7872C58.7073 22.7872 58.6259 22.8702 58.5852 22.9533C58.5446 23.0363 58.5039 23.1608 58.4632 23.2853C58.3818 23.4099 58.3005 23.5344 58.2191 23.6589C58.1377 23.4929 57.8529 23.5344 57.6902 23.5344C57.4461 23.5759 57.2427 23.6589 57.0393 23.7834C56.8765 23.8665 56.7138 24.0325 56.5917 24.157C56.551 24.1985 56.5104 24.2401 56.5104 24.3231C56.4697 24.3646 56.429 24.4061 56.3883 24.4476C56.3069 24.4891 56.2256 24.5721 56.1442 24.6136C56.1035 24.1985 56.0628 23.825 56.0628 23.4514C56.1035 23.4929 56.1442 23.4929 56.1849 23.4929C56.1442 23.6174 56.2663 23.6174 56.3476 23.6174C56.4697 23.6174 56.551 23.5344 56.6731 23.4514C56.7138 23.4099 56.7545 23.4099 56.7951 23.4099C56.8358 23.4099 56.8765 23.3684 56.8765 23.2853C56.8765 23.2438 56.9579 23.2023 56.9986 23.1608C57.0799 23.1193 57.1206 23.0778 57.202 23.0363C57.4054 22.8702 57.6495 22.6627 57.8123 22.4967C57.8936 22.4136 58.0157 22.2891 58.0564 22.2061C58.097 22.1646 58.1377 22.1231 58.1377 22.0401C58.1784 21.9985 58.2191 21.9155 58.2598 21.874C58.3411 21.791 58.3818 21.6665 58.4225 21.5419C58.4632 21.4174 58.5039 21.3344 58.5039 21.2099C58.5039 21.1684 58.5039 21.1268 58.4632 21.0853C58.4225 21.0438 58.4632 20.9193 58.4632 20.8363C58.4632 20.7533 58.5446 20.5872 58.4225 20.5457C58.3411 20.5042 58.3005 20.5457 58.2598 20.6287C58.2598 20.7533 58.2191 20.9193 58.2191 21.0438C58.1784 21.1684 58.1784 21.2929 58.097 21.4174C58.0157 21.5004 58.0157 21.625 57.8936 21.708C57.8529 21.6665 57.8529 21.6665 57.8123 21.6665C57.8529 21.625 58.0157 21.5004 57.9343 21.4174C57.8529 21.3344 57.7716 21.3759 57.6902 21.4174C57.6495 21.4589 57.6088 21.4589 57.5681 21.5004C57.5275 21.5004 57.4868 21.5004 57.4461 21.4589C57.3647 21.4589 57.2427 21.4589 57.1613 21.5004C56.7545 21.5834 56.3476 21.7495 56.0628 22.0816C56.0222 21.874 55.9815 21.6665 55.9408 21.5004C56.0221 21.5004 56.0628 21.4589 56.1442 21.4174C56.1849 21.3759 56.3069 21.3759 56.3069 21.2929C56.3883 21.1684 56.0628 21.2514 56.0221 21.2514C55.9815 21.2514 55.9408 21.2514 55.9001 21.2514C55.8594 21.2514 55.8594 21.2514 55.8594 21.2099C55.8594 21.1684 55.9815 21.1268 56.0221 21.0853C56.1442 21.0438 56.3069 20.9608 56.429 20.9193C56.9172 20.7117 57.2834 20.2967 57.5681 19.8816C57.6495 19.757 57.7309 19.6325 57.8123 19.508C57.8936 19.3834 57.9343 19.2589 57.975 19.1344C57.975 19.0514 58.0157 19.0099 58.0157 18.9268C58.0157 18.8853 58.0564 18.8438 58.0157 18.8438C58.0157 18.8023 58.0157 18.8023 58.0157 18.7608C58.0157 18.6363 58.0157 18.5117 58.0157 18.4287C57.975 18.3457 57.975 18.2212 57.8936 18.1382C57.8529 18.0967 57.6902 17.9721 57.6902 18.1382C57.6902 18.1797 57.7309 18.2212 57.7309 18.2627C57.7309 18.3042 57.7309 18.3457 57.7309 18.4287C57.7309 18.5533 57.6902 18.7193 57.6902 18.8438C57.6495 18.8023 57.5275 18.8438 57.4868 18.8438C57.4054 18.8853 57.2834 18.8853 57.202 18.9268C57.0393 18.9684 56.8358 19.0514 56.6731 19.1344C56.3476 19.3004 56.0628 19.5495 55.8187 19.7985C55.8187 19.757 55.8187 19.7155 55.8187 19.674C55.8187 19.6325 55.8187 19.6325 55.8187 19.591C55.8187 19.591 55.8594 19.5495 55.8187 19.508C55.8187 19.4665 55.778 19.4665 55.778 19.425C55.778 19.3419 55.7374 19.3004 55.7374 19.2174C55.6967 19.0929 55.656 19.0099 55.656 18.8853C55.7374 18.8438 55.8187 18.8438 55.8594 18.7608C55.8594 18.9268 56.0221 18.8853 56.1035 18.8438C56.2256 18.7608 56.3476 18.6778 56.429 18.5533C56.5917 18.3457 56.7138 18.1382 56.8358 17.9306C56.9579 17.7231 57.0392 17.474 57.1206 17.225C57.202 16.9759 57.2834 16.7268 57.1613 16.4778C57.1206 16.4363 57.0799 16.3533 57.0393 16.3533C56.9986 16.3533 56.9986 16.2287 56.9986 16.1872C56.9986 16.1042 56.9579 16.0212 56.9579 15.9797C56.9579 15.9382 56.9579 15.8136 56.9172 15.7721C56.7138 15.6476 56.6731 16.2702 56.7138 16.3948C56.7545 16.5608 56.7545 16.6853 56.6731 16.8099C56.6324 16.8929 56.6324 16.8929 56.551 16.9344C56.4697 16.9344 56.3883 16.9759 56.3069 17.0174C56.1849 17.0589 56.0628 17.1419 55.9815 17.225C55.8594 17.308 55.7374 17.3495 55.6153 17.4325C55.4933 17.5155 55.3712 17.5985 55.2898 17.7231C55.2085 17.557 55.1678 17.391 55.0864 17.225C55.2085 17.225 55.3305 17.1004 55.3712 16.9759C55.4526 16.8514 55.4933 16.7268 55.5339 16.6438C55.656 16.3533 55.7374 16.0627 55.8187 15.7721C55.9001 15.44 55.9408 15.1495 55.9815 14.8174C55.9815 14.6514 56.0221 14.4853 56.0221 14.3608C56.0221 14.2363 55.8594 14.1948 55.7374 14.2363C55.7374 14.2363 55.778 14.2363 55.778 14.1948H55.6967C55.656 14.1948 55.6153 14.2363 55.5746 14.2363C55.4933 14.2778 55.4933 14.4023 55.5746 14.4438L55.6153 14.4853C55.656 14.5268 55.656 14.5268 55.6153 14.5684C55.6153 14.6514 55.5746 14.6929 55.5746 14.7759C55.5339 14.9419 55.4933 15.0665 55.4933 15.2325C55.4526 15.2325 55.4119 15.1495 55.3305 15.108C55.2492 15.0665 55.1678 15.108 55.0864 15.1495C54.9237 15.191 54.8016 15.3155 54.7203 15.3985C54.4762 15.6476 54.3541 15.9797 54.2727 16.3117C54.1914 16.1042 54.1507 15.8551 54.0693 15.6476C54.11 15.6476 54.1914 15.6476 54.232 15.6476C54.2727 15.6476 54.3541 15.6061 54.3948 15.6061C54.5168 15.5646 54.5982 15.4816 54.6796 15.357C54.8423 15.1495 54.9237 14.9004 54.9644 14.6514C55.005 14.3193 55.005 13.9872 55.005 13.6551C55.005 13.4891 55.005 13.3231 55.005 13.157C55.005 12.991 54.9644 12.7834 54.9237 12.6174C54.883 12.4929 54.883 12.3268 54.8423 12.2023C54.8423 12.1193 54.7609 12.0778 54.6796 12.0778C54.5982 12.0778 54.5168 12.0778 54.4762 12.1608C54.4355 12.2023 54.4355 12.2853 54.4355 12.3684C54.4355 12.4099 54.4355 12.4514 54.4355 12.4929C54.4355 12.5759 54.4355 12.5759 54.3948 12.6174C54.1914 12.7834 54.11 13.0325 54.0693 13.2816C53.9879 13.5721 53.9066 13.8212 53.7845 14.0702C53.7032 14.1948 53.6625 14.3193 53.5811 14.4438C53.4997 14.1533 53.337 13.9457 53.1336 13.6967C53.2963 13.6551 53.5404 13.5721 53.6625 13.4476C53.7845 13.3231 53.7438 13.0325 53.6625 12.8665C53.6218 12.7834 53.6218 12.7004 53.5811 12.6174C53.5404 12.4929 53.4997 12.4099 53.459 12.2853C53.3777 12.1193 53.2963 11.9117 53.1336 11.7872C53.0522 11.7042 52.9708 11.6627 52.8895 11.6212C52.8488 11.6212 52.8081 11.5797 52.7674 11.5797C52.7267 11.5382 52.686 11.4967 52.6454 11.4136C52.4826 11.2061 52.3199 11.04 52.1165 10.874C51.9537 10.708 51.791 10.5419 51.6283 10.3759C51.5876 10.3344 51.4655 10.3344 51.4655 10.4174C51.4655 10.4589 51.5469 10.5004 51.5469 10.5419C51.5876 10.5834 51.6283 10.625 51.6689 10.708C51.5469 10.6665 51.6689 10.874 51.6689 10.874C51.7096 10.957 51.791 11.04 51.8317 11.1231C51.9131 11.2061 51.9537 11.2891 52.0351 11.3721C52.0758 11.4136 52.0758 11.4551 52.1165 11.4967C52.1572 11.5382 52.1978 11.5797 52.1572 11.6212C52.0351 11.7457 52.0351 11.9117 52.0758 12.0363C52.1165 12.1193 52.1165 12.2023 52.1572 12.2438C52.1572 12.2853 52.1978 12.3268 52.1978 12.3268C52.2385 12.3684 52.1978 12.4514 52.1978 12.4929C52.1572 12.825 52.1165 13.2816 52.4013 13.5721C52.4419 13.6136 52.5233 13.6551 52.6047 13.6967C52.6454 13.6967 52.6861 13.7382 52.7267 13.7382C52.7674 13.7797 52.8081 13.8212 52.8488 13.9042C52.9708 14.0702 53.0522 14.2778 53.1336 14.4853C52.8488 14.3193 52.5233 14.1948 52.2385 14.0287C52.2792 13.9872 52.2792 13.9042 52.1978 13.9042C52.1572 13.9042 51.9944 13.9457 51.9537 13.9872C51.9131 14.0702 52.0351 14.1533 52.0758 14.1948C52.1165 14.2363 52.1572 14.2778 52.1572 14.2778C52.1978 14.3193 52.1572 14.3608 52.1978 14.4023C52.2792 14.4853 52.3606 14.5684 52.4419 14.6514C52.4826 14.6929 52.5233 14.7344 52.6047 14.7344C52.6454 14.7759 52.6454 14.7759 52.6861 14.8174C52.7267 14.8589 52.6861 14.8589 52.7267 14.9004C52.7674 14.9419 52.8081 14.9419 52.8488 14.9419C52.8895 14.9419 52.9708 14.9834 53.0115 15.025C53.0522 15.0665 53.0929 15.108 53.1743 15.1495C53.2149 15.1495 53.2149 15.1495 53.2556 15.191C53.2556 15.2325 53.2556 15.274 53.2963 15.274C53.0929 15.1495 52.8488 15.025 52.6454 14.8589C52.564 14.7759 52.4826 14.7344 52.3606 14.6514C52.2792 14.5684 52.1978 14.4853 52.1165 14.4023C52.1978 14.3608 52.0351 14.2363 51.9944 14.2363C51.9131 14.2363 51.8724 14.0287 51.8317 13.9457C51.7503 13.6967 51.6689 13.4476 51.5469 13.24C51.5469 13.1985 51.5062 13.1155 51.4655 13.074C51.4248 13.074 51.3842 13.074 51.3842 13.074C51.3842 13.1155 51.4248 13.1985 51.4248 13.24C51.4655 13.3231 51.4655 13.3646 51.4655 13.4476C51.5062 13.6967 51.5469 13.9457 51.6689 14.1533C51.7096 14.1948 51.7096 14.2778 51.7503 14.3193C51.7503 14.3608 51.7503 14.4023 51.791 14.4438C51.8317 14.5684 51.8724 14.6514 51.9537 14.7344C52.0758 14.9419 52.2792 15.0665 52.4826 15.2325C52.6861 15.357 52.8895 15.5231 53.0929 15.6476C53.2149 15.7306 53.5811 15.8136 53.5404 15.5646C53.5404 15.5646 53.5811 15.5646 53.5811 15.6061C53.5811 15.6476 53.5811 15.6476 53.6218 15.6891C53.6218 15.7306 53.6625 15.7721 53.6625 15.8551C53.7032 15.9382 53.7438 16.0627 53.7438 16.1457C53.6218 16.0627 53.4591 16.0212 53.2963 15.9797C53.2149 15.9797 53.1336 15.9382 53.0522 15.9382C53.0115 15.8967 52.9302 15.8551 52.8488 15.8551C52.8081 15.8551 52.7267 15.8967 52.6861 15.9382C52.6454 15.9797 52.686 15.9797 52.6454 15.9797C52.6047 15.9797 52.564 15.9797 52.5233 15.9797C52.4826 15.9797 52.3606 15.9382 52.4013 16.0212C52.4013 16.0627 52.564 16.0627 52.6454 16.1042C52.6047 16.1042 52.564 16.1042 52.564 16.1457C52.5233 16.1457 52.4419 16.1042 52.4013 16.0627C52.3199 15.9797 52.2385 15.8551 52.1572 15.7721C52.1165 15.7306 51.9944 15.5231 51.9131 15.5646C51.791 15.5646 51.9537 15.7721 51.9944 15.8136C52.0351 15.8551 52.0758 15.9382 52.0758 15.9797C52.0758 16.0212 52.1165 16.0212 52.1165 16.0627C52.1165 16.0627 52.0758 16.1042 52.1165 16.1042L52.1572 16.1457C52.1978 16.1457 52.1978 16.1872 52.1978 16.2287C52.2385 16.2702 52.2385 16.3117 52.2792 16.3948C52.3606 16.5608 52.4826 16.7268 52.6047 16.8929C52.9302 17.225 53.4591 17.391 53.9473 17.474C53.9879 17.474 54.0286 17.474 54.0693 17.5155C54.0693 17.557 54.0693 17.557 54.11 17.557C54.1507 17.557 54.1914 17.557 54.232 17.5985C54.3541 17.64 54.4762 17.64 54.5982 17.6816C54.6796 17.7231 54.6796 17.7231 54.6796 17.8061C54.7203 17.8891 54.7203 17.9306 54.7609 18.0136C54.8016 18.1382 54.8423 18.3042 54.9237 18.4287C54.8423 18.3872 54.7203 18.3872 54.6389 18.3457V18.3042C54.5575 18.3457 54.4355 18.3042 54.3134 18.2627C54.1914 18.2212 54.0693 18.2212 53.9879 18.1797C53.8659 18.1382 53.7438 18.1382 53.6625 18.0967C53.6218 18.0967 53.4184 18.0551 53.459 18.1382C53.337 18.0967 53.2149 18.0136 53.0929 17.9721C53.0115 17.9306 52.9708 17.8891 52.8895 17.8891C52.8081 17.8476 52.8081 17.8061 52.7674 17.7231C52.6861 17.557 52.5233 17.3495 52.3199 17.5155C52.1165 17.64 52.3199 17.8476 52.4013 18.0136C52.5233 18.2627 52.7267 18.4702 52.8895 18.6778C53.0522 18.8853 53.2149 19.0929 53.4184 19.2589C53.5404 19.3419 53.6218 19.425 53.7438 19.4665C53.8659 19.508 53.9879 19.5495 54.11 19.6325C54.3134 19.7985 54.5982 19.84 54.8423 19.8816C54.9644 19.8816 55.0864 19.9231 55.2492 19.8816C55.2898 19.8816 55.2898 19.8816 55.2898 19.9646C55.2898 20.0061 55.2898 20.0476 55.3305 20.0891C55.3305 20.1721 55.3712 20.2136 55.3712 20.2967C55.005 20.1721 54.6389 20.0891 54.2727 20.0061C54.11 19.9646 53.9066 19.9646 53.7032 19.9646C53.6218 19.9646 53.2556 20.0476 53.2556 20.1721C53.1743 20.0891 53.1336 19.9646 53.0522 19.8816C52.9708 19.7985 52.8895 19.7155 52.8081 19.591C52.7674 19.5495 52.7674 19.3834 52.6861 19.3834C52.564 19.3834 52.6454 19.5495 52.6861 19.591C52.7674 19.84 52.9302 20.0476 53.0929 20.2551C53.2149 20.4627 53.337 20.6702 53.5404 20.8363C53.7438 21.0023 53.9879 21.0853 54.1914 21.1684C54.3134 21.2099 54.4355 21.2929 54.5168 21.3344C54.5982 21.3759 54.6389 21.3759 54.6796 21.3759C54.7609 21.3759 54.8016 21.3759 54.883 21.4174C55.005 21.4174 55.0864 21.4589 55.2085 21.5419C55.2491 21.5834 55.2898 21.5834 55.3305 21.625C55.3712 21.625 55.3712 21.625 55.3712 21.6665C55.3712 21.708 55.3712 21.7495 55.3712 21.791C55.3712 22.0816 55.4119 22.3306 55.4526 22.5797C55.2898 22.4136 55.1271 22.2891 54.9237 22.2061C54.7203 22.0816 54.5575 22.0816 54.3134 22.0401C54.232 22.0401 54.1507 21.957 54.0693 21.9155C53.9879 21.874 53.8659 21.874 53.7845 21.8325C53.7438 21.8325 53.7032 21.791 53.6625 21.791C53.6218 21.791 53.5811 21.8325 53.6218 21.874C53.7032 21.9985 53.7845 22.0401 53.9066 22.1231C53.7438 22.1646 53.7032 22.3721 53.7845 22.4967C53.5811 22.2891 53.4184 22.0816 53.3777 21.791C53.3777 21.6665 53.4184 21.2514 53.1743 21.2929C53.0929 21.2929 53.0522 21.3759 53.0929 21.4174C53.1336 21.5419 53.1336 21.708 53.1336 21.8325C53.1743 22.1231 53.2963 22.3721 53.4997 22.5797C53.6625 22.7872 53.8659 22.9948 54.11 23.1193C54.3541 23.2853 54.5982 23.4099 54.883 23.4929C55.005 23.5344 55.1271 23.6174 55.2898 23.6174C55.3712 23.6174 55.4526 23.6589 55.4933 23.6589C55.5339 23.6589 55.5746 23.6589 55.6153 23.7004C55.656 23.7004 55.656 23.7419 55.656 23.7834C55.6967 24.1155 55.6967 24.4476 55.7374 24.7797C55.4933 24.6136 55.2492 24.4061 54.9644 24.3231C54.6796 24.1985 54.3948 24.157 54.11 24.1155C54.0693 24.1155 53.9473 24.074 53.9066 24.1155C53.8659 24.157 53.7845 24.1155 53.7438 24.1155C53.6218 24.074 53.4997 23.9495 53.3777 23.991C53.337 23.825 53.337 23.6589 53.337 23.5344C53.337 23.4514 53.2963 23.3684 53.2149 23.3684C53.0929 23.3684 53.0929 23.4514 53.0929 23.5344C53.0929 23.6589 53.0929 23.825 53.0929 23.9495C53.1336 24.1985 53.2149 24.4476 53.337 24.6967C53.6218 25.1948 54.11 25.5684 54.5982 25.8589C54.8016 25.9834 55.005 26.0665 55.1678 26.1495C55.2492 26.191 55.3712 26.2325 55.4526 26.274C55.4933 26.274 55.5746 26.3155 55.6153 26.3155C55.656 26.3155 55.656 26.3155 55.6967 26.3155C55.7374 26.3155 55.7374 26.357 55.7374 26.3985C55.6967 26.9382 55.656 27.4363 55.5746 27.9344C55.5339 27.8929 55.4933 27.8514 55.4933 27.7684C55.4933 27.7268 55.4933 27.6853 55.4526 27.6438C55.4119 27.5193 55.3305 27.4363 55.2492 27.3533C55.0864 27.1457 54.8423 27.0212 54.6389 26.8967C54.5168 26.8551 54.3541 26.7721 54.232 26.7721C54.0693 26.7306 53.9066 26.6891 53.7438 26.6476C53.6625 26.6476 53.6218 26.6476 53.5404 26.6061C53.4997 26.5646 53.4184 26.5231 53.3777 26.4816C53.337 26.4401 53.2556 26.3985 53.2149 26.357C53.1336 26.3155 53.0929 26.191 53.0522 26.1495C53.0115 26.0665 52.9302 25.9419 52.8081 25.9419C52.7267 25.9419 52.6047 25.9834 52.6454 26.0665C52.6454 26.108 52.7267 26.191 52.7674 26.2325C52.8081 26.274 52.8081 26.3155 52.8081 26.3155C52.8081 26.357 52.8081 26.357 52.8081 26.3985C52.8488 26.4816 52.8895 26.5231 52.9302 26.5646C52.9708 26.6476 53.0115 26.7306 53.0522 26.8136C53.1336 26.9382 53.2149 27.1042 53.2963 27.2287C53.337 27.2702 53.2963 27.3533 53.337 27.3948C53.3777 27.4363 53.4184 27.5193 53.459 27.5608C53.5811 27.7684 53.7438 27.9759 53.9473 28.1419C54.1507 28.3495 54.4355 28.557 54.6796 28.7231C54.8016 28.8061 54.9644 28.8061 55.0864 28.9306C55.1678 29.0136 55.3712 29.1382 55.4933 29.0551C55.3712 29.7608 55.2085 30.4665 54.9644 31.1306C54.9237 31.1306 54.9237 31.0891 54.883 31.0891C54.9644 31.0061 55.0457 30.8816 55.0457 30.757C55.0864 30.7155 55.1271 30.674 55.1271 30.6325C55.1271 30.5495 55.0457 30.508 55.0457 30.4665C54.9644 30.1759 54.8016 30.0099 54.5575 29.8023C54.4355 29.7193 54.3541 29.6363 54.232 29.5533C54.11 29.4702 53.9473 29.3872 53.8659 29.3042C53.7845 29.2212 53.6625 29.0967 53.5404 29.0551C53.4184 29.0136 53.337 29.0551 53.2556 29.1382C53.2149 28.9721 53.1336 28.8476 53.0115 28.6816C52.9708 28.5985 52.9302 28.5155 52.9708 28.474C53.0115 28.391 53.0929 28.3495 53.0522 28.2665C52.9302 28.0589 52.7267 28.308 52.6861 28.4325C52.6454 28.6401 52.6861 28.8891 52.8081 29.0551L52.8488 29.0967C52.8488 29.0967 52.8488 29.0967 52.8081 29.0967C52.8488 29.3872 52.8081 29.6778 52.8895 29.9684C52.9708 30.2589 53.1743 30.425 53.3777 30.6325C53.5404 30.8401 53.7438 31.0476 53.9879 31.1721C54.232 31.2967 54.5168 31.4212 54.8016 31.4627C54.5168 32.1684 54.1914 32.874 53.8252 33.5382C53.8252 33.4136 53.8659 33.2476 53.9066 33.1231C53.9066 32.9985 53.9066 32.8325 53.8252 32.708C53.7438 32.4589 53.5404 32.2929 53.337 32.0853C53.1743 31.9193 52.9708 31.7533 52.7674 31.6287C52.564 31.5042 52.3199 31.3797 52.0758 31.4212C52.0758 31.2967 52.0758 31.1721 52.0351 31.0476C52.0351 31.0061 52.0351 30.9646 51.9944 30.9231C51.9537 30.8816 51.9131 30.8401 51.9131 30.7985C51.8724 30.7155 51.9131 30.6325 51.8317 30.591C51.791 30.5495 51.669 30.5495 51.6283 30.591C51.5469 30.6325 51.5469 30.7985 51.5469 30.8401C51.5876 30.8816 51.5876 30.9231 51.6283 30.9646C51.6283 31.0476 51.6283 31.1306 51.6283 31.2136C51.6283 31.5042 51.5876 31.7533 51.6283 32.0438C51.7096 32.5835 51.9131 33.0816 52.2792 33.4967C52.4419 33.7042 52.6047 33.8287 52.8081 33.9118C53.0115 33.9948 53.2963 34.0363 53.4997 33.9533C53.0522 34.7004 52.6047 35.4061 52.0758 36.0702C52.1165 35.8627 52.0758 35.7382 52.0351 35.5306C51.9537 35.3646 51.8724 35.1985 51.7503 35.0325C51.6283 34.908 51.5062 34.7834 51.3842 34.7004C51.3435 34.6589 51.3028 34.6589 51.2621 34.6174C51.2214 34.5759 51.1807 34.5759 51.1401 34.5344C51.0587 34.4514 51.018 34.3684 50.9773 34.2853C50.9366 34.2023 50.896 34.1608 50.8553 34.0778C50.8146 34.0363 50.6925 33.8702 50.7332 33.8287C50.7739 33.7457 50.7739 33.6627 50.8146 33.6212C50.8553 33.5797 50.9366 33.5382 51.018 33.4551C51.0994 33.3721 51.0587 33.2476 50.9366 33.2061C50.7739 33.1231 50.6518 33.2476 50.5298 33.3306C50.5298 33.2891 50.5705 33.1646 50.5298 33.1646C50.4891 33.1231 50.4484 33.1231 50.4484 33.1646C50.4077 33.2476 50.4077 33.2891 50.4077 33.3721C50.4077 33.4136 50.4077 33.4136 50.4077 33.4551C50.3671 33.4967 50.3671 33.5382 50.3671 33.5797C50.3264 33.7042 50.245 33.7872 50.2043 33.9118C50.1636 33.9948 50.1636 34.0778 50.1636 34.1193C50.1636 34.1608 50.1636 34.2023 50.1636 34.2438C50.1636 34.2853 50.123 34.3268 50.0823 34.3684C49.8788 34.5759 49.7975 34.908 49.7568 35.1985C49.7161 35.4891 49.7568 35.8212 49.8788 36.1117C49.9602 36.2363 50.0416 36.3608 50.1636 36.4438C50.2043 36.4853 50.245 36.4853 50.3264 36.5268C50.3671 36.5268 50.3671 36.5684 50.4077 36.5684C50.4077 36.6099 50.4484 36.6514 50.4891 36.6514C50.6518 36.8589 50.8959 37.025 51.1401 37.1495C51.1807 37.1495 51.1807 37.191 51.2214 37.191C51.2214 37.2325 51.1807 37.2325 51.1807 37.274C51.1401 37.3155 51.1401 37.357 51.0994 37.3985C51.018 37.5231 50.9366 37.6061 50.8553 37.7306C50.6925 37.9382 50.4891 38.1872 50.3264 38.3948C49.5941 39.2665 48.9024 40.2212 48.1294 41.0514C47.804 41.425 47.4378 41.757 47.031 42.0891C46.7462 42.2967 46.4614 42.5457 46.2173 42.7533C46.0952 42.8363 45.9732 42.9608 45.8104 43.0853C45.6477 43.2099 45.4443 43.3344 45.2815 43.5004C45.2002 43.5834 45.0781 43.7495 45.2409 43.791C45.4036 43.8325 45.607 43.8325 45.7698 43.7495C46.0139 43.625 46.2173 43.4174 46.4207 43.2514C46.7055 43.0023 47.031 42.7118 47.3158 42.4212C47.8853 41.8816 48.4549 41.3004 48.9838 40.7193C49.8788 39.7231 50.6925 38.6853 51.5469 37.6476C51.7503 37.3985 51.9537 37.1495 52.1165 36.9004C52.1165 37.108 52.2385 37.2325 52.4419 37.2325C52.564 37.2325 52.6861 37.2325 52.8081 37.191C52.9302 37.1495 53.0522 37.025 53.1743 36.9834C53.4184 36.9004 53.6218 36.7759 53.8252 36.6099C53.9066 36.5268 53.9879 36.4438 54.11 36.4023C54.1507 36.4023 54.1507 36.3608 54.1914 36.3608C54.232 36.3193 54.232 36.3193 54.2727 36.3193C54.3134 36.3608 54.3948 36.3608 54.4355 36.3608C53.9066 36.6929 53.3777 37.0665 52.7674 37.2325C52.6861 37.274 52.6454 37.357 52.7267 37.3985C52.8081 37.4816 53.0115 37.3985 53.0929 37.3985C53.4184 37.357 53.6625 37.191 53.9473 37.025C54.5168 36.6514 55.0457 36.2778 55.5339 35.8212C55.778 35.6136 55.9815 35.4061 56.1849 35.157C56.3883 34.9495 56.551 34.7004 56.7951 34.5344C56.8358 34.4929 56.9579 34.4514 56.8765 34.3684C56.7138 34.4929 56.6324 34.4929 56.5917 34.5344ZM55.8594 32.8325C55.9408 32.791 56.0628 32.708 56.1442 32.6665C55.9408 32.791 55.7374 32.874 55.5746 32.9985C55.6967 32.957 55.778 32.874 55.8594 32.8325ZM56.1849 30.1344C56.3069 30.0099 56.5104 29.9268 56.7138 29.8438C56.5104 29.9684 56.3476 30.1344 56.1849 30.2589C56.1442 30.1759 56.1442 30.1759 56.1849 30.1344ZM57.8936 24.0325C57.9343 24.0325 57.975 23.991 57.975 23.991C57.8529 24.157 57.7716 24.3231 57.6495 24.4891C57.6088 24.4476 57.6088 24.4476 57.5681 24.4061C57.6495 24.3231 57.7309 24.2816 57.7716 24.1985C57.8529 24.1985 57.9343 24.157 57.8936 24.0325ZM57.6902 21.957C57.7309 21.957 57.7309 21.957 57.7716 21.957C57.6902 21.9985 57.6495 22.0816 57.5681 22.1231C57.6088 22.0816 57.6495 21.9985 57.6902 21.957ZM56.9986 22.9117C56.9579 22.9533 56.9172 22.9533 56.8765 22.9948C56.8358 23.0363 56.8358 23.0363 56.7545 23.0363C56.7951 22.9948 56.7545 22.9948 56.7951 22.9948C56.8765 22.9533 56.9172 22.9117 56.9986 22.9117ZM54.3948 14.6514C54.3948 14.6099 54.4355 14.6099 54.4355 14.5684C54.4355 14.6514 54.4355 14.6929 54.4355 14.7759C54.3948 14.7344 54.3948 14.6929 54.3948 14.6514ZM52.6861 16.4778C52.6454 16.4778 52.6454 16.4778 52.6861 16.4778C52.7267 16.4778 52.8081 16.4778 52.8895 16.5193C52.8488 16.5608 52.8081 16.6023 52.8081 16.6438C52.7674 16.5608 52.7267 16.5193 52.6861 16.4778ZM53.5404 18.7193C53.4997 18.6778 53.4184 18.5948 53.3777 18.5533C53.4184 18.5533 53.4591 18.6363 53.4997 18.6363C53.5811 18.6778 53.6625 18.6778 53.7438 18.7193C53.6625 18.6778 53.5811 18.6778 53.5404 18.7193ZM54.883 19.1759C54.8423 19.1344 54.8423 19.1344 54.883 19.1759C54.883 19.1344 54.9644 19.1344 55.005 19.0929C55.005 19.1344 55.005 19.1759 55.005 19.2174C54.9644 19.2174 54.9237 19.1759 54.883 19.1759ZM54.0693 20.7948C53.8659 20.7117 53.6625 20.5457 53.4997 20.3797C53.5811 20.3797 53.7032 20.3797 53.7845 20.3797C53.7032 20.5042 53.9066 20.6287 53.9879 20.6702C54.0286 20.7117 54.11 20.7117 54.1914 20.7533C54.232 20.7533 54.232 20.7533 54.2727 20.7948C54.3134 20.8363 54.3134 20.8363 54.3134 20.8778C54.1914 20.8363 54.11 20.7948 54.0693 20.7948ZM55.0864 20.9193C55.0864 20.9193 55.0864 20.8778 55.0864 20.9193C55.1271 20.8778 55.1271 20.8778 55.1678 20.9193C55.1271 20.9193 55.1271 20.9193 55.0864 20.9193ZM57.5275 19.425C57.5275 19.4665 57.4868 19.508 57.4461 19.5495C57.4461 19.508 57.4054 19.508 57.4461 19.4665C57.4868 19.4665 57.5275 19.425 57.5275 19.425ZM57.6495 19.0929C57.6088 19.2174 57.6088 19.3004 57.5275 19.3834C57.5275 19.3419 57.4868 19.3004 57.4461 19.2589C57.3647 19.2174 57.2834 19.3004 57.2427 19.3004C57.3647 19.2174 57.4868 19.1344 57.6495 19.0929ZM55.8594 21.1268C55.8594 21.0023 55.8187 20.9193 55.8594 20.7948C55.9408 20.7948 55.9815 20.7948 56.0628 20.7948C56.1035 20.7948 56.1442 20.7948 56.1849 20.7948C56.2256 20.8363 56.2256 20.8363 56.2663 20.8363C56.1849 20.8778 56.1849 20.9608 56.1035 21.0023C55.9815 21.0853 55.9001 21.1268 55.8594 21.1268ZM54.2727 24.7382C54.232 24.7382 54.232 24.7382 54.1914 24.7797C54.1507 24.7382 54.1507 24.7382 54.11 24.6967C54.0693 24.6551 54.0286 24.6136 53.9879 24.6136C53.8659 24.5721 53.7438 24.6136 53.6625 24.6967C53.6218 24.6136 53.5404 24.5306 53.4997 24.4476C53.6218 24.4891 53.7438 24.4891 53.8659 24.5306C54.0286 24.5721 54.1507 24.6551 54.2727 24.7382C54.3134 24.7382 54.2727 24.7382 54.2727 24.7382ZM55.7374 25.1948V25.2363C55.6967 25.1948 55.6967 25.1948 55.656 25.1533C55.6967 25.1948 55.6967 25.1948 55.7374 25.1948ZM55.3712 25.7344C55.3305 25.7344 55.2898 25.8174 55.2492 25.7759C55.1678 25.7344 55.1271 25.6929 55.0457 25.6929C55.1271 25.6929 55.2492 25.6929 55.3305 25.6514C55.3712 25.6514 55.4119 25.6099 55.4526 25.6099C55.4933 25.6514 55.4933 25.6929 55.5339 25.7344C55.4526 25.7344 55.4119 25.7344 55.3712 25.7344ZM56.1849 25.1533C56.1849 25.1117 56.1849 25.0702 56.1849 25.0287C56.2256 25.0287 56.2663 25.0702 56.3069 25.0702C56.2256 25.1117 56.2256 25.1533 56.1849 25.1533ZM55.3305 28.391C55.3305 28.3495 55.3305 28.308 55.3712 28.2665C55.4119 28.308 55.4526 28.391 55.5339 28.4325C55.4119 28.391 55.3712 28.391 55.3305 28.391ZM55.9408 28.557C55.9408 28.5155 55.9408 28.5155 55.9408 28.474C55.9815 28.474 55.9815 28.474 56.0221 28.474C56.0221 28.474 55.9815 28.5155 55.9408 28.557ZM52.0351 31.7948C52.0758 31.7948 52.1165 31.8363 52.1572 31.8363C52.0758 31.8778 52.0758 31.9608 52.0758 32.0438C52.0758 31.9608 52.0351 31.8778 52.0351 31.7948ZM52.9708 32.6665C52.9302 32.6665 52.8895 32.6665 52.8895 32.6665C52.8895 32.625 52.8488 32.5834 52.8081 32.5419C52.7674 32.4589 52.6861 32.4174 52.6861 32.3344C52.8081 32.4174 52.9302 32.5419 52.9708 32.6665C53.0115 32.6665 53.0115 32.6665 52.9708 32.6665ZM50.6925 34.6589C50.6925 34.5759 50.6518 34.4099 50.5298 34.4929C50.5298 34.4099 50.5298 34.3268 50.5298 34.2438C50.6112 34.3684 50.6925 34.5344 50.7739 34.6589C50.7739 34.6589 50.7332 34.6589 50.6925 34.6589ZM51.0587 35.2816C51.018 35.2401 50.9773 35.2401 50.9366 35.2401C50.9773 35.157 51.018 35.074 50.9773 34.991C51.0994 35.074 51.2214 35.1985 51.3028 35.3231C51.2214 35.2816 51.1401 35.2816 51.0587 35.2816ZM51.1807 36.8174C51.1401 36.8589 51.0994 36.9419 51.0587 36.9419C51.018 36.9004 50.9773 36.8589 50.9366 36.8174C51.018 36.8174 51.1401 36.8174 51.2214 36.8174C51.2214 36.7759 51.1807 36.7759 51.1807 36.8174ZM54.9237 36.0702C54.9237 36.0287 54.883 35.9872 54.9237 35.9457C54.9644 35.9042 55.0457 35.9042 55.1271 35.9042C55.0457 35.9457 54.9644 36.0287 54.9237 36.0702ZM55.2492 35.8212C55.2492 35.7797 55.2491 35.7382 55.2085 35.7382C55.3305 35.6551 55.4526 35.5306 55.6153 35.4891C55.4933 35.5721 55.3712 35.6967 55.2492 35.8212Z" fill="white"/>
<path d="M2.19678 34.6585C2.44089 34.8245 2.64431 35.0736 2.80705 35.2811C3.01047 35.5302 3.21389 35.7377 3.45799 35.9453C3.9462 36.4019 4.47509 36.7755 5.04467 37.149C5.28878 37.3151 5.57357 37.4811 5.89904 37.5226C6.02109 37.5641 6.18383 37.6056 6.30588 37.5641C6.38725 37.5226 6.42793 37.4396 6.34656 37.3566C6.30588 37.3151 6.22451 37.3151 6.14314 37.2736C6.06178 37.2321 6.02109 37.2321 5.93972 37.1906C5.77699 37.149 5.65493 37.066 5.53288 36.983C5.24809 36.817 5.00399 36.6509 4.7192 36.4849C4.67851 36.4849 4.67851 36.4434 4.63783 36.4434C4.67851 36.4434 4.75988 36.4434 4.80057 36.4019C4.84125 36.3604 4.84125 36.3604 4.88194 36.4019C4.92262 36.4019 4.92262 36.4434 4.9633 36.4849C5.04467 36.5679 5.12604 36.6094 5.24809 36.6924C5.45151 36.8585 5.65493 36.983 5.89904 37.066C6.14314 37.149 6.34656 37.3566 6.63135 37.3151C6.83477 37.3151 6.95683 37.149 6.99751 36.983C7.81119 38.0207 8.66556 39.0585 9.51992 40.0962C10.1302 40.8019 10.7404 41.466 11.3914 42.1302C11.9203 42.6698 12.4492 43.2094 13.0594 43.666C13.1408 43.7075 13.2222 43.7906 13.3035 43.8321C13.4663 43.9151 13.7104 43.9151 13.8731 43.8321C14.0359 43.749 13.8731 43.583 13.7918 43.5C13.629 43.334 13.4256 43.2094 13.2629 43.0849C13.0188 42.8773 12.7747 42.7113 12.5305 42.5038C12.2051 42.2547 11.8796 41.9641 11.5541 41.6736C10.7404 40.8849 10.0488 40.0132 9.35719 39.1415C8.99103 38.6849 8.58419 38.2283 8.21803 37.7302C8.13666 37.6472 8.09598 37.5226 8.01461 37.4396C7.97393 37.3981 7.97393 37.3566 7.93324 37.3151C7.89256 37.2736 7.89256 37.2736 7.93324 37.2321C7.97393 37.1906 8.01461 37.1906 8.0553 37.149C8.25872 36.983 8.50282 36.8585 8.66556 36.6094C8.74693 36.5264 8.86898 36.5264 8.95035 36.4434C9.0724 36.3604 9.15377 36.1943 9.23514 36.0698C9.35719 35.7792 9.39787 35.4887 9.3165 35.1566C9.23514 34.866 9.15377 34.5755 8.95035 34.3679C8.90966 34.3264 8.90966 34.2019 8.90966 34.1604C8.90966 34.0773 8.86898 33.9943 8.82829 33.9528C8.78761 33.8283 8.70624 33.7038 8.62487 33.6207C8.62487 33.6207 8.62487 33.5792 8.58419 33.5792C8.54351 33.5377 8.58419 33.5377 8.58419 33.4962C8.58419 33.4132 8.54351 33.3302 8.54351 33.2887C8.54351 33.2472 8.46214 33.2472 8.46214 33.2887C8.42145 33.3302 8.46214 33.4132 8.46214 33.4547C8.34009 33.3717 8.21803 33.2887 8.09598 33.3302C8.01461 33.3717 7.89256 33.4962 8.01461 33.5792C8.0553 33.6207 8.13666 33.6623 8.17735 33.7038C8.25872 33.7453 8.25872 33.8283 8.2994 33.9113C8.34009 33.9528 8.34009 33.9528 8.34009 33.9943C8.2994 34.0358 8.2994 34.0774 8.25872 34.1189C8.21803 34.2019 8.17735 34.2849 8.09598 34.3679C8.0553 34.4509 8.01461 34.4924 7.93324 34.5755C7.89256 34.617 7.85188 34.6585 7.85188 34.7C7.81119 34.7415 7.77051 34.7415 7.72982 34.783C7.56709 34.866 7.44503 34.9906 7.32298 35.1151C7.20093 35.2396 7.11956 35.4057 7.03819 35.5717C6.99751 35.6547 6.95683 35.7377 6.95683 35.8623C6.95683 35.9453 6.95683 36.0698 6.95683 36.1528C6.42793 35.4887 5.93972 34.783 5.53288 34.0358C5.7363 34.0773 5.98041 34.0773 6.22451 33.9943C6.46862 33.9113 6.63135 33.7453 6.7534 33.5792C7.07888 33.1641 7.32298 32.666 7.40435 32.1264C7.44503 31.8358 7.40435 31.5868 7.40435 31.2962C7.40435 31.1717 7.40435 31.0472 7.44503 30.9226C7.48572 30.8396 7.48572 30.7151 7.40435 30.6321C7.36367 30.5906 7.2823 30.5906 7.20093 30.5906C7.11956 30.6321 7.11956 30.6736 7.11956 30.7566C7.11956 30.7981 7.07888 30.7981 7.03819 30.8396C6.99751 30.8811 6.99751 30.9226 6.99751 31.0057C6.95683 31.1302 6.95683 31.2962 6.95683 31.4207C6.71272 31.3792 6.5093 31.5038 6.30588 31.6283C6.10246 31.7528 5.89904 31.9189 5.7363 32.0849C5.4922 32.334 5.28878 32.5 5.20741 32.749C5.16672 32.8736 5.12604 33.0396 5.12604 33.1641C5.12604 33.3302 5.16672 33.4547 5.20741 33.6207C4.84125 32.9566 4.51578 32.2509 4.23099 31.5453C4.51578 31.4623 4.75988 31.3792 5.04467 31.2547C5.28878 31.1302 5.4922 30.9226 5.69562 30.7151C5.85835 30.5075 6.06178 30.3415 6.14314 30.0509C6.22451 29.7604 6.22451 29.4283 6.2652 29.1377C6.2652 29.1377 6.2652 29.1377 6.22451 29.1377C6.22451 29.1377 6.22451 29.0962 6.2652 29.0962C6.38725 28.9717 6.42793 28.7641 6.42793 28.5566C6.42793 28.3906 6.2652 28.1 6.06177 28.2245C5.98041 28.3075 6.02109 28.349 6.06177 28.3906C6.10246 28.4736 6.10246 28.5566 6.06177 28.6396C5.98041 28.8056 5.85835 28.9302 5.81767 29.1377C5.7363 29.0962 5.65493 29.0547 5.57357 29.0547C5.45151 29.0547 5.32946 29.1792 5.24809 29.2623C5.04467 29.4698 4.75988 29.5943 4.51578 29.8019C4.31236 29.9679 4.10894 30.1755 4.02757 30.4245C3.98688 30.549 3.86483 30.6321 3.98688 30.7566C4.02757 30.7981 4.02757 30.8811 4.06825 30.9226C4.10894 30.9641 4.14962 31.0472 4.19031 31.0887C4.14962 31.0887 4.14962 31.1302 4.10894 31.1302C3.86483 30.466 3.7021 29.7604 3.58004 29.0547C3.66141 29.0962 3.82415 29.0132 3.90552 28.9717C3.9462 28.9302 3.98688 28.8887 4.02757 28.8472C4.10894 28.8056 4.19031 28.8057 4.23099 28.7641C4.47509 28.6396 4.7192 28.5151 4.92262 28.3075C5.12604 28.1415 5.28878 27.934 5.45151 27.7264C5.53288 27.6434 5.57357 27.5189 5.65493 27.4358C5.69562 27.3943 5.7363 27.3528 5.7363 27.2698C5.7363 27.2283 5.7363 27.2283 5.7363 27.1868C5.77699 27.1453 5.77699 27.1038 5.81767 27.0623C5.89904 26.9377 5.98041 26.7717 6.02109 26.6472C6.06177 26.5641 6.10246 26.5226 6.14314 26.4396C6.18383 26.3981 6.18383 26.3981 6.22451 26.3566C6.2652 26.3151 6.22451 26.2736 6.2652 26.2321C6.30588 26.149 6.46862 26.0245 6.38725 25.9415C6.34656 25.8585 6.22451 25.8585 6.14314 25.9C6.02109 25.9415 5.98041 26.1075 5.89904 26.2321C5.81767 26.3566 5.65493 26.4811 5.53288 26.5641C5.4922 26.6056 5.4922 26.6056 5.45151 26.6472C5.41083 26.6887 5.41083 26.6887 5.32946 26.6887C5.24809 26.6887 5.16672 26.6887 5.12604 26.7302C4.9633 26.7717 4.80057 26.8132 4.63783 26.8547C4.35304 26.9377 4.06825 27.1038 3.82415 27.3113C3.74278 27.3943 3.62073 27.5189 3.53936 27.6434C3.49868 27.6849 3.49868 27.7679 3.45799 27.8094C3.45799 27.8509 3.45799 27.8924 3.45799 27.8924C3.41731 27.934 3.37662 27.9755 3.33594 28.017C3.29525 27.6849 3.25457 27.3528 3.25457 26.9792C3.25457 26.8132 3.21389 26.6472 3.21389 26.4811C3.21389 26.4396 3.21389 26.3981 3.21389 26.3566C3.25457 26.3566 3.29525 26.3566 3.33594 26.3566C3.41731 26.3566 3.49868 26.3151 3.58004 26.2736C4.10894 26.066 4.67851 25.7755 5.08536 25.4019C5.4922 25.0283 5.81767 24.5717 5.89904 24.0321C5.89904 23.9075 5.89904 23.783 5.89904 23.6585C5.89904 23.5755 5.89904 23.4509 5.77699 23.4094C5.7363 23.4094 5.61425 23.4094 5.61425 23.4924C5.61425 23.5755 5.61425 23.617 5.61425 23.7C5.61425 23.783 5.61425 23.866 5.57357 23.9906C5.57357 24.0736 5.53288 24.0321 5.4922 24.0321C5.45151 24.0321 5.41083 24.0736 5.32946 24.1151C5.24809 24.1566 5.12604 24.1981 5.04467 24.1981C5.00399 24.1151 4.84125 24.1981 4.75988 24.1981C4.63783 24.1981 4.51578 24.2396 4.39373 24.2396C4.19031 24.2811 3.98688 24.3641 3.78346 24.4472C3.58004 24.5717 3.37662 24.6962 3.1732 24.8207C3.1732 24.4887 3.21389 24.1981 3.25457 23.866C3.25457 23.8245 3.25457 23.8245 3.25457 23.783C3.25457 23.7415 3.29525 23.7415 3.33594 23.7415C3.41731 23.7415 3.49868 23.7 3.53936 23.7C3.7021 23.7 3.82415 23.6585 3.98688 23.5755C4.23099 23.4509 4.51578 23.3679 4.75988 23.2019C5.00399 23.0358 5.20741 22.8283 5.41083 22.6207C5.57357 22.4132 5.7363 22.2057 5.77699 21.9151C5.77699 21.7906 5.77699 21.666 5.81767 21.5C5.81767 21.417 5.85835 21.334 5.77699 21.2924C5.53288 21.2509 5.57357 21.6245 5.57357 21.749C5.57357 21.8736 5.53288 21.9981 5.45151 22.1226C5.37014 22.2472 5.28878 22.3717 5.16672 22.4547C5.20741 22.3302 5.16672 22.1226 5.04467 22.0811C5.12604 21.9981 5.24809 21.9566 5.28878 21.8736C5.37014 21.7906 5.24809 21.749 5.16672 21.7906C5.08536 21.8321 4.9633 21.8321 4.88194 21.8736C4.80057 21.9151 4.7192 21.9566 4.63783 21.9981C4.43441 22.0396 4.23099 22.0811 4.02757 22.1641C3.82415 22.2472 3.66141 22.4132 3.49868 22.5792C3.53936 22.3302 3.58004 22.0396 3.58004 21.749C3.58004 21.7075 3.58004 21.7075 3.58004 21.666C3.58004 21.6245 3.58004 21.583 3.62073 21.583C3.58004 21.5415 3.62073 21.5 3.66141 21.4585C3.78346 21.3755 3.90552 21.3755 4.02757 21.334C4.06825 21.334 4.14962 21.334 4.19031 21.334C4.27167 21.334 4.31236 21.2924 4.35304 21.2924C4.47509 21.2509 4.59715 21.1679 4.7192 21.1264C4.9633 21.0019 5.20741 20.9604 5.37014 20.7528C5.53288 20.5868 5.65493 20.4207 5.77699 20.2132C5.89904 20.0056 6.06178 19.7981 6.14314 19.549C6.18383 19.5075 6.2652 19.3415 6.14314 19.3415C6.06178 19.3415 6.02109 19.5075 5.98041 19.549C5.93972 19.6321 5.85835 19.7151 5.77699 19.7981C5.69562 19.8811 5.61425 20.0056 5.57357 20.1302C5.57357 20.0056 5.24809 19.9641 5.12604 19.9226C4.9633 19.8811 4.75988 19.9226 4.59715 19.9226C4.23099 20.0056 3.82415 20.0887 3.45799 20.2132C3.45799 20.0887 3.49868 19.9641 3.53936 19.8396C3.66141 19.8396 3.82415 19.8396 3.9462 19.8396C4.19031 19.7981 4.47509 19.7566 4.67851 19.5906L4.7192 19.549C4.75988 19.5075 4.75988 19.549 4.80057 19.5075C4.88194 19.466 4.92262 19.466 5.00399 19.4245C5.12604 19.383 5.24809 19.3 5.37014 19.217C5.57357 19.0509 5.7363 18.8434 5.89904 18.6358C6.10246 18.4283 6.2652 18.2207 6.38725 17.9717C6.46862 17.8472 6.67204 17.6396 6.46862 17.4736C6.2652 17.349 6.10246 17.5151 6.02109 17.6811C6.10246 17.8056 6.10246 17.8472 6.02109 17.8887C5.93972 17.9302 5.89904 17.9717 5.81767 17.9717C5.69562 18.0547 5.57357 18.0962 5.41083 18.1792C5.45151 18.0962 5.24809 18.1377 5.20741 18.1377C5.08536 18.1377 4.9633 18.1792 4.88194 18.2207C4.75988 18.2623 4.63783 18.2623 4.55646 18.3038C4.43441 18.3453 4.35304 18.3868 4.23099 18.3453C4.23099 18.3868 4.19031 18.3868 4.14962 18.4283C4.06825 18.4283 3.98688 18.4698 3.9462 18.5113C3.98688 18.3868 4.02757 18.2623 4.06825 18.1377C4.10894 18.0547 4.14962 17.8056 4.23099 17.7641C4.31236 17.7226 4.43441 17.7226 4.55646 17.7226C4.59715 17.7226 4.67851 17.6811 4.7192 17.6811C4.80057 17.6811 4.7192 17.6811 4.80057 17.6396C4.84125 17.6396 4.84125 17.6396 4.88194 17.6396C5.37014 17.5981 5.85835 17.4321 6.22451 17.0585C6.34656 16.934 6.46862 16.7264 6.59067 16.5604C6.63135 16.4773 6.67204 16.3528 6.7534 16.3113C6.79409 16.3113 6.83477 16.2698 6.79409 16.2283C6.83477 16.1453 6.87546 16.1038 6.91614 16.0207C6.95683 15.9792 7.11956 15.8132 7.03819 15.7717C6.95682 15.6887 6.83477 15.8962 6.79409 15.9377C6.71272 16.0207 6.63135 16.1453 6.54998 16.2283C6.5093 16.2698 6.46862 16.3113 6.38725 16.3113C6.34656 16.3113 6.30588 16.2698 6.2652 16.2698C6.30588 16.2698 6.46862 16.2698 6.46862 16.2283C6.5093 16.1868 6.42793 16.1453 6.38725 16.1453C6.34656 16.1453 6.18383 16.1868 6.18383 16.1453C6.14314 16.1038 6.10246 16.0623 6.02109 16.0623C5.93972 16.0623 5.89904 16.0623 5.85835 16.1038C5.7363 16.1453 5.69562 16.1453 5.61425 16.1453C5.45151 16.1868 5.28878 16.2283 5.12604 16.3113C5.12604 16.2283 5.16672 16.1038 5.20741 16.0207C5.20741 15.9792 5.24809 15.9377 5.24809 15.8547C5.24809 15.8132 5.24809 15.8132 5.28878 15.7717C5.32946 15.7717 5.32946 15.7717 5.32946 15.7302C5.28878 15.9792 5.61425 15.8962 5.7363 15.8547C5.93972 15.7717 6.10246 15.6056 6.30588 15.4811C6.63135 15.2321 7.07888 14.9415 7.11956 14.4849C7.16025 14.4019 7.20093 14.2773 7.24161 14.1943C7.2823 14.0698 7.32298 13.9453 7.32298 13.8207C7.36367 13.6962 7.36367 13.5717 7.40435 13.4472C7.40435 13.4056 7.48572 13.3226 7.44503 13.2811C7.44503 13.2396 7.36367 13.2396 7.36367 13.2811C7.24161 13.5302 7.11956 13.7792 7.03819 14.0283C6.99751 14.1528 6.95682 14.2773 6.87546 14.4019C6.83477 14.4434 6.79409 14.4434 6.7534 14.4849C6.71272 14.5264 6.67204 14.5679 6.71272 14.6094C6.59067 14.7755 6.38725 14.9415 6.22451 15.1075C6.02109 15.2736 5.77699 15.3566 5.57357 15.5226C5.61425 15.4811 5.57357 15.3981 5.65493 15.3981C5.7363 15.3981 5.77699 15.3566 5.81767 15.3151C5.85835 15.2736 5.89904 15.2321 5.93972 15.2321C5.98041 15.1906 6.06177 15.1906 6.10246 15.1906L6.14314 15.149C6.14314 15.1075 6.18383 15.1075 6.18383 15.066C6.22451 15.0245 6.30588 14.983 6.34656 14.9415C6.42793 14.8585 6.54998 14.7755 6.59067 14.6924C6.63135 14.6924 6.63135 14.6509 6.63135 14.6094C6.63135 14.5679 6.67204 14.5264 6.71272 14.4849C6.7534 14.4434 6.87546 14.3604 6.87546 14.2773C6.87546 14.1943 6.71272 14.1528 6.67204 14.1528C6.59067 14.1528 6.54998 14.2358 6.59067 14.2773C6.30588 14.4434 5.98041 14.5679 5.69562 14.734C5.77699 14.5264 5.81767 14.3604 5.93972 14.1943C5.98041 14.1528 5.98041 14.1113 6.02109 14.0698C6.06177 14.0283 6.06178 14.0283 6.14314 13.9868C6.22451 13.9868 6.34656 13.9453 6.38725 13.8623C6.67204 13.6132 6.63135 13.1566 6.59067 12.8245C6.59067 12.783 6.59067 12.7415 6.54998 12.7C6.54998 12.6585 6.54998 12.617 6.59067 12.5755C6.63135 12.4924 6.67204 12.4509 6.71272 12.3679C6.7534 12.2019 6.79409 12.0358 6.67204 11.9113C6.63135 11.8698 6.63135 11.8698 6.67204 11.7868C6.71272 11.7453 6.71272 11.7038 6.7534 11.6623C6.83477 11.5792 6.87546 11.4547 6.95683 11.3717C6.99751 11.2887 7.07888 11.2056 7.11956 11.1226C7.11956 11.0811 7.2823 10.8736 7.16025 10.9151C7.24161 10.8321 7.32298 10.749 7.36367 10.666C7.40435 10.583 7.2823 10.583 7.24161 10.583C7.16025 10.6245 7.07888 10.749 6.99751 10.8321C6.91614 10.9151 6.83477 10.9981 6.7534 11.0811C6.59067 11.2472 6.42793 11.4132 6.2652 11.6207C6.18383 11.7038 6.14314 11.8283 6.02109 11.8698C5.93972 11.9113 5.85835 11.9528 5.77699 12.0358C5.4922 12.2849 5.28878 12.7 5.24809 13.1151C5.16672 13.2811 5.08536 13.5717 5.16672 13.7377C5.28878 13.9038 5.53288 13.9868 5.69562 14.0283C5.53288 14.2358 5.32946 14.4849 5.24809 14.7755C5.08536 14.5264 4.92262 14.2358 4.84125 13.9453C4.75988 13.6962 4.7192 13.4472 4.59715 13.2396C4.55646 13.1151 4.47509 13.0321 4.35304 12.949C4.31236 12.9075 4.31236 12.783 4.31236 12.7415C4.31236 12.6585 4.31236 12.5755 4.27167 12.534C4.19031 12.4094 3.90552 12.4509 3.9462 12.617C3.9462 12.783 3.90552 12.9075 3.86483 13.0736C3.82415 13.2396 3.82415 13.4472 3.82415 13.6132C3.78346 13.9453 3.82415 14.3189 3.82415 14.6509C3.82415 15.149 3.90552 15.7717 4.43441 15.9792C4.55646 16.0207 4.63783 16.0207 4.75988 16.0207C4.67851 16.2283 4.59715 16.4358 4.55646 16.6849C4.43441 16.1868 4.14962 15.6056 3.62073 15.4811C3.58004 15.4811 3.49868 15.4811 3.45799 15.5226C3.41731 15.5641 3.37662 15.6887 3.33594 15.5641C3.29525 15.3981 3.25457 15.1906 3.21389 15.0245C3.21389 14.983 3.21389 14.9415 3.1732 14.9C3.21389 14.9 3.21389 14.8585 3.25457 14.8585C3.29525 14.817 3.29525 14.7755 3.29525 14.6924C3.29525 14.6509 3.21389 14.6094 3.1732 14.5679C3.13252 14.5679 3.05115 14.5679 3.01047 14.5264C3.01047 14.5264 3.05115 14.5264 3.05115 14.5679C2.96978 14.5264 2.80705 14.5264 2.76636 14.6509C2.76636 14.734 2.76636 14.817 2.76636 14.8585C2.76636 14.9415 2.76636 15.0245 2.80705 15.1075C2.84773 15.4396 2.88841 15.7717 2.96978 16.0623C3.05115 16.3528 3.13252 16.6849 3.25457 16.9755C3.29525 17.1 3.33594 17.2245 3.41731 17.349C3.66141 17.2245 3.74278 17.3906 3.90552 17.3906C3.86483 17.5566 3.78346 17.7226 3.7021 17.8887C3.53936 17.6811 3.25457 17.5151 3.01047 17.3906C2.9291 17.3075 2.80704 17.2245 2.68499 17.183C2.60362 17.1415 2.56294 17.1415 2.48157 17.1C2.44089 17.1 2.4002 17.1 2.35952 17.0585C2.31884 17.0585 2.31884 17.017 2.27815 16.9755C2.23747 16.8509 2.19678 16.6849 2.23747 16.5604C2.27815 16.4358 2.23747 16.2698 2.19678 16.1038C2.1561 16.0207 2.1561 15.8547 2.03405 15.8962C1.99336 15.8962 1.99336 15.9792 1.99336 16.0207C1.99336 16.1038 1.95268 16.1868 1.95268 16.2698C1.95268 16.3528 1.95268 16.3943 1.91199 16.4773C1.87131 16.4773 1.83063 16.5189 1.78994 16.6019C1.70857 16.7264 1.70857 16.8509 1.70857 16.9755C1.70857 17.2245 1.83063 17.4736 1.95268 17.7226C2.1561 18.2207 2.35952 18.6773 2.80705 18.9679C2.88841 19.0094 3.09183 19.0924 3.09183 18.8849C3.1732 19.0094 3.25457 19.0094 3.29525 19.0509C3.29525 19.1755 3.25457 19.3 3.21389 19.383C3.21389 19.4245 3.1732 19.5075 3.1732 19.549C3.1732 19.5906 3.1732 19.5906 3.1732 19.6321C3.13252 19.6321 3.13252 19.6736 3.13252 19.6736C3.13252 19.7151 3.13252 19.7151 3.13252 19.7566C3.13252 19.7981 3.13252 19.8811 3.09183 19.9226C2.84773 19.6321 2.56294 19.4245 2.23747 19.2585C2.07473 19.1755 1.91199 19.0924 1.70857 19.0509C1.62721 19.0094 1.54584 19.0094 1.46447 18.9679C1.3831 18.9264 1.26105 18.8849 1.22036 18.9264C1.22036 18.8019 1.17968 18.6773 1.17968 18.5113C1.17968 18.4283 1.139 18.3038 1.17968 18.2623C1.26105 18.2623 1.22036 18.2207 1.17968 18.2207C1.139 18.2207 1.09831 18.2207 1.05763 18.2623C0.97626 18.3453 0.935576 18.4283 0.894892 18.5528C0.854207 18.6773 0.854207 18.7604 0.854207 18.8849C0.854207 18.9264 0.894892 19.0094 0.854207 19.0094C0.894892 19.0924 0.894892 19.134 0.894892 19.217C0.935576 19.3415 0.97626 19.466 1.05763 19.5906C1.139 19.7151 1.22036 19.8811 1.30173 20.0056C1.58652 20.4207 1.95268 20.8358 2.44089 21.0434C2.56294 21.0849 2.68499 21.1679 2.84773 21.2094C2.9291 21.2509 2.96978 21.2924 3.05115 21.2924C3.05115 21.334 3.05115 21.334 3.05115 21.3755C3.01047 21.3755 2.96978 21.3755 2.9291 21.3755C2.88841 21.3755 2.60362 21.2509 2.60362 21.3755C2.60362 21.417 2.72568 21.4585 2.76636 21.5C2.84773 21.5415 2.9291 21.583 3.01047 21.583C2.96978 21.7906 2.9291 21.9566 2.88841 22.1641C2.60362 21.8736 2.19678 21.666 1.78994 21.583C1.70857 21.583 1.58652 21.5415 1.50515 21.5415C1.46447 21.5415 1.42379 21.5415 1.3831 21.5415C1.34242 21.5415 1.26105 21.5 1.22036 21.4585C1.139 21.417 1.05763 21.3755 0.97626 21.4585C0.894892 21.5415 1.01694 21.666 1.09831 21.7075C1.05763 21.7075 1.01694 21.749 1.01694 21.749C0.935576 21.749 0.894892 21.6245 0.813523 21.5415C0.772839 21.5 0.732155 21.4585 0.732155 21.417C0.732155 21.334 0.691471 21.2509 0.691471 21.1679C0.650787 21.0434 0.650787 20.8773 0.610103 20.7528C0.610103 20.6698 0.569419 20.5868 0.48805 20.6283C0.365998 20.6698 0.406682 20.7943 0.447366 20.8773C0.447366 20.9604 0.447366 21.0019 0.48805 21.0849C0.48805 21.1264 0.406682 21.1679 0.406682 21.2094C0.406682 21.334 0.447366 21.417 0.48805 21.5415C0.528735 21.666 0.569419 21.7906 0.650787 21.9151C0.732155 21.9981 0.772839 22.1226 0.854207 22.2056C0.935576 22.3302 1.01694 22.4132 1.09831 22.5377C1.30173 22.7453 1.50515 22.9113 1.70857 23.0773C1.83063 23.1604 1.95268 23.2434 2.03405 23.3264C2.03405 23.3679 2.03405 23.4094 2.07473 23.4509C2.11542 23.4924 2.19678 23.4509 2.23747 23.4924C2.35952 23.534 2.44089 23.617 2.56294 23.6585C2.64431 23.6585 2.80705 23.6585 2.76636 23.534C2.80705 23.534 2.84773 23.4924 2.88841 23.4924C2.84773 23.866 2.80705 24.2811 2.80705 24.6547C2.72568 24.6132 2.68499 24.5302 2.60362 24.4887C2.52226 24.4472 2.48157 24.4056 2.44089 24.3641C2.4002 24.3226 2.4002 24.2396 2.35952 24.1981C2.23747 24.0321 2.07473 23.866 1.87131 23.783C1.66789 23.6585 1.46447 23.5755 1.26105 23.534C1.09831 23.4924 0.772839 23.4509 0.732155 23.6585C0.650787 23.534 0.569419 23.4509 0.528735 23.3264C0.48805 23.2019 0.447366 23.1189 0.406682 22.9943C0.365998 22.9113 0.28463 22.8283 0.162577 22.7868C0.0812092 22.7868 -0.0408432 22.8698 0.0405251 22.9528C0.121893 23.0358 0.0812092 23.1604 0.121893 23.2849C0.162577 23.4094 0.243946 23.534 0.28463 23.6585C0.406682 23.9075 0.528735 24.1566 0.691471 24.3641C0.935576 24.7792 1.30173 25.1528 1.62721 25.4434C1.83063 25.6094 2.03405 25.734 2.23747 25.817C2.31884 25.8585 2.44089 25.9415 2.52226 25.8585C2.64431 25.7755 2.52226 25.6924 2.44089 25.6094C2.52226 25.6094 2.64431 25.6094 2.72568 25.5679C2.72568 26.2736 2.76636 26.9792 2.84773 27.6849C2.80705 27.6434 2.72568 27.6019 2.68499 27.5604C2.68499 27.5189 2.68499 27.4358 2.64431 27.3943C2.56294 27.2698 2.35952 27.1868 2.23747 27.1038C1.99336 26.9377 1.74926 26.7717 1.54584 26.6056C1.3831 26.4396 1.139 26.2736 0.894892 26.2736C0.854207 26.2736 0.813523 26.2736 0.772839 26.2736C0.732155 26.2736 0.732155 26.2736 0.691471 26.1906C0.650787 26.1075 0.650787 26.066 0.610103 25.983C0.528735 25.8585 0.528735 25.734 0.528735 25.5679C0.528735 25.4434 0.48805 25.3604 0.365998 25.2773C0.28463 25.2358 0.121893 25.2773 0.121893 25.3604C0.121893 25.4019 0.121893 25.4434 0.162577 25.4849C0.162577 25.5264 0.162577 25.5679 0.162577 25.6094C0.121893 25.734 0.162577 25.8585 0.203262 25.983C0.325314 26.3566 0.406682 26.6472 0.528735 26.9377C0.650787 27.2283 0.813523 27.4773 0.97626 27.7679C1.22036 28.1415 1.50515 28.4736 1.87131 28.7226C2.07473 28.8472 2.23747 28.9302 2.44089 29.0132C2.52226 29.0547 2.96978 29.1377 2.88841 28.9302C2.9291 28.9302 2.96978 28.9302 3.01047 28.8887C3.05115 29.2207 3.13252 29.5528 3.21389 29.8849C3.05115 29.7189 2.80705 29.5943 2.56294 29.5113C2.31884 29.4283 2.07473 29.3453 1.78994 29.2623C1.58652 29.1792 1.3831 29.0962 1.17968 29.0547C1.139 29.0547 1.09831 29.0547 1.01694 29.0547C0.97626 29.0547 0.935576 29.0132 0.894892 28.9717C0.813523 28.9302 0.691471 28.9717 0.650787 29.0132C0.528735 28.7226 0.447366 28.3906 0.325314 28.1C0.28463 28.017 0.243946 27.8924 0.121893 27.8924C-0.000159045 27.8924 -0.000159045 28.017 -0.000159045 28.1415C-0.0408432 28.4321 0.0405251 28.7226 0.162577 29.0132C0.28463 29.3038 0.406682 29.5528 0.528735 29.8019C0.813523 30.2585 1.22036 30.6321 1.66789 30.9226C1.91199 31.0472 2.1561 31.1717 2.4002 31.2547C2.52226 31.2962 2.68499 31.3377 2.76636 31.2962C2.80705 31.2962 2.84773 31.2547 2.84773 31.2132C2.88841 31.1717 2.96978 31.1302 2.9291 31.0472C2.9291 31.0057 2.88841 30.9641 2.84773 30.9226C2.96978 30.9641 3.13252 30.8811 3.21389 30.7566C3.25457 30.7151 3.25457 30.6736 3.21389 30.5906C3.21389 30.549 3.1732 30.549 3.1732 30.5075C3.1732 30.466 3.21389 30.4245 3.21389 30.383C3.29525 30.6321 3.33594 30.8396 3.41731 31.0887C3.41731 31.1302 3.45799 31.2132 3.45799 31.2547C3.49868 31.2962 3.49868 31.3377 3.45799 31.4207C3.41731 31.4623 3.45799 31.5038 3.45799 31.5038L3.49868 31.5453C3.53936 31.5453 3.53936 31.5868 3.53936 31.6283C3.74278 32.0849 3.9462 32.5415 4.14962 32.9981C4.02757 32.8321 3.90552 32.6245 3.74278 32.5C3.66141 32.417 3.53936 32.3755 3.41731 32.3755C3.37662 32.3755 3.29525 32.334 3.25457 32.334C3.1732 32.334 3.13252 32.2924 3.05115 32.2509C2.80705 32.1679 2.60362 32.1264 2.31884 32.2094C2.27815 32.2094 2.19678 32.2509 2.1561 32.2509C2.07473 32.2509 2.03405 32.2509 1.95268 32.2094C1.87131 32.2094 1.70857 32.1679 1.74926 32.2924C1.66789 32.2924 1.58652 32.2924 1.54584 32.3755C1.46447 32.2509 1.3831 32.1264 1.30173 32.0019C1.22036 31.8773 1.17968 31.7528 1.139 31.6283C1.09831 31.5038 0.854207 31.0887 0.650787 31.2962C0.569419 31.3792 0.691471 31.4623 0.732155 31.5453C0.813523 31.6698 0.813523 31.7943 0.854207 31.9189C1.22036 32.334 1.42379 32.583 1.62721 32.8321C2.03405 33.3302 2.52226 33.7038 3.05115 34.0773C3.1732 34.1604 3.29525 34.2434 3.45799 34.3264C3.58004 34.4094 3.7021 34.4924 3.82415 34.534C3.9462 34.5755 4.06825 34.7 4.19031 34.6585C4.23099 34.6585 4.27167 34.617 4.27167 34.5755V34.534C4.27167 34.4924 4.31236 34.4924 4.31236 34.4509C4.31236 34.4094 4.35304 34.4094 4.35304 34.3679C4.35304 34.3264 4.39373 34.3264 4.43441 34.3264C4.51578 34.3264 4.55646 34.3264 4.63783 34.2849C4.75988 34.2019 4.84125 34.1189 4.84125 33.9528C5.04467 34.3264 5.28878 34.7 5.4922 35.0736C5.7363 35.4472 6.02109 35.8207 6.2652 36.1943C6.22451 36.1528 6.18383 36.1528 6.18383 36.1113C6.14314 36.0698 6.14314 36.0283 6.10246 36.0283C6.02109 35.9453 5.93972 35.9038 5.85835 35.8623C5.69562 35.7377 5.4922 35.6962 5.32946 35.6132C4.88194 35.4472 4.43441 35.3641 3.98688 35.2811C3.78346 35.2396 3.58004 35.1981 3.37662 35.1566C3.29525 35.1566 3.1732 35.1151 3.09183 35.1151C3.05115 35.1151 3.01047 35.1566 3.01047 35.1566C2.96978 35.1151 2.9291 35.0736 2.88841 35.0321C2.76636 34.866 2.60362 34.7415 2.44089 34.617C2.35952 34.5755 2.27815 34.534 2.19678 34.5755C2.11542 34.5755 2.11542 34.617 2.19678 34.6585ZM3.33594 32.9981C3.25457 32.9566 3.13252 32.8321 3.05115 32.8321C2.96978 32.8321 2.84773 32.749 2.76636 32.666C2.96978 32.749 3.1732 32.8736 3.33594 32.9981ZM2.80705 30.134C2.80705 30.1755 2.80705 30.1755 2.80705 30.217C2.60362 30.0924 2.44089 29.9264 2.27815 29.8019C2.35952 29.8434 2.44089 29.9264 2.56294 29.9679C2.64431 30.0094 2.72568 30.0924 2.80705 30.134ZM1.09831 24.2396C1.17968 24.3226 1.26105 24.3641 1.34242 24.4472C1.30173 24.4472 1.26105 24.4887 1.26105 24.5302C1.139 24.3641 1.05763 24.1981 0.935576 24.0321C0.935576 24.0321 0.97626 24.0321 1.01694 24.0736C1.05763 24.1151 1.05763 24.0736 1.05763 24.1151C1.01694 24.1566 1.05763 24.1981 1.09831 24.2396ZM1.34242 22.1226C1.30173 22.1226 1.26105 22.0811 1.26105 22.0396C1.22036 21.9981 1.17968 21.9566 1.139 21.9566C1.22036 21.8736 1.30173 22.0811 1.34242 22.1226ZM2.1561 22.9528C2.1561 22.9528 2.1561 22.9943 2.19678 22.9943C2.1561 22.9943 2.1561 22.9943 2.07473 22.9528C2.03405 22.9113 1.99336 22.9113 1.95268 22.8698C1.99336 22.9113 2.07473 22.9528 2.1561 22.9528ZM4.51578 14.7755C4.51578 14.6924 4.51578 14.6509 4.51578 14.5679C4.51578 14.6924 4.51578 14.734 4.51578 14.7755ZM6.14314 16.6434C6.14314 16.6019 6.10246 16.5604 6.06177 16.5189C6.14314 16.5189 6.22451 16.4773 6.2652 16.4773C6.22451 16.5189 6.18383 16.5604 6.14314 16.6434ZM5.20741 18.6773C5.32946 18.6358 5.45151 18.5943 5.57357 18.5528C5.53288 18.5943 5.4922 18.6773 5.45151 18.7189C5.41083 18.7189 5.24809 18.6773 5.20741 18.6773ZM3.9462 19.217C3.9462 19.1755 3.9462 19.134 3.9462 19.0924C3.98688 19.134 4.06825 19.134 4.10894 19.134C4.02757 19.1755 3.98688 19.1755 3.9462 19.217ZM4.63783 20.8773C4.63783 20.8358 4.59715 20.8358 4.63783 20.7943C4.67851 20.7528 4.67851 20.7528 4.7192 20.7528C4.80057 20.7113 4.88194 20.7113 4.92262 20.6698C5.00399 20.6283 5.20741 20.5038 5.12604 20.3792C5.20741 20.3792 5.32946 20.3792 5.41083 20.3792C5.28878 20.5038 5.20741 20.5868 5.08536 20.6698C4.9633 20.7528 4.80057 20.7943 4.63783 20.8773ZM3.78346 20.9189C3.78346 20.8773 3.82415 20.8773 3.86483 20.8773C3.82415 20.9189 3.82415 20.9189 3.78346 20.9189ZM1.42379 19.4245L1.46447 19.466C1.50515 19.5075 1.46447 19.5075 1.46447 19.549C1.42379 19.5075 1.42379 19.466 1.42379 19.4245ZM1.70857 19.3C1.66789 19.2585 1.58652 19.217 1.50515 19.2585C1.46447 19.2585 1.3831 19.3 1.3831 19.383C1.34242 19.3 1.30173 19.1755 1.26105 19.0924C1.42379 19.134 1.54584 19.217 1.70857 19.3ZM2.9291 21.0849C2.88841 21.0434 2.84773 21.0434 2.80705 21.0019C2.80705 20.9604 2.72568 20.9189 2.68499 20.8773L2.72568 20.8358C2.76636 20.7943 2.76636 20.8358 2.80705 20.8358C2.88841 20.8358 2.96978 20.8358 3.05115 20.8358C3.05115 20.8773 3.05115 20.8773 3.05115 20.9604C3.05115 21.0019 3.05115 21.0019 3.05115 21.0434C3.05115 21.0849 3.05115 21.1264 3.05115 21.1679C3.05115 21.1264 2.96978 21.0849 2.9291 21.0849ZM4.63783 24.7377C4.75988 24.6547 4.92262 24.5717 5.04467 24.5302C5.16672 24.4887 5.28878 24.4887 5.41083 24.4472C5.37014 24.5302 5.28878 24.6132 5.24809 24.6962C5.16672 24.6132 5.04467 24.5717 4.92262 24.6132C4.88194 24.6547 4.84125 24.6547 4.80057 24.6962C4.75988 24.7377 4.75988 24.7377 4.7192 24.7792C4.7192 24.7377 4.67851 24.7377 4.63783 24.7377ZM3.25457 25.1528C3.21389 25.1943 3.21389 25.1943 3.1732 25.2358C3.1732 25.1943 3.21389 25.1943 3.25457 25.1528ZM3.45799 25.734C3.45799 25.6924 3.49868 25.6509 3.53936 25.6094C3.58004 25.6094 3.62073 25.6509 3.66141 25.6509C3.7021 25.6924 3.82415 25.6924 3.90552 25.6924C3.82415 25.734 3.74278 25.7755 3.66141 25.817C3.62073 25.734 3.53936 25.734 3.45799 25.734ZM2.64431 25.0698C2.68499 25.0698 2.72568 25.0698 2.76636 25.0283C2.76636 25.0698 2.76636 25.1113 2.76636 25.1528C2.72568 25.1528 2.68499 25.1113 2.64431 25.0698ZM3.45799 28.4321C3.49868 28.3906 3.53936 28.3075 3.62073 28.266C3.66141 28.3075 3.66141 28.349 3.66141 28.3906C3.58004 28.3906 3.49868 28.3906 3.45799 28.4321ZM2.88841 28.4736H2.9291C2.9291 28.5151 2.9291 28.5151 2.9291 28.5566C2.96978 28.5151 2.9291 28.4736 2.88841 28.4736ZM6.83477 32.0434C6.83477 31.9604 6.83477 31.8773 6.7534 31.8358C6.79409 31.8358 6.83477 31.7943 6.87546 31.7943C6.87546 31.8773 6.87546 31.9604 6.83477 32.0434ZM5.89904 32.666C5.98041 32.5415 6.10246 32.4585 6.18383 32.334C6.18383 32.417 6.10246 32.4585 6.06177 32.5415C6.02109 32.583 6.02109 32.6245 5.98041 32.666C5.98041 32.666 5.93972 32.666 5.89904 32.666ZM8.13666 34.6585C8.21803 34.534 8.2994 34.3679 8.38077 34.2434C8.38077 34.3264 8.38077 34.4094 8.38077 34.4924C8.25872 34.4094 8.21803 34.5755 8.21803 34.6585C8.21803 34.6585 8.17735 34.6585 8.13666 34.6585ZM7.60777 35.3226C7.68914 35.1981 7.81119 35.0736 7.93324 34.9906C7.93324 35.0736 7.97393 35.1566 8.01461 35.2811C7.93324 35.2811 7.89256 35.2811 7.81119 35.2811C7.72982 35.2811 7.68914 35.2811 7.60777 35.3226ZM7.68914 36.7755C7.77051 36.817 7.85188 36.817 7.97393 36.7755C7.93324 36.817 7.89256 36.9 7.85188 36.9C7.81119 36.8585 7.77051 36.817 7.68914 36.7755ZM3.82415 35.9038C3.86483 35.9038 3.9462 35.9038 3.98688 35.9038C4.02757 35.9453 4.02757 35.9038 4.02757 35.9453C4.02757 35.9868 4.02757 35.9868 4.02757 36.0283C3.9462 36.0283 3.90552 35.9453 3.82415 35.9038ZM3.33594 35.4472C3.49868 35.4887 3.62073 35.6132 3.74278 35.6962C3.7021 35.7377 3.7021 35.7792 3.7021 35.7792C3.58004 35.6962 3.45799 35.5717 3.33594 35.4472Z" fill="white"/>
<path fill-rule="evenodd" clip-rule="evenodd" d="M100.653 24.3228C100.653 23.2435 100.531 22.4133 101.751 22.4133C102.768 22.4133 102.687 23.6171 102.687 24.1152V25.5265C102.687 26.3567 102.524 26.7303 101.833 26.7303C100.978 26.7718 100.653 26.1077 100.653 25.1529V24.3228ZM98.7812 24.1567V25.3605C98.7812 26.8548 99.9204 28.6812 101.344 28.6812H101.873C103.541 28.6812 104.762 27.436 104.762 25.7341V23.4511C104.762 22.0812 103.826 20.6699 102.524 20.6699H101.344C99.7577 20.6699 98.7812 22.5378 98.7812 24.1567Z" fill="white"/>
<path fill-rule="evenodd" clip-rule="evenodd" d="M145.405 28.0174V28.1835C145.405 29.4288 146.911 29.7608 148.131 29.7608C150.328 29.7608 150.857 27.8099 150.857 25.4023C149.026 26.3571 145.405 25.8174 145.405 28.0174Z" fill="white"/>
<path fill-rule="evenodd" clip-rule="evenodd" d="M89.0578 19.9642C89.0578 19.1755 89.546 17.6812 90.2376 17.6812H91.4174C92.3125 17.6812 92.8007 18.3868 92.8007 19.2585V30.4246C92.8007 31.4623 92.4345 32.168 91.4174 32.168H90.2376C89.4646 32.168 89.0578 30.7151 89.0578 29.8849V19.9642ZM126.446 19.134C126.446 18.5114 126.935 17.7227 127.464 17.7227H128.847C129.294 17.7227 129.335 17.8057 129.701 17.8887C129.783 18.8434 130.23 19.1755 130.23 20.1717V29.5944C130.23 30.5491 129.905 32.2095 129.05 32.2095H127.87C127.057 32.2095 126.487 31.6698 126.487 30.7981V19.134H126.446ZM110.905 19.3C110.905 18.5114 111.475 17.7227 112.288 17.7227H113.305C117.048 17.7227 112.248 29.0547 117.048 29.0547H117.211C122.704 29.0547 118.31 17.7227 121.158 17.7227H122.541C123.517 17.7227 123.924 18.8019 123.924 19.6321V30.2585C123.924 31.0472 123.477 32.168 122.541 32.168H121.849C120.629 32.168 120.466 31.1717 120.466 29.8849C119.123 30.6321 118.676 32.168 116.723 32.168H115.177C111.922 32.168 110.905 29.6359 110.905 26.2321V19.3ZM95.0383 25.4019V24.3642C95.0383 21.0849 97.1539 17.7642 100.165 17.7642H101.711C103.745 17.7642 104.152 19.134 105.128 19.8397C105.128 18.5944 105.25 17.7642 106.511 17.7642H107.203C108.098 17.7642 108.586 18.4698 108.586 19.3415V30.6736C108.586 34.8246 106.43 37.6472 102.443 37.6472H100.734C99.0661 37.6472 96.1368 36.2774 96.1368 34.7C96.1368 33.9944 96.3402 33.1227 96.9912 33.1227H97.8455C99.1067 33.1227 99.6763 34.7 101.1 34.7H102.646C103.948 34.7 104.884 33.2887 104.884 31.9189V30.0095C103.948 30.2585 103.175 31.5868 101.141 31.5868H100.287C97.2353 31.4623 95.0383 28.5566 95.0383 25.4019ZM65.6644 20.1717C65.6644 19.0095 65.8678 17.7227 67.0476 17.7227H67.902C69.1225 17.7227 69.2853 18.7189 69.2853 20.0057C70.2617 19.3 71.0754 17.7227 73.0282 17.7227H73.3537C75.3472 17.7227 77.0966 18.3453 77.4628 20.0057C78.9274 19.5906 78.6833 17.7227 81.4091 17.7227H83.1179C85.5996 17.7227 86.8608 19.9642 86.8608 22.6208V29.5944C86.8608 30.9227 86.454 32.3755 85.1521 32.3755C80.1073 32.3755 85.7217 20.8774 80.8802 20.8774C75.4693 20.8774 80.1479 32.2095 76.9339 32.2095H75.754C72.0111 32.2095 76.7305 20.8774 72.1738 20.8774C66.6815 20.8774 71.6856 32.2095 68.0648 32.2095H66.8849C66.234 32.2095 65.7051 30.9227 65.7051 30.3V20.1717H65.6644ZM142.476 20.8359C142.476 19.217 145.324 17.6812 147.073 17.6812H150.165C151.549 17.6812 152.81 18.1793 153.542 18.9264C154.722 20.1302 154.6 20.1302 154.6 22.3717C154.6 23.8661 154.6 25.4019 154.6 26.8963C154.6 28.7227 155.129 29.8019 155.129 30.9227C155.129 31.7114 154.112 32.1264 153.42 32.1264H152.728C151.63 32.1264 151.182 31.1717 151.182 30.051C149.555 30.5076 149.596 32.1264 146.056 32.1264H145.202C143.452 32.1264 141.622 30.4661 141.622 28.6397V27.934C141.622 23.617 147.033 23.9076 150.654 23.0359C150.694 22.4963 150.816 22.4132 150.816 21.8321C150.816 21.0849 149.881 20.4208 149.108 20.4208H148.416C146.016 20.4208 145.039 22.4963 143.981 22.4963C143.29 22.4963 142.435 21.9981 142.435 21.0849V20.8359H142.476ZM133.932 15.8132C133.932 14.651 134.502 13.7378 135.641 13.7378H136.495C136.902 13.7378 137.675 14.5264 137.675 14.9415V17.5566C138.733 17.5566 140.564 17.6397 140.564 18.5944V19.134C140.564 19.9642 140.035 20.5453 139.181 20.5453H137.797V28.7227C137.797 30.0095 140.523 28.2661 140.523 30.4661V30.6321C140.523 31.7114 139.709 32.2095 138.652 32.2095H136.414C134.827 32.2095 133.851 30.6321 133.851 28.8887V20.5038H132.997C132.183 20.5038 131.613 19.9642 131.613 19.0925C131.613 18.4698 132.102 17.6812 132.63 17.6812H133.81V15.8132H133.932ZM126.284 14.0698C126.284 13.3227 127.097 12.3264 127.992 12.3264H128.847C129.376 12.3264 130.23 13.3642 130.23 14.0698V14.6095C130.23 15.5642 129.254 16.3529 128.359 16.3529H128.155C127.016 16.3114 126.284 15.3151 126.284 14.0698ZM89.0578 14.0698C89.0578 13.3227 89.8308 12.3264 90.441 12.3264H91.2954C92.2311 12.3264 93.0041 13.3227 93.0041 14.2359C93.0041 15.2736 92.1497 16.3114 91.1326 16.3114C90.0342 16.3114 89.0984 15.6472 89.0984 14.568V14.0698H89.0578ZM124.9 16.6849C124.209 16.2283 123.558 15.6472 122.337 15.6472H122.012C116.926 15.6472 118.025 21.6661 117.903 26.8132C117.415 26.9378 117.618 26.9793 117.211 26.9793C117.13 26.9793 116.845 26.7302 116.682 26.6472C116.682 20.9604 118.066 15.6887 112.41 15.6887C111.353 15.6887 110.091 16.2283 109.847 17.1C109.196 16.6434 108.505 15.6887 107.447 15.6887H106.755C105.331 15.6887 105.087 15.8963 104.192 16.3944C103.46 16.0208 102.239 15.6887 101.1 15.6887H99.717C97.1539 15.6887 95.5265 18.2208 94.5908 18.4698L93.8992 16.8925C94.3467 16.3529 94.7535 15.6472 94.7535 14.651V13.6132C94.7535 12.2019 92.76 10.2925 91.3361 10.2925H90.319C88.6916 10.2925 86.9015 12.368 86.9015 14.1114V14.651C86.9015 15.7717 87.7559 16.851 87.7559 16.934C87.7559 17.3906 87.5118 17.5981 87.227 17.8057C85.5589 16.6434 85.1928 15.7302 82.1008 15.7302H81.5719C79.2529 15.7302 78.9274 16.2283 77.6255 17.1415C76.5677 16.3944 75.9575 15.7302 74.0453 15.7302H72.4993C71.5229 15.7302 70.2617 16.4359 69.9362 16.6019C69.3666 16.1868 68.5123 15.7302 67.5359 15.7302H67.007C64.8507 15.7302 63.4268 17.5151 63.4268 19.7566V30.2585C63.4268 33.0397 65.0541 34.2849 67.8613 34.2849H68.0241C73.313 34.2849 70.1803 23.3264 71.767 23.3264C73.3537 23.3264 69.5701 34.2849 75.7134 34.2849C78.3172 34.2849 79.9038 32.9566 79.9852 30.4661C80.0259 29.1793 79.9852 27.768 79.9852 26.4397C79.9852 24.9038 79.497 23.3264 80.8396 23.2849V30.9642C80.8396 32.3755 82.5076 34.2849 83.7281 34.2849H85.1928C86.4947 34.2849 87.1049 33.5793 87.8372 33.0812C88.4475 33.9944 89.5866 34.2849 91.092 34.2849C92.8007 34.2849 93.2889 33.7868 93.9805 32.8736C93.7364 34.2434 93.7364 34.9906 94.0212 35.7793C94.3874 36.6095 94.8349 37.1906 95.4452 37.8132C96.2182 38.5189 99.1881 39.6812 100.612 39.6812H102.158C106.186 39.6812 110.01 36.2774 110.01 32.0019C111.475 32.417 111.678 34.2849 115.462 34.2849H116.316C117.618 34.2849 118.513 33.7038 119.408 33.2472C119.978 34.1189 121.239 34.2849 122.663 34.2849C123.558 34.2849 124.534 33.2472 125.063 32.8736C125.429 33.5793 126.324 34.2849 127.301 34.2849H127.83C130.352 34.2849 131.939 33.0397 131.939 30.4661C132.59 31.2547 132.264 32.0434 133.607 33.1227C134.258 33.6208 135.641 34.3264 136.699 34.3264H137.553C138.896 34.3264 141.215 33.9529 141.5 32.9151C142.273 33.1227 143.981 34.534 145.446 34.3264C145.446 34.3264 148.009 34.451 150.206 33.2887C150.247 33.2887 151.833 34.3264 152.606 34.3264H153.623C155.169 34.3264 156.878 32.8321 156.878 31.1717V31.0057C156.878 29.0963 156.553 27.7264 156.553 25.4434C156.553 23.7415 156.675 21.2925 156.349 19.9227C155.698 17.2661 152.606 15.6887 149.23 15.6887H148.05C144.754 15.6887 144.225 16.5189 142.232 17.5981C141.744 16.6434 141.093 15.8547 139.669 15.8547C139.669 13.8208 138.53 11.8283 136.78 11.8283H135.071C132.834 11.8283 132.956 13.5717 131.979 14.2774C131.979 11.9114 130.637 10.251 128.399 10.251H128.155C126.365 10.251 124.412 11.7868 124.412 13.4057C124.372 13.3642 123.883 14.7755 124.9 16.6849Z" fill="white"/>
</g>
<defs>
<clipPath id="clip0_631_763">
<rect width="157" height="44" fill="white" transform="translate(0 0.37207)"/>
</clipPath>
</defs>
</svg>
