<svg width="18" height="19" viewBox="0 0 18 19" fill="none" xmlns="http://www.w3.org/2000/svg">
<path d="M3.62 8.30495C5.06 11.217 7.38 13.594 10.21 15.086L12.41 12.8223C12.68 12.5444 13.08 12.4518 13.43 12.5753C14.55 12.956 15.76 13.1618 17 13.1618C17.55 13.1618 18 13.6249 18 14.1908V17.782C18 18.348 17.55 18.811 17 18.811C7.61 18.811 0 10.9803 0 1.31806C0 0.752111 0.45 0.289062 1 0.289062H4.5C5.05 0.289062 5.5 0.752111 5.5 1.31806C5.5 2.60431 5.7 3.8391 6.07 4.99158C6.18 5.35173 6.1 5.75304 5.82 6.04116L3.62 8.30495Z" fill="white"/>
</svg>
