<svg width="60" height="60" viewBox="0 0 72 73" fill="none" xmlns="http://www.w3.org/2000/svg">
<path d="M1.13697 72.0702L5.97122 53.5682L6.02072 53.3787L5.9284 53.206C3.13458 47.9803 1.54263 42.1595 1.54263 36.3487C1.54263 17.0848 17.0829 1.23828 36.3992 1.23828C55.5171 1.23828 71.2557 16.885 71.2557 36.3487C71.2557 55.6127 55.7154 71.4592 36.3992 71.4592C30.6236 71.4592 25.0484 70.0557 19.8684 67.2464L19.6939 67.1518L19.502 67.2026L1.13697 72.0702ZM21.5738 61.5894L21.5851 61.597L21.5968 61.604C26.116 64.2936 31.2549 65.7441 36.3992 65.7441C52.4376 65.7441 65.5885 52.4936 65.5885 36.3487C65.5885 20.2039 52.4376 6.9534 36.3992 6.9534C20.3607 6.9534 7.20987 20.2039 7.20987 36.3487C7.20987 41.7303 8.64897 46.9107 11.53 51.4705L11.5299 51.4705L11.5357 51.4794L12.2204 52.5138L9.44863 63.0824L9.23072 63.9133L10.0608 63.6924L20.5497 60.9019L21.5738 61.5894Z" fill="#FF5E56" stroke="white"/>
<path d="M39.6408 44.5426L39.6577 44.5498L39.6751 44.5556C40.0175 44.6706 40.4132 44.7475 40.8082 44.6752C41.2189 44.6 41.5823 44.3716 41.855 43.9693C42.0733 43.6918 42.2853 43.3566 42.4919 43.0211C42.5326 42.955 42.5732 42.8888 42.6138 42.8224C42.7888 42.5369 42.9646 42.25 43.1532 41.97C43.6229 41.2728 44.1075 40.722 44.6687 40.4755C45.3239 40.232 46.101 40.3019 46.9315 40.5648C47.7616 40.8276 48.5818 41.2627 49.2826 41.6661C49.4628 41.7698 49.6495 41.8735 49.839 41.9787C50.4305 42.3073 51.0486 42.6506 51.5772 43.0545C52.2803 43.5918 52.6687 44.1233 52.6687 44.6921V44.7532L52.6835 44.8125C52.8654 45.5457 52.8564 46.2317 52.5188 46.9116L52.5154 46.9186L52.5121 46.9256C51.3854 49.3844 48.9245 50.9364 46.4065 51.5264C44.1466 51.8718 42.3731 51.2686 40.2105 50.5331C40.0071 50.4639 39.8003 50.3936 39.5893 50.3227L39.5821 50.3203L39.5748 50.3181C37.5983 49.7209 35.4217 48.7239 33.6478 47.5328L33.6479 47.5326L33.6374 47.526C29.8547 45.1198 26.6709 42.1141 24.083 38.507C23.8338 38.1308 23.5912 37.7822 23.3579 37.447C22.8076 36.6561 22.3088 35.9393 21.8967 35.1093L21.8793 35.0743L21.8567 35.0424C20.8871 33.6752 20.117 32.1251 19.7262 30.3915C19.7218 29.9726 19.6696 29.605 19.622 29.2694L19.6205 29.2585C19.5696 28.8998 19.5244 28.5765 19.5244 28.2095C19.5244 25.6673 20.4991 22.9832 22.3687 21.4768L22.3687 21.4768L22.3764 21.4704C23.4757 20.5478 25.0669 20.2291 26.2504 20.9103L26.2625 20.9172L26.2749 20.9235C26.9532 21.2651 27.4983 21.9272 27.9598 22.7345C28.337 23.3944 28.6315 24.1004 28.8972 24.7371C28.9561 24.8784 29.0136 25.0163 29.0703 25.1495L29.076 25.1629L29.0825 25.176C29.377 25.7692 29.6665 26.4517 29.8575 27.125C30.0506 27.8058 30.131 28.4359 30.0473 28.9418L30.0471 28.9418L30.0455 28.9532C29.9589 29.5638 29.6978 30.1023 29.3436 30.6254C29.0922 30.9969 28.8143 31.3339 28.5255 31.6842C28.4004 31.836 28.2732 31.9903 28.1452 32.1509C27.795 32.5105 27.5788 32.9132 27.542 33.3572C27.505 33.8049 27.6567 34.2192 27.8982 34.5855C30.7807 39.146 34.6983 42.4685 39.6408 44.5426Z" fill="#FF5E56" stroke="white"/>
</svg>
